<svg width="100" height="70" viewBox="0 15 100 70" fill="none" xmlns="http://www.w3.org/2000/svg">
<g clip-path="url(#clip0_18775_1678)">
<g clip-path="url(#clip1_18775_1678)">
<path fill-rule="evenodd" clip-rule="evenodd" d="M25.5628 84.7157C25.1511 84.69 24.7523 84.69 24.3406 84.6514C23.5301 84.5742 22.7197 84.4198 21.9349 84.1882C20.7642 83.8409 19.632 83.3263 18.6028 82.6701C17.5736 82.014 16.6345 81.2035 15.8369 80.2772C15.1293 79.4539 15.0006 79.1966 14.4217 78.2832L1.7239 56.2839C1.22216 55.3191 1.06778 55.0875 0.707559 54.0583C0.308743 52.9004 0.0771719 51.6911 0.0128466 50.4689C-0.0514786 49.2468 0.0771719 48.0117 0.360203 46.8281C0.553179 46.0305 0.823344 45.2586 1.15784 44.5124C1.32508 44.1393 1.53092 43.792 1.7239 43.4189L14.4217 21.4325C15.0135 20.5191 15.1293 20.2618 15.8369 19.4384C16.6345 18.5122 17.5736 17.7017 18.6028 17.0455C19.632 16.3894 20.7642 15.8748 21.9349 15.5275C22.7197 15.2959 23.5173 15.1415 24.3406 15.0643C24.7523 15.0257 25.1511 15.0257 25.5628 15H74.4371C75.5178 15.0515 75.8008 15.0257 76.8686 15.2316C78.0779 15.4631 79.2358 15.862 80.3293 16.428C81.4229 16.9941 82.4263 17.7017 83.314 18.5508C83.9058 19.1168 84.4461 19.7343 84.9093 20.4033C85.1409 20.7378 85.3467 21.0852 85.5654 21.4325L98.2632 43.4189C98.4562 43.7791 98.6492 44.1393 98.8293 44.5124C99.1638 45.2586 99.4339 46.0305 99.6269 46.8281C99.9099 48.0246 100.039 49.2468 99.9743 50.4689C99.9099 51.6911 99.6784 52.9133 99.2795 54.0583C98.9193 55.0875 98.7649 55.3191 98.2632 56.2839L85.5654 78.2703C84.9736 79.1837 84.8578 79.441 84.1502 80.2644C83.3526 81.1907 82.4135 82.0012 81.3843 82.6573C80.3551 83.3134 79.2229 83.828 78.0522 84.1754C77.2674 84.4069 76.4698 84.5613 75.6465 84.6385C75.2348 84.6771 74.836 84.6771 74.4243 84.7028C58.15 84.7157 41.85 84.7157 25.5628 84.7157Z" fill="#8C66FF"/>
</g>
<path d="M29.0899 54.0422L25.0187 56.5301C24.1509 57.0605 23.6216 58.0043 23.6216 59.0213V59.0213C23.6216 60.6338 24.9287 61.9409 26.5411 61.9409H44.6771C46.3033 61.9409 47.6216 60.6226 47.6216 58.9964V58.9964C47.6216 57.9918 47.1094 57.0566 46.263 56.5155L24.8443 42.8238C24.0825 42.3368 23.6216 41.4951 23.6216 40.591V40.591C23.6216 39.1274 24.8081 37.9409 26.2716 37.9409H44.712C46.3189 37.9409 47.6216 39.2436 47.6216 40.8505V40.8505C47.6216 41.8725 47.0853 42.8196 46.209 43.3454L42.3051 45.6878" stroke="#3D2E6B" stroke-width="5" stroke-linecap="round" stroke-linejoin="round"/>
<path d="M54.7466 37.9409V37.9409C56.76 37.9409 58.3922 39.5731 58.3922 41.5865V58.5991C58.3922 60.4448 59.8883 61.9409 61.7339 61.9409V61.9409" stroke="#3D2E6B" stroke-width="5" stroke-linecap="round"/>
<path d="M72.2708 38.0249H74.4385C75.9538 38.0249 77.1823 39.2533 77.1823 40.7687V40.7687C77.1823 41.698 76.7118 42.5642 75.9322 43.0702L65.44 49.88M65.44 49.88H58.5527M65.44 49.88L77.1823 57.727" stroke="#3D2E6B" stroke-width="5" stroke-linecap="round"/>
</g>
<defs>
<clipPath id="clip0_18775_1678">
<rect width="100" height="100" fill="white"/>
</clipPath>
<clipPath id="clip1_18775_1678">
<rect width="100" height="100" fill="white"/>
</clipPath>
</defs>
</svg>
