<svg width="100" height="70" viewBox="0 0 100 70" fill="none" xmlns="http://www.w3.org/2000/svg">
<g clip-path="url(#clip0_292_746)">
<g clip-path="url(#clip1_292_746)">
<path fill-rule="evenodd" clip-rule="evenodd" d="M25.5628 69.7157C25.1511 69.69 24.7523 69.69 24.3406 69.6514C23.5301 69.5742 22.7197 69.4198 21.9349 69.1882C20.7642 68.8409 19.632 68.3263 18.6028 67.6701C17.5736 67.014 16.6345 66.2035 15.8369 65.2772C15.1293 64.4539 15.0006 64.1966 14.4217 63.2832L1.7239 41.2839C1.22216 40.3191 1.06778 40.0875 0.707559 39.0583C0.308743 37.9004 0.0771719 36.6911 0.0128466 35.4689C-0.0514786 34.2468 0.0771719 33.0117 0.360203 31.8281C0.553179 31.0305 0.823344 30.2586 1.15784 29.5124C1.32508 29.1393 1.53092 28.792 1.7239 28.4189L14.4217 6.43252C15.0135 5.5191 15.1293 5.2618 15.8369 4.43844C16.6345 3.51216 17.5736 2.70166 18.6028 2.04554C19.632 1.38942 20.7642 0.874823 21.9349 0.527467C22.7197 0.295896 23.5173 0.141516 24.3406 0.0643252C24.7523 0.0257301 25.1511 0.0257301 25.5628 0H74.4371C75.5178 0.0514602 75.8008 0.0257301 76.8686 0.231571C78.0779 0.463142 79.2358 0.861958 80.3293 1.42802C81.4229 1.99408 82.4263 2.70166 83.314 3.55075C83.9058 4.11681 84.4461 4.73434 84.9093 5.40332C85.1409 5.73781 85.3467 6.08517 85.5654 6.43252L98.2632 28.4189C98.4562 28.7791 98.6492 29.1393 98.8293 29.5124C99.1638 30.2586 99.4339 31.0305 99.6269 31.8281C99.9099 33.0246 100.039 34.2468 99.9743 35.4689C99.9099 36.6911 99.6784 37.9133 99.2795 39.0583C98.9193 40.0875 98.7649 40.3191 98.2632 41.2839L85.5654 63.2703C84.9736 64.1837 84.8578 64.441 84.1502 65.2644C83.3526 66.1907 82.4135 67.0012 81.3843 67.6573C80.3551 68.3134 79.2229 68.828 78.0522 69.1754C77.2674 69.4069 76.4698 69.5613 75.6465 69.6385C75.2348 69.6771 74.836 69.6771 74.4243 69.7028C58.15 69.7157 41.85 69.7157 25.5628 69.7157Z" fill="#8C66FF"/>
</g>
<path d="M73.3333 53.3333H26.6667C24.0893 53.3333 22 51.244 22 48.6667V20.6667C22 18.0893 24.0893 16 26.6667 16H73.3333C75.9107 16 78 18.0893 78 20.6667V48.6667C78 51.244 75.9107 53.3333 73.3333 53.3333ZM34.4444 27.2778V23.3889C34.4444 22.7446 33.9221 22.2222 33.2778 22.2222H29.3889C28.7446 22.2222 28.2222 22.7446 28.2222 23.3889V27.2778C28.2222 27.9221 28.7446 28.4444 29.3889 28.4444H33.2778C33.9221 28.4444 34.4444 27.9221 34.4444 27.2778ZM43.7778 27.2778V23.3889C43.7778 22.7446 43.2554 22.2222 42.6111 22.2222H38.7222C38.0779 22.2222 37.5556 22.7446 37.5556 23.3889V27.2778C37.5556 27.9221 38.0779 28.4444 38.7222 28.4444H42.6111C43.2554 28.4444 43.7778 27.9221 43.7778 27.2778ZM53.1111 27.2778V23.3889C53.1111 22.7446 52.5887 22.2222 51.9444 22.2222H48.0556C47.4113 22.2222 46.8889 22.7446 46.8889 23.3889V27.2778C46.8889 27.9221 47.4113 28.4444 48.0556 28.4444H51.9444C52.5887 28.4444 53.1111 27.9221 53.1111 27.2778ZM62.4444 27.2778V23.3889C62.4444 22.7446 61.9221 22.2222 61.2778 22.2222H57.3889C56.7446 22.2222 56.2222 22.7446 56.2222 23.3889V27.2778C56.2222 27.9221 56.7446 28.4444 57.3889 28.4444H61.2778C61.9221 28.4444 62.4444 27.9221 62.4444 27.2778ZM71.7778 27.2778V23.3889C71.7778 22.7446 71.2554 22.2222 70.6111 22.2222H66.7222C66.0779 22.2222 65.5556 22.7446 65.5556 23.3889V27.2778C65.5556 27.9221 66.0779 28.4444 66.7222 28.4444H70.6111C71.2554 28.4444 71.7778 27.9221 71.7778 27.2778ZM39.1111 36.6111V32.7222C39.1111 32.0779 38.5887 31.5556 37.9444 31.5556H34.0556C33.4113 31.5556 32.8889 32.0779 32.8889 32.7222V36.6111C32.8889 37.2554 33.4113 37.7778 34.0556 37.7778H37.9444C38.5887 37.7778 39.1111 37.2554 39.1111 36.6111ZM48.4444 36.6111V32.7222C48.4444 32.0779 47.9221 31.5556 47.2778 31.5556H43.3889C42.7446 31.5556 42.2222 32.0779 42.2222 32.7222V36.6111C42.2222 37.2554 42.7446 37.7778 43.3889 37.7778H47.2778C47.9221 37.7778 48.4444 37.2554 48.4444 36.6111ZM57.7778 36.6111V32.7222C57.7778 32.0779 57.2554 31.5556 56.6111 31.5556H52.7222C52.0779 31.5556 51.5556 32.0779 51.5556 32.7222V36.6111C51.5556 37.2554 52.0779 37.7778 52.7222 37.7778H56.6111C57.2554 37.7778 57.7778 37.2554 57.7778 36.6111ZM67.1111 36.6111V32.7222C67.1111 32.0779 66.5887 31.5556 65.9444 31.5556H62.0556C61.4113 31.5556 60.8889 32.0779 60.8889 32.7222V36.6111C60.8889 37.2554 61.4113 37.7778 62.0556 37.7778H65.9444C66.5887 37.7778 67.1111 37.2554 67.1111 36.6111ZM34.4444 45.9444V42.0556C34.4444 41.4113 33.9221 40.8889 33.2778 40.8889H29.3889C28.7446 40.8889 28.2222 41.4113 28.2222 42.0556V45.9444C28.2222 46.5887 28.7446 47.1111 29.3889 47.1111H33.2778C33.9221 47.1111 34.4444 46.5887 34.4444 45.9444ZM62.4444 45.9444V42.0556C62.4444 41.4113 61.9221 40.8889 61.2778 40.8889H38.7222C38.0779 40.8889 37.5556 41.4113 37.5556 42.0556V45.9444C37.5556 46.5887 38.0779 47.1111 38.7222 47.1111H61.2778C61.9221 47.1111 62.4444 46.5887 62.4444 45.9444ZM71.7778 45.9444V42.0556C71.7778 41.4113 71.2554 40.8889 70.6111 40.8889H66.7222C66.0779 40.8889 65.5556 41.4113 65.5556 42.0556V45.9444C65.5556 46.5887 66.0779 47.1111 66.7222 47.1111H70.6111C71.2554 47.1111 71.7778 46.5887 71.7778 45.9444Z" fill="#2D1E59"/>
</g>
<defs>
<clipPath id="clip0_292_746">
<rect width="100" height="70" fill="white"/>
</clipPath>
<clipPath id="clip1_292_746">
<rect width="100" height="69.7157" fill="white"/>
</clipPath>
</defs>
</svg>
