<svg width="100" height="70" viewBox="0 0 100 70" fill="none" xmlns="http://www.w3.org/2000/svg">
<g clip-path="url(#clip0_292_766)">
<g clip-path="url(#clip1_292_766)">
<path fill-rule="evenodd" clip-rule="evenodd" d="M25.5628 69.7157C25.1511 69.69 24.7523 69.69 24.3406 69.6514C23.5301 69.5742 22.7197 69.4198 21.9349 69.1882C20.7642 68.8409 19.632 68.3263 18.6028 67.6701C17.5736 67.014 16.6345 66.2035 15.8369 65.2772C15.1293 64.4539 15.0006 64.1966 14.4217 63.2832L1.7239 41.2839C1.22216 40.3191 1.06778 40.0875 0.707559 39.0583C0.308743 37.9004 0.0771719 36.6911 0.0128466 35.4689C-0.0514786 34.2468 0.0771719 33.0117 0.360203 31.8281C0.553179 31.0305 0.823344 30.2586 1.15784 29.5124C1.32508 29.1393 1.53092 28.792 1.7239 28.4189L14.4217 6.43252C15.0135 5.5191 15.1293 5.2618 15.8369 4.43844C16.6345 3.51216 17.5736 2.70166 18.6028 2.04554C19.632 1.38942 20.7642 0.874823 21.9349 0.527467C22.7197 0.295896 23.5173 0.141516 24.3406 0.0643252C24.7523 0.0257301 25.1511 0.0257301 25.5628 0H74.4371C75.5178 0.0514602 75.8008 0.0257301 76.8686 0.231571C78.0779 0.463142 79.2358 0.861958 80.3293 1.42802C81.4229 1.99408 82.4263 2.70166 83.314 3.55075C83.9058 4.11681 84.4461 4.73434 84.9093 5.40332C85.1409 5.73781 85.3467 6.08517 85.5654 6.43252L98.2632 28.4189C98.4562 28.7791 98.6492 29.1393 98.8293 29.5124C99.1638 30.2586 99.4339 31.0305 99.6269 31.8281C99.9099 33.0246 100.039 34.2468 99.9743 35.4689C99.9099 36.6911 99.6784 37.9133 99.2795 39.0583C98.9193 40.0875 98.7649 40.3191 98.2632 41.2839L85.5654 63.2703C84.9736 64.1837 84.8578 64.441 84.1502 65.2644C83.3526 66.1907 82.4135 67.0012 81.3843 67.6573C80.3551 68.3134 79.2229 68.828 78.0522 69.1754C77.2674 69.4069 76.4698 69.5613 75.6465 69.6385C75.2348 69.6771 74.836 69.6771 74.4243 69.7028C58.15 69.7157 41.85 69.7157 25.5628 69.7157Z" fill="#66CCFF"/>
</g>
<path d="M68.4819 23.826L62.51 29.7984L68.4444 55.6177C68.494 55.8429 68.4786 56.0777 68.3999 56.2945C68.3212 56.5113 68.1824 56.7012 67.9999 56.8422L63.2512 60.4032C63.0479 60.5535 62.8003 60.6319 62.5475 60.626C62.4596 60.6295 62.3719 60.6171 62.2883 60.5896C62.1203 60.5603 61.9619 60.4909 61.8263 60.3874C61.6908 60.2839 61.5821 60.1493 61.5096 59.995L51.1585 41.1498L41.552 50.7583L43.5177 57.9553C43.571 58.1562 43.5717 58.3675 43.5197 58.5688C43.4677 58.7702 43.3649 58.9547 43.2209 59.1047L39.6603 62.6669C39.4293 62.883 39.1241 63.0023 38.8077 63H38.7326C38.5581 62.9895 38.3879 62.9409 38.2341 62.8576C38.0803 62.7744 37.9467 62.6584 37.8425 62.5179L30.8327 53.1698L21.4843 46.1582C21.345 46.0614 21.2294 45.9345 21.1459 45.7868C21.0625 45.6392 21.0134 45.4747 21.0022 45.3055C20.9921 45.1362 21.0165 44.9667 21.0739 44.8072C21.1314 44.6477 21.2207 44.5015 21.3365 44.3777L24.8971 40.7792C25.1286 40.5637 25.4335 40.4446 25.7497 40.4461C25.8505 40.4379 25.9518 40.4502 26.0476 40.4824L33.2428 42.4494L42.8503 32.8409L24.0105 22.4912C23.8473 22.3971 23.7064 22.2688 23.5975 22.1152C23.4886 21.9615 23.4142 21.7861 23.3795 21.6009C23.3607 21.4198 23.3808 21.2367 23.4384 21.064C23.496 20.8912 23.5899 20.7328 23.7138 20.5993L28.4613 15.8502C28.758 15.591 29.2036 15.442 29.5742 15.5534L54.2417 21.452L60.1761 15.5171C63.7367 11.9561 69.6758 9.58096 72.046 11.9561C74.4163 14.3312 72.046 20.265 68.4854 23.826" fill="#1E4559"/>
</g>
<defs>
<clipPath id="clip0_292_766">
<rect width="100" height="70" fill="white"/>
</clipPath>
<clipPath id="clip1_292_766">
<rect width="100" height="69.7157" fill="white"/>
</clipPath>
</defs>
</svg>
