<svg width="100" height="70" viewBox="0 0 100 70" fill="none" xmlns="http://www.w3.org/2000/svg">
<g clip-path="url(#clip0_292_776)">
<g clip-path="url(#clip1_292_776)">
<path fill-rule="evenodd" clip-rule="evenodd" d="M25.5628 69.7157C25.1511 69.69 24.7523 69.69 24.3406 69.6514C23.5301 69.5742 22.7197 69.4198 21.9349 69.1882C20.7642 68.8409 19.632 68.3263 18.6028 67.6701C17.5736 67.014 16.6345 66.2035 15.8369 65.2772C15.1293 64.4539 15.0006 64.1966 14.4217 63.2832L1.7239 41.2839C1.22216 40.3191 1.06778 40.0875 0.707559 39.0583C0.308743 37.9004 0.0771719 36.6911 0.0128466 35.4689C-0.0514786 34.2468 0.0771719 33.0117 0.360203 31.8281C0.553179 31.0305 0.823344 30.2586 1.15784 29.5124C1.32508 29.1393 1.53092 28.792 1.7239 28.4189L14.4217 6.43252C15.0135 5.5191 15.1293 5.2618 15.8369 4.43844C16.6345 3.51216 17.5736 2.70166 18.6028 2.04554C19.632 1.38942 20.7642 0.874823 21.9349 0.527467C22.7197 0.295896 23.5173 0.141516 24.3406 0.0643252C24.7523 0.0257301 25.1511 0.0257301 25.5628 0H74.4371C75.5178 0.0514602 75.8008 0.0257301 76.8686 0.231571C78.0779 0.463142 79.2358 0.861958 80.3293 1.42802C81.4229 1.99408 82.4263 2.70166 83.314 3.55075C83.9058 4.11681 84.4461 4.73434 84.9093 5.40332C85.1409 5.73781 85.3467 6.08517 85.5654 6.43252L98.2632 28.4189C98.4562 28.7791 98.6492 29.1393 98.8293 29.5124C99.1638 30.2586 99.4339 31.0305 99.6269 31.8281C99.9099 33.0246 100.039 34.2468 99.9743 35.4689C99.9099 36.6911 99.6784 37.9133 99.2795 39.0583C98.9193 40.0875 98.7649 40.3191 98.2632 41.2839L85.5654 63.2703C84.9736 64.1837 84.8578 64.441 84.1502 65.2644C83.3526 66.1907 82.4135 67.0012 81.3843 67.6573C80.3551 68.3134 79.2229 68.828 78.0522 69.1754C77.2674 69.4069 76.4698 69.5613 75.6465 69.6385C75.2348 69.6771 74.836 69.6771 74.4243 69.7028C58.15 69.7157 41.85 69.7157 25.5628 69.7157Z" fill="#FF66AA"/>
</g>
<path d="M47.9235 29.6645C47.9235 32.1155 46.584 33.4265 44.589 34.0535C47.268 34.823 48.4365 36.5045 48.4365 38.7275C48.4365 41.8055 46.2135 44 40.827 44H23.7555V24.506H40.428C47.4675 24.506 47.9235 28.211 47.9235 29.6645ZM40.9695 35.7635H27.6885V40.352H41.2545C43.6485 40.352 44.418 39.269 44.418 38.186C44.418 37.103 43.6485 35.7635 40.9695 35.7635ZM27.6885 32.2865H40.6845C42.9075 32.2865 43.962 31.574 43.962 30.2345C43.962 28.9805 43.05 28.097 40.9695 28.097H27.6885V32.2865ZM52.3668 44V24.506H69.2958C74.0838 24.506 77.0478 26.672 77.0478 30.5765C77.0478 33.3125 75.5943 34.994 73.0578 35.735C75.5373 36.533 76.6203 38.129 76.6203 40.1525V44H72.4023V40.067C72.4023 38.984 71.8038 37.5875 69.2103 37.5875H56.4423V44H52.3668ZM56.4423 33.968H69.6093C72.1173 33.968 72.8868 32.315 72.8868 31.0325C72.8868 29.75 72.1173 28.097 69.6093 28.097H56.4423V33.968Z" fill="#591E39"/>
</g>
<defs>
<clipPath id="clip0_292_776">
<rect width="100" height="70" fill="white"/>
</clipPath>
<clipPath id="clip1_292_776">
<rect width="100" height="69.7157" fill="white"/>
</clipPath>
</defs>
</svg>
