<svg width="100" height="70" viewBox="0 0 100 70" fill="none" xmlns="http://www.w3.org/2000/svg">
<g clip-path="url(#clip0_292_742)">
<g clip-path="url(#clip1_292_742)">
<path fill-rule="evenodd" clip-rule="evenodd" d="M25.5628 69.7157C25.1511 69.69 24.7523 69.69 24.3406 69.6514C23.5301 69.5742 22.7197 69.4198 21.9349 69.1882C20.7642 68.8409 19.632 68.3263 18.6028 67.6701C17.5736 67.014 16.6345 66.2035 15.8369 65.2772C15.1293 64.4539 15.0006 64.1966 14.4217 63.2832L1.7239 41.2839C1.22216 40.3191 1.06778 40.0875 0.707559 39.0583C0.308743 37.9004 0.0771719 36.6911 0.0128466 35.4689C-0.0514786 34.2468 0.0771719 33.0117 0.360203 31.8281C0.553179 31.0305 0.823344 30.2586 1.15784 29.5124C1.32508 29.1393 1.53092 28.792 1.7239 28.4189L14.4217 6.43252C15.0135 5.5191 15.1293 5.2618 15.8369 4.43844C16.6345 3.51216 17.5736 2.70166 18.6028 2.04554C19.632 1.38942 20.7642 0.874823 21.9349 0.527467C22.7197 0.295896 23.5173 0.141516 24.3406 0.0643252C24.7523 0.0257301 25.1511 0.0257301 25.5628 0H74.4371C75.5178 0.0514602 75.8008 0.0257301 76.8686 0.231571C78.0779 0.463142 79.2358 0.861958 80.3293 1.42802C81.4229 1.99408 82.4263 2.70166 83.314 3.55075C83.9058 4.11681 84.4461 4.73434 84.9093 5.40332C85.1409 5.73781 85.3467 6.08517 85.5654 6.43252L98.2632 28.4189C98.4562 28.7791 98.6492 29.1393 98.8293 29.5124C99.1638 30.2586 99.4339 31.0305 99.6269 31.8281C99.9099 33.0246 100.039 34.2468 99.9743 35.4689C99.9099 36.6911 99.6784 37.9133 99.2795 39.0583C98.9193 40.0875 98.7649 40.3191 98.2632 41.2839L85.5654 63.2703C84.9736 64.1837 84.8578 64.441 84.1502 65.2644C83.3526 66.1907 82.4135 67.0012 81.3843 67.6573C80.3551 68.3134 79.2229 68.828 78.0522 69.1754C77.2674 69.4069 76.4698 69.5613 75.6465 69.6385C75.2348 69.6771 74.836 69.6771 74.4243 69.7028C58.15 69.7157 41.85 69.7157 25.5628 69.7157Z" fill="#8C66FF"/>
</g>
<path d="M77.544 28.8554L75.3439 26.6552C74.7362 26.0476 73.7514 26.0476 73.1437 26.6552L72.0441 27.7548L69.2344 24.9451C69.7818 22.8733 69.2694 20.5798 67.6448 18.9552L63.2455 14.5559C57.171 8.48138 47.3214 8.48138 41.2459 14.5559L50.0455 18.9552V20.7781C50.0455 22.428 50.7008 24.0108 51.8685 25.1774L56.646 29.955C58.2706 31.5796 60.5641 32.0919 62.6359 31.5446L65.4456 34.3543L64.346 35.4539C63.7384 36.0615 63.7384 37.0464 64.346 37.654L66.5462 39.8542C67.1538 40.4618 68.1387 40.4618 68.7463 39.8542L77.546 31.0546C78.1517 30.4479 78.1517 29.463 77.544 28.8554ZM49.6683 27.3776C49.3086 27.0179 49.0033 26.6202 48.7107 26.2158L23.9091 49.3713C21.4231 51.693 21.3561 55.6121 23.7604 58.0174C26.1647 60.4226 30.0847 60.3556 32.4064 57.8686L55.5581 33.07C55.1731 32.7871 54.79 32.4993 54.4458 32.1551L49.6683 27.3776Z" fill="#2D1E59"/>
</g>
<defs>
<clipPath id="clip0_292_742">
<rect width="100" height="70" fill="white"/>
</clipPath>
<clipPath id="clip1_292_742">
<rect width="100" height="69.7157" fill="white"/>
</clipPath>
</defs>
</svg>
