<svg width="100" height="70" viewBox="0 0 100 70" fill="none" xmlns="http://www.w3.org/2000/svg">
<g clip-path="url(#clip0_292_772)">
<g clip-path="url(#clip1_292_772)">
<path fill-rule="evenodd" clip-rule="evenodd" d="M25.5628 69.7157C25.1511 69.69 24.7523 69.69 24.3406 69.6514C23.5301 69.5742 22.7197 69.4198 21.9349 69.1882C20.7642 68.8409 19.632 68.3263 18.6028 67.6701C17.5736 67.014 16.6345 66.2035 15.8369 65.2772C15.1293 64.4539 15.0006 64.1966 14.4217 63.2832L1.7239 41.2839C1.22216 40.3191 1.06778 40.0875 0.707559 39.0583C0.308743 37.9004 0.0771719 36.6911 0.0128466 35.4689C-0.0514786 34.2468 0.0771719 33.0117 0.360203 31.8281C0.553179 31.0305 0.823344 30.2586 1.15784 29.5124C1.32508 29.1393 1.53092 28.792 1.7239 28.4189L14.4217 6.43252C15.0135 5.5191 15.1293 5.2618 15.8369 4.43844C16.6345 3.51216 17.5736 2.70166 18.6028 2.04554C19.632 1.38942 20.7642 0.874823 21.9349 0.527467C22.7197 0.295896 23.5173 0.141516 24.3406 0.0643252C24.7523 0.0257301 25.1511 0.0257301 25.5628 0H74.4371C75.5178 0.0514602 75.8008 0.0257301 76.8686 0.231571C78.0779 0.463142 79.2358 0.861958 80.3293 1.42802C81.4229 1.99408 82.4263 2.70166 83.314 3.55075C83.9058 4.11681 84.4461 4.73434 84.9093 5.40332C85.1409 5.73781 85.3467 6.08517 85.5654 6.43252L98.2632 28.4189C98.4562 28.7791 98.6492 29.1393 98.8293 29.5124C99.1638 30.2586 99.4339 31.0305 99.6269 31.8281C99.9099 33.0246 100.039 34.2468 99.9743 35.4689C99.9099 36.6911 99.6784 37.9133 99.2795 39.0583C98.9193 40.0875 98.7649 40.3191 98.2632 41.2839L85.5654 63.2703C84.9736 64.1837 84.8578 64.441 84.1502 65.2644C83.3526 66.1907 82.4135 67.0012 81.3843 67.6573C80.3551 68.3134 79.2229 68.828 78.0522 69.1754C77.2674 69.4069 76.4698 69.5613 75.6465 69.6385C75.2348 69.6771 74.836 69.6771 74.4243 69.7028C58.15 69.7157 41.85 69.7157 25.5628 69.7157Z" fill="#FF66AA"/>
</g>
<path d="M43.8738 38.5007H31.6214C29.2803 38.5007 28.1098 41.3231 29.7617 42.9859L33.3608 46.3772L22.5087 57.2403C21.8304 57.9185 21.8304 59.0344 22.5087 59.7126L25.2874 62.4913C25.9656 63.1696 27.0815 63.1696 27.7597 62.4913L38.6228 51.6283L42.025 55.2383C43.6769 56.8902 46.4993 55.7197 46.4993 53.3786V41.1262C46.4993 39.6712 45.3288 38.5007 43.8738 38.5007ZM56.1262 31.4993H68.3786C70.7197 31.4993 71.8902 28.666 70.2383 27.0141L66.6283 23.6228L77.4913 12.7597C78.1696 12.0815 78.1696 10.9656 77.4913 10.2874L74.7126 7.50869C74.0344 6.83044 72.9185 6.83044 72.2403 7.50869L61.3772 18.3718L57.975 14.7617C56.3231 13.1098 53.5007 14.2803 53.5007 16.6214V28.8738C53.5007 30.3288 54.6712 31.4993 56.1262 31.4993ZM66.6283 46.3772L70.2383 42.975C71.8902 41.3231 70.7197 38.5007 68.3786 38.5007H56.1262C54.6712 38.5007 53.5007 39.6712 53.5007 41.1262V53.3786C53.5007 55.7197 56.3341 56.8902 57.9859 55.2383L61.3772 51.6392L72.2403 62.5022C72.9185 63.1805 74.0344 63.1805 74.7126 62.5022L77.4913 59.7236C78.1696 59.0453 78.1696 57.9295 77.4913 57.2512L66.6283 46.3772ZM42.0141 14.7726L38.6228 18.3718L27.7597 7.50869C27.0815 6.83044 25.9656 6.83044 25.2874 7.50869L22.5087 10.2874C21.8304 10.9656 21.8304 12.0815 22.5087 12.7597L33.3718 23.6228L29.7617 27.025C28.1098 28.6769 29.2803 31.4993 31.6214 31.4993H43.8738C45.3288 31.4993 46.4993 30.3288 46.4993 28.8738V16.6214C46.4993 14.2913 43.666 13.1207 42.0141 14.7726Z" fill="#591E39"/>
</g>
<defs>
<clipPath id="clip0_292_772">
<rect width="100" height="70" fill="white"/>
</clipPath>
<clipPath id="clip1_292_772">
<rect width="100" height="69.7157" fill="white"/>
</clipPath>
</defs>
</svg>
