<svg width="100" height="70" viewBox="0 0 100 70" fill="none" xmlns="http://www.w3.org/2000/svg">
<g clip-path="url(#clip0_292_750)">
<g clip-path="url(#clip1_292_750)">
<path fill-rule="evenodd" clip-rule="evenodd" d="M25.5628 69.7157C25.1511 69.69 24.7523 69.69 24.3406 69.6514C23.5301 69.5742 22.7197 69.4198 21.9349 69.1882C20.7642 68.8409 19.632 68.3263 18.6028 67.6701C17.5736 67.014 16.6345 66.2035 15.8369 65.2772C15.1293 64.4539 15.0006 64.1966 14.4217 63.2832L1.7239 41.2839C1.22216 40.3191 1.06778 40.0875 0.707559 39.0583C0.308743 37.9004 0.0771719 36.6911 0.0128466 35.4689C-0.0514786 34.2468 0.0771719 33.0117 0.360203 31.8281C0.553179 31.0305 0.823344 30.2586 1.15784 29.5124C1.32508 29.1393 1.53092 28.792 1.7239 28.4189L14.4217 6.43252C15.0135 5.5191 15.1293 5.2618 15.8369 4.43844C16.6345 3.51216 17.5736 2.70166 18.6028 2.04554C19.632 1.38942 20.7642 0.874823 21.9349 0.527467C22.7197 0.295896 23.5173 0.141516 24.3406 0.0643252C24.7523 0.0257301 25.1511 0.0257301 25.5628 0H74.4371C75.5178 0.0514602 75.8008 0.0257301 76.8686 0.231571C78.0779 0.463142 79.2358 0.861958 80.3293 1.42802C81.4229 1.99408 82.4263 2.70166 83.314 3.55075C83.9058 4.11681 84.4461 4.73434 84.9093 5.40332C85.1409 5.73781 85.3467 6.08517 85.5654 6.43252L98.2632 28.4189C98.4562 28.7791 98.6492 29.1393 98.8293 29.5124C99.1638 30.2586 99.4339 31.0305 99.6269 31.8281C99.9099 33.0246 100.039 34.2468 99.9743 35.4689C99.9099 36.6911 99.6784 37.9133 99.2795 39.0583C98.9193 40.0875 98.7649 40.3191 98.2632 41.2839L85.5654 63.2703C84.9736 64.1837 84.8578 64.441 84.1502 65.2644C83.3526 66.1907 82.4135 67.0012 81.3843 67.6573C80.3551 68.3134 79.2229 68.828 78.0522 69.1754C77.2674 69.4069 76.4698 69.5613 75.6465 69.6385C75.2348 69.6771 74.836 69.6771 74.4243 69.7028C58.15 69.7157 41.85 69.7157 25.5628 69.7157Z" fill="#8C66FF"/>
</g>
<path d="M24.506 44V24.506H40.523C47.5055 24.506 49.8995 27.8405 49.8995 34.253C49.8995 40.6655 47.5055 44 40.523 44H24.506ZM45.7385 34.253C45.7385 30.5195 45.1685 28.4675 40.523 28.4675H28.5815V40.01H40.523C45.1685 40.01 45.7385 37.9865 45.7385 34.253ZM53.0423 40.352H70.3703C72.7643 40.352 73.5338 39.611 73.5338 38.528C73.5338 37.217 72.3653 36.5615 69.5723 36.3335L60.1388 35.5925C55.7498 35.2505 53.1278 33.683 53.1278 30.092C53.1278 25.9595 56.6048 24.506 60.6233 24.506H76.4693V28.154H60.2528C58.3433 28.154 57.2603 28.667 57.2603 29.978C57.2603 31.061 58.0013 31.631 61.1933 31.8875L70.1708 32.6C74.7593 32.9705 77.7233 34.424 77.7233 38.357C77.7233 41.663 75.6143 44 70.1138 44H53.0423V40.352Z" fill="#2D1E59"/>
</g>
<defs>
<clipPath id="clip0_292_750">
<rect width="100" height="70" fill="white"/>
</clipPath>
<clipPath id="clip1_292_750">
<rect width="100" height="69.7157" fill="white"/>
</clipPath>
</defs>
</svg>
