<svg width="100" height="70" viewBox="0 0 100 70" fill="none" xmlns="http://www.w3.org/2000/svg">
<g clip-path="url(#clip0_292_732)">
<g clip-path="url(#clip1_292_732)">
<path fill-rule="evenodd" clip-rule="evenodd" d="M25.5628 69.7157C25.1511 69.69 24.7523 69.69 24.3406 69.6514C23.5301 69.5742 22.7197 69.4198 21.9349 69.1882C20.7642 68.8409 19.632 68.3263 18.6028 67.6701C17.5736 67.014 16.6345 66.2035 15.8369 65.2772C15.1293 64.4539 15.0006 64.1966 14.4217 63.2832L1.7239 41.2839C1.22216 40.3191 1.06778 40.0875 0.707559 39.0583C0.308743 37.9004 0.0771719 36.6911 0.0128466 35.4689C-0.0514786 34.2468 0.0771719 33.0117 0.360203 31.8281C0.553179 31.0305 0.823344 30.2586 1.15784 29.5124C1.32508 29.1393 1.53092 28.792 1.7239 28.4189L14.4217 6.43252C15.0135 5.5191 15.1293 5.2618 15.8369 4.43844C16.6345 3.51216 17.5736 2.70166 18.6028 2.04554C19.632 1.38942 20.7642 0.874823 21.9349 0.527467C22.7197 0.295896 23.5173 0.141516 24.3406 0.0643252C24.7523 0.0257301 25.1511 0.0257301 25.5628 0H74.4371C75.5178 0.0514602 75.8008 0.0257301 76.8686 0.231571C78.0779 0.463142 79.2358 0.861958 80.3293 1.42802C81.4229 1.99408 82.4263 2.70166 83.314 3.55075C83.9058 4.11681 84.4461 4.73434 84.9093 5.40332C85.1409 5.73781 85.3467 6.08517 85.5654 6.43252L98.2632 28.4189C98.4562 28.7791 98.6492 29.1393 98.8293 29.5124C99.1638 30.2586 99.4339 31.0305 99.6269 31.8281C99.9099 33.0246 100.039 34.2468 99.9743 35.4689C99.9099 36.6911 99.6784 37.9133 99.2795 39.0583C98.9193 40.0875 98.7649 40.3191 98.2632 41.2839L85.5654 63.2703C84.9736 64.1837 84.8578 64.441 84.1502 65.2644C83.3526 66.1907 82.4135 67.0012 81.3843 67.6573C80.3551 68.3134 79.2229 68.828 78.0522 69.1754C77.2674 69.4069 76.4698 69.5613 75.6465 69.6385C75.2348 69.6771 74.836 69.6771 74.4243 69.7028C58.15 69.7157 41.85 69.7157 25.5628 69.7157Z" fill="#FF6666"/>
</g>
<path d="M44.2886 58.3363L48 54.625C39.3094 53.5926 32.2882 47.041 30.5543 38.5836L25.9695 34L22 37.9658C23.6143 51.2949 34.396 61.8051 47.8482 63L44.2886 59.4404C44.2156 59.3682 44.1577 59.2822 44.1182 59.1875C44.0786 59.0927 44.0583 58.9911 44.0583 58.8884C44.0583 58.7857 44.0786 58.6841 44.1182 58.5893C44.1577 58.4945 44.2156 58.4086 44.2886 58.3363Z" fill="#591E1E"/>
<path d="M56.8204 10.9526L53.3212 14.4785C62.0149 15.6129 68.9942 22.3231 70.6047 30.9219L74.6519 35L79 30.6128C77.1292 17.4018 66.357 7.07425 53 6L56.8204 9.84108C56.893 9.91396 56.9506 10.0006 56.9899 10.0959C57.0293 10.1913 57.0495 10.2936 57.0495 10.3969C57.0495 10.5001 57.0293 10.6024 56.9899 10.6978C56.9506 10.7931 56.893 10.8798 56.8204 10.9526Z" fill="#591E1E"/>
<path d="M73.8591 40.1209L70.5276 36.7208C69.9649 40.9679 68.1281 44.9334 65.2692 48.0735C62.4102 51.2136 58.6691 53.3745 54.5589 54.2598L50 58.9097L54.0093 63C67.4884 61.2688 78.06 49.9826 79 36L74.9656 40.1209C74.8931 40.1952 74.8068 40.2542 74.7119 40.2944C74.617 40.3346 74.5152 40.3553 74.4124 40.3553C74.3095 40.3553 74.2078 40.3346 74.1128 40.2944C74.0179 40.2542 73.9317 40.1952 73.8591 40.1209Z" fill="#591E1E"/>
<path d="M26.6171 28.2165L30.4013 32C31.4682 23.2238 38.1437 16.157 46.7238 14.4943L51 10.2226L46.7754 6C33.6154 7.74781 23.265 18.4134 22 31.7181L25.5081 28.2165C25.5808 28.1435 25.6672 28.0856 25.7624 28.0461C25.8576 28.0066 25.9596 27.9862 26.0626 27.9862C26.1657 27.9862 26.2677 28.0066 26.3628 28.0461C26.458 28.0856 26.5444 28.1435 26.6171 28.2165Z" fill="#591E1E"/>
<path d="M40.4773 40.9414C40.2123 41.0834 40 40.9583 40 40.6641V28.3353C40 28.0422 40.2123 27.916 40.4773 28.0591L51.8012 34.241C52.0663 34.383 52.0663 34.6175 51.8012 34.7595L40.4773 40.9414Z" fill="#591E1E"/>
<path d="M51.5171 40.9414C51.23 41.0834 51 40.9583 51 40.6641V28.3353C51 28.0422 51.23 27.916 51.5171 28.0591L63.7846 34.241C64.0718 34.383 64.0718 34.6175 63.7846 34.7595L51.5171 40.9414Z" fill="#591E1E"/>
</g>
<defs>
<clipPath id="clip0_292_732">
<rect width="100" height="70" fill="white"/>
</clipPath>
<clipPath id="clip1_292_732">
<rect width="100" height="69.7157" fill="white"/>
</clipPath>
</defs>
</svg>
