<svg width="100" height="70" viewBox="0 0 100 70" fill="none" xmlns="http://www.w3.org/2000/svg">
<g clip-path="url(#clip0_292_724)">
<g clip-path="url(#clip1_292_724)">
<path fill-rule="evenodd" clip-rule="evenodd" d="M25.5628 69.7157C25.1511 69.69 24.7523 69.69 24.3406 69.6514C23.5301 69.5742 22.7197 69.4198 21.9349 69.1882C20.7642 68.8409 19.632 68.3263 18.6028 67.6701C17.5736 67.014 16.6345 66.2035 15.8369 65.2772C15.1293 64.4539 15.0006 64.1966 14.4217 63.2832L1.7239 41.2839C1.22216 40.3191 1.06778 40.0875 0.707559 39.0583C0.308743 37.9004 0.0771719 36.6911 0.0128466 35.4689C-0.0514786 34.2468 0.0771719 33.0117 0.360203 31.8281C0.553179 31.0305 0.823344 30.2586 1.15784 29.5124C1.32508 29.1393 1.53092 28.792 1.7239 28.4189L14.4217 6.43252C15.0135 5.5191 15.1293 5.2618 15.8369 4.43844C16.6345 3.51216 17.5736 2.70166 18.6028 2.04554C19.632 1.38942 20.7642 0.874823 21.9349 0.527467C22.7197 0.295896 23.5173 0.141516 24.3406 0.0643252C24.7523 0.0257301 25.1511 0.0257301 25.5628 0H74.4371C75.5178 0.0514602 75.8008 0.0257301 76.8686 0.231571C78.0779 0.463142 79.2358 0.861958 80.3293 1.42802C81.4229 1.99408 82.4263 2.70166 83.314 3.55075C83.9058 4.11681 84.4461 4.73434 84.9093 5.40332C85.1409 5.73781 85.3467 6.08517 85.5654 6.43252L98.2632 28.4189C98.4562 28.7791 98.6492 29.1393 98.8293 29.5124C99.1638 30.2586 99.4339 31.0305 99.6269 31.8281C99.9099 33.0246 100.039 34.2468 99.9743 35.4689C99.9099 36.6911 99.6784 37.9133 99.2795 39.0583C98.9193 40.0875 98.7649 40.3191 98.2632 41.2839L85.5654 63.2703C84.9736 64.1837 84.8578 64.441 84.1502 65.2644C83.3526 66.1907 82.4135 67.0012 81.3843 67.6573C80.3551 68.3134 79.2229 68.828 78.0522 69.1754C77.2674 69.4069 76.4698 69.5613 75.6465 69.6385C75.2348 69.6771 74.836 69.6771 74.4243 69.7028C58.15 69.7157 41.85 69.7157 25.5628 69.7157Z" fill="#B2FF66"/>
</g>
<path d="M79.396 28.5026C79.064 27.9854 78.5903 27.3674 78.0447 26.6519C77.2954 25.6684 76.4455 24.5475 75.8312 23.5286C75.1329 22.3712 75.0499 21.855 75.0455 21.6956C76.2916 20.4551 76.3448 19.3143 76.1655 18.5711C75.8401 17.2254 74.574 16.4036 73.6444 15.9706C73.3611 13.8662 71.8161 11.8505 69.8406 11.2081C68.0477 10.6211 66.3456 11.2934 65.2876 13.0067C64.0769 14.966 63.1516 17.9154 62.5607 20.1915L62.1866 19.5524C61.2103 17.8638 59.6045 16.6319 57.7215 16.1269C55.8386 15.6219 53.8324 15.8851 52.1432 16.8588L35.1219 26.694C33.4351 27.6714 32.2044 29.2785 31.6999 31.1627C31.1953 33.0469 31.458 35.0544 32.4304 36.7451L32.6938 37.2014C30.8751 36.9117 29.0187 36.9578 27.2167 37.3376C23.3874 38.1207 19.6467 41.7413 19.0912 43.7083C18.7935 44.7583 19.3003 45.3774 19.5338 45.5912C20.0872 46.1106 20.8619 46.1981 21.8391 45.8514L21.8635 45.8437C21.9296 46.2433 21.9728 46.6464 21.993 47.0509C22.0837 48.3667 22.1955 50.0048 23.6265 50.6173C24.4875 50.9861 25.4813 50.8199 26.8171 50.0336C26.8171 50.2684 26.8171 50.5087 26.8304 50.7513C26.8968 52.8446 27.1912 55.32 28.8944 55.8892C29.1084 55.9616 29.3326 55.999 29.5585 56C31.0503 56 32.3009 54.3387 33.2538 52.8135C35.9763 48.4597 37.2955 46.7829 37.8621 46.1549L38.4011 47.0886C39.3771 48.7768 40.9827 50.0085 42.8654 50.5131C44.748 51.0177 46.7538 50.754 48.4423 49.7799L65.4636 39.9448C67.1508 38.9678 68.3819 37.3607 68.8865 35.4763C69.3911 33.592 69.128 31.5842 68.1551 29.8937L66.8956 27.7107C68.1241 27.5324 70.571 27.6409 74.3029 29.8295C75.5203 30.5405 76.4178 31.019 77.0575 31.2937C77.3297 31.41 77.8576 31.6359 78.4132 31.6359C78.6391 31.6424 78.8637 31.599 79.0709 31.5086C79.2781 31.4182 79.4628 31.2832 79.6118 31.1131C80.4651 30.1496 79.6881 28.9534 79.396 28.5026ZM47.06 47.3821C46.2484 47.8522 45.3115 48.0603 44.3773 47.9779L49.2358 22.6148C49.2898 22.3368 49.2562 22.0489 49.1395 21.7908L53.5266 19.2556C53.9744 18.9953 54.4631 18.8129 54.9719 18.7162L49.7704 45.8193L47.06 47.3821ZM37.7072 28.3907L35.9862 37.3731L34.8297 35.3562C34.5286 34.8343 34.3332 34.2581 34.2546 33.6606C34.176 33.0631 34.2157 32.4559 34.3716 31.8738C34.5276 31.2916 34.7965 30.7459 35.1632 30.2679C35.5298 29.7898 35.987 29.3886 36.5086 29.0874L37.7072 28.3907ZM61.7428 38.8971L63.798 27.8835L65.7568 31.2782C66.3635 32.3326 66.5275 33.5848 66.2127 34.76C65.898 35.9352 65.1302 36.9375 64.078 37.5469L61.7428 38.8971ZM35.3931 44.786C34.324 46.0873 32.8144 48.2947 30.9075 51.3438C30.5884 51.8752 30.2241 52.3781 29.8185 52.8468C29.5717 51.7392 29.4987 49.4654 29.678 47.3599C29.7019 47.0876 29.6447 46.8142 29.5135 46.5744C29.3823 46.3346 29.1831 46.139 28.9409 46.0124C28.6987 45.8859 28.4245 45.834 28.1529 45.8633C27.8813 45.8926 27.6244 46.0018 27.4148 46.1771C26.0092 47.3466 25.2378 47.7786 24.856 47.9381C24.8018 47.6202 24.7708 47.1683 24.7454 46.8593C24.6579 45.5878 24.5594 44.1458 23.4173 43.3926C23.2136 43.2578 22.9893 43.1572 22.7533 43.0947C23.8788 41.9251 25.7978 40.4499 27.77 40.0423C31.8648 39.205 34.4689 40.5584 34.594 40.626C34.6305 40.6459 34.6682 40.6636 34.7047 40.6802L36.4323 43.6706C36.0497 44.007 35.7016 44.3806 35.3931 44.786ZM65.4459 25.201L64.5837 23.7069C64.846 22.4022 65.9715 17.1579 67.636 14.4632C68.1175 13.6879 68.5834 13.7112 68.9763 13.8396C69.9546 14.1608 71.0148 15.5353 70.913 16.83C70.8869 17.1461 70.9701 17.4616 71.1486 17.7237C71.3271 17.9858 71.5901 18.1786 71.8936 18.2699C72.5576 18.4703 73.3699 18.9643 73.4673 19.2257C73.4562 19.2678 73.3921 19.4561 73.0479 19.7872C71.9943 20.8018 72.0175 22.3479 73.1187 24.3814C73.6186 25.2716 74.1773 26.1274 74.7909 26.9432C70.0022 24.3725 66.899 24.7347 65.4459 25.201Z" fill="#3C591E"/>
</g>
<defs>
<clipPath id="clip0_292_724">
<rect width="100" height="70" fill="white"/>
</clipPath>
<clipPath id="clip1_292_724">
<rect width="100" height="69.7157" fill="white"/>
</clipPath>
</defs>
</svg>
