<svg width="100" height="70" viewBox="0 0 100 70" fill="none" xmlns="http://www.w3.org/2000/svg">
<g clip-path="url(#clip0_292_739)">
<g clip-path="url(#clip1_292_739)">
<path fill-rule="evenodd" clip-rule="evenodd" d="M25.5628 69.7157C25.1511 69.69 24.7523 69.69 24.3406 69.6514C23.5301 69.5742 22.7197 69.4198 21.9349 69.1882C20.7642 68.8409 19.632 68.3263 18.6028 67.6701C17.5736 67.014 16.6345 66.2035 15.8369 65.2772C15.1293 64.4539 15.0006 64.1966 14.4217 63.2832L1.7239 41.2839C1.22216 40.3191 1.06778 40.0875 0.707559 39.0583C0.308743 37.9004 0.0771719 36.6911 0.0128466 35.4689C-0.0514786 34.2468 0.0771719 33.0117 0.360203 31.8281C0.553179 31.0305 0.823344 30.2586 1.15784 29.5124C1.32508 29.1393 1.53092 28.792 1.7239 28.4189L14.4217 6.43252C15.0135 5.5191 15.1293 5.2618 15.8369 4.43844C16.6345 3.51216 17.5736 2.70166 18.6028 2.04554C19.632 1.38942 20.7642 0.874823 21.9349 0.527467C22.7197 0.295896 23.5173 0.141516 24.3406 0.0643252C24.7523 0.0257301 25.1511 0.0257301 25.5628 0H74.4371C75.5178 0.0514602 75.8008 0.0257301 76.8686 0.231571C78.0779 0.463142 79.2358 0.861958 80.3293 1.42802C81.4229 1.99408 82.4263 2.70166 83.314 3.55075C83.9058 4.11681 84.4461 4.73434 84.9093 5.40332C85.1409 5.73781 85.3467 6.08517 85.5654 6.43252L98.2632 28.4189C98.4562 28.7791 98.6492 29.1393 98.8293 29.5124C99.1638 30.2586 99.4339 31.0305 99.6269 31.8281C99.9099 33.0246 100.039 34.2468 99.9743 35.4689C99.9099 36.6911 99.6784 37.9133 99.2795 39.0583C98.9193 40.0875 98.7649 40.3191 98.2632 41.2839L85.5654 63.2703C84.9736 64.1837 84.8578 64.441 84.1502 65.2644C83.3526 66.1907 82.4135 67.0012 81.3843 67.6573C80.3551 68.3134 79.2229 68.828 78.0522 69.1754C77.2674 69.4069 76.4698 69.5613 75.6465 69.6385C75.2348 69.6771 74.836 69.6771 74.4243 69.7028C58.15 69.7157 41.85 69.7157 25.5628 69.7157Z" fill="#FF6666"/>
</g>
<path d="M23 51C23 49.9391 23.471 48.9217 24.3093 48.1716C25.1476 47.4214 26.2846 47 27.4702 47H72.5298C73.7154 47 74.8524 47.4214 75.6907 48.1716C76.529 48.9217 77 49.9391 77 51C77 52.0609 76.529 53.0783 75.6907 53.8284C74.8524 54.5786 73.7154 55 72.5298 55H27.4702C26.2846 55 25.1476 54.5786 24.3093 53.8284C23.471 53.0783 23 52.0609 23 51Z" fill="#591E1E"/>
<path d="M35.5771 39H27.4229C26.2499 39 25.1249 38.5259 24.2955 37.682C23.466 36.8381 23 35.6935 23 34.5C23 33.3065 23.466 32.1619 24.2955 31.318C25.1249 30.4741 26.2499 30 27.4229 30H35.5771C36.7501 30 37.8751 30.4741 38.7045 31.318C39.534 32.1619 40 33.3065 40 34.5C40 35.6935 39.534 36.8381 38.7045 37.682C37.8751 38.5259 36.7501 39 35.5771 39Z" fill="#591E1E"/>
<path d="M72.5766 39H64.4234C63.2502 39 62.1251 38.5259 61.2956 37.682C60.466 36.8381 60 35.6935 60 34.5C60 33.3065 60.466 32.1619 61.2956 31.318C62.1251 30.4741 63.2502 30 64.4234 30H72.5766C73.7498 30 74.8749 30.4741 75.7044 31.318C76.534 32.1619 77 33.3065 77 34.5C77 35.6935 76.534 36.8381 75.7044 37.682C74.8749 38.5259 73.7498 39 72.5766 39Z" fill="#591E1E"/>
<path d="M54.3125 39H45.6875C44.4443 39 43.252 38.5259 42.3729 37.682C41.4939 36.8381 41 35.6935 41 34.5C41 33.3065 41.4939 32.1619 42.3729 31.318C43.252 30.4741 44.4443 30 45.6875 30H54.3125C55.5557 30 56.748 30.4741 57.6271 31.318C58.5061 32.1619 59 33.3065 59 34.5C59 35.6935 58.5061 36.8381 57.6271 37.682C56.748 38.5259 55.5557 39 54.3125 39Z" fill="#591E1E"/>
<path d="M27.5 23C29.9853 23 32 20.9853 32 18.5C32 16.0147 29.9853 14 27.5 14C25.0147 14 23 16.0147 23 18.5C23 20.9853 25.0147 23 27.5 23Z" fill="#591E1E"/>
<path d="M49.5 23C51.9853 23 54 20.9853 54 18.5C54 16.0147 51.9853 14 49.5 14C47.0147 14 45 16.0147 45 18.5C45 20.9853 47.0147 23 49.5 23Z" fill="#591E1E"/>
<path d="M72.5 23C74.9853 23 77 20.9853 77 18.5C77 16.0147 74.9853 14 72.5 14C70.0147 14 68 16.0147 68 18.5C68 20.9853 70.0147 23 72.5 23Z" fill="#591E1E"/>
</g>
<defs>
<clipPath id="clip0_292_739">
<rect width="100" height="70" fill="white"/>
</clipPath>
<clipPath id="clip1_292_739">
<rect width="100" height="69.7157" fill="white"/>
</clipPath>
</defs>
</svg>
