<svg width="100" height="70" viewBox="0 0 100 70" fill="none" xmlns="http://www.w3.org/2000/svg">
<g clip-path="url(#clip0_292_735)">
<g clip-path="url(#clip1_292_735)">
<path fill-rule="evenodd" clip-rule="evenodd" d="M25.5628 69.7157C25.1511 69.69 24.7523 69.69 24.3406 69.6514C23.5301 69.5742 22.7197 69.4198 21.9349 69.1882C20.7642 68.8409 19.632 68.3263 18.6028 67.6701C17.5736 67.014 16.6345 66.2035 15.8369 65.2772C15.1293 64.4539 15.0006 64.1966 14.4217 63.2832L1.7239 41.2839C1.22216 40.3191 1.06778 40.0875 0.707559 39.0583C0.308743 37.9004 0.0771719 36.6911 0.0128466 35.4689C-0.0514786 34.2468 0.0771719 33.0117 0.360203 31.8281C0.553179 31.0305 0.823344 30.2586 1.15784 29.5124C1.32508 29.1393 1.53092 28.792 1.7239 28.4189L14.4217 6.43252C15.0135 5.5191 15.1293 5.2618 15.8369 4.43844C16.6345 3.51216 17.5736 2.70166 18.6028 2.04554C19.632 1.38942 20.7642 0.874823 21.9349 0.527467C22.7197 0.295896 23.5173 0.141516 24.3406 0.0643252C24.7523 0.0257301 25.1511 0.0257301 25.5628 0H74.4371C75.5178 0.0514602 75.8008 0.0257301 76.8686 0.231571C78.0779 0.463142 79.2358 0.861958 80.3293 1.42802C81.4229 1.99408 82.4263 2.70166 83.314 3.55075C83.9058 4.11681 84.4461 4.73434 84.9093 5.40332C85.1409 5.73781 85.3467 6.08517 85.5654 6.43252L98.2632 28.4189C98.4562 28.7791 98.6492 29.1393 98.8293 29.5124C99.1638 30.2586 99.4339 31.0305 99.6269 31.8281C99.9099 33.0246 100.039 34.2468 99.9743 35.4689C99.9099 36.6911 99.6784 37.9133 99.2795 39.0583C98.9193 40.0875 98.7649 40.3191 98.2632 41.2839L85.5654 63.2703C84.9736 64.1837 84.8578 64.441 84.1502 65.2644C83.3526 66.1907 82.4135 67.0012 81.3843 67.6573C80.3551 68.3134 79.2229 68.828 78.0522 69.1754C77.2674 69.4069 76.4698 69.5613 75.6465 69.6385C75.2348 69.6771 74.836 69.6771 74.4243 69.7028C58.15 69.7157 41.85 69.7157 25.5628 69.7157Z" fill="#FF6666"/>
</g>
<path d="M42.8941 37.546C43.7204 37.5333 44.5087 37.2082 45.0894 36.6405C45.6702 36.0728 45.9971 35.3077 46 34.5098C46.0028 33.7118 45.6814 32.9446 45.1048 32.373C44.5281 31.8014 43.7422 31.471 42.916 31.4528L42.944 24L32.3346 29.0755L21.8322 29.0391C21.4641 29.0374 21.0992 29.1058 20.7585 29.2404C20.4178 29.375 20.108 29.5732 19.8467 29.8236C19.5855 30.074 19.3779 30.3717 19.236 30.6997C19.094 31.0277 19.0205 31.3794 19.0195 31.7349L19 37.0983C18.9983 37.4537 19.0691 37.806 19.2086 38.1349C19.348 38.4639 19.5533 38.7631 19.8126 39.0153C20.072 39.2676 20.3803 39.468 20.7199 39.605C21.0596 39.7421 21.4239 39.8131 21.7921 39.814L32.2944 39.8505L42.8661 45L42.8941 37.546Z" fill="#591E1E"/>
<path d="M72.2434 54.661L46.7505 44.1178C46.6008 44.0471 46.4383 44.0073 46.2726 44.0009C46.107 43.9945 45.9418 44.0216 45.7871 44.0805C45.6323 44.1394 45.4911 44.2288 45.3722 44.3435C45.2532 44.4582 45.1589 44.5957 45.0949 44.7477C45.0309 44.8997 44.9987 45.063 45 45.2277C45.0014 45.3924 45.0364 45.5552 45.1029 45.7061C45.1694 45.857 45.266 45.9929 45.3868 46.1056C45.5077 46.2183 45.6503 46.3055 45.8061 46.3618L71.3014 56.905C71.4503 56.9676 71.6102 56.9999 71.7718 57C72.0555 57.0007 72.3307 56.9036 72.5504 56.7251C72.77 56.5466 72.9205 56.2978 72.9762 56.0213C73.0319 55.7448 72.9892 55.4576 72.8556 55.2089C72.722 54.9601 72.5056 54.7652 72.2434 54.6573V54.661Z" fill="#591E1E"/>
<path d="M46.2406 25C46.4182 24.9996 46.5938 24.9622 46.7554 24.8905L68.2784 15.2978C68.5767 15.1647 68.8085 14.9217 68.9227 14.6224C69.0369 14.3231 69.0241 13.992 68.8873 13.7018C68.7504 13.4116 68.5006 13.1862 68.1929 13.0752C67.8851 12.9641 67.5446 12.9765 67.2462 13.1096L45.7245 22.7011C45.4671 22.8152 45.2576 23.0116 45.1309 23.2576C45.0043 23.5036 44.9681 23.7843 45.0285 24.0531C45.0888 24.3219 45.242 24.5625 45.4626 24.7348C45.6831 24.907 45.9577 25.0007 46.2406 25Z" fill="#591E1E"/>
</g>
<defs>
<clipPath id="clip0_292_735">
<rect width="100" height="70" fill="white"/>
</clipPath>
<clipPath id="clip1_292_735">
<rect width="100" height="69.7157" fill="white"/>
</clipPath>
</defs>
</svg>
