<svg width="100" height="70" viewBox="0 0 100 70" fill="none" xmlns="http://www.w3.org/2000/svg">
<g clip-path="url(#clip0_292_783)">
<g clip-path="url(#clip1_292_783)">
<path fill-rule="evenodd" clip-rule="evenodd" d="M25.5628 69.7157C25.1511 69.69 24.7523 69.69 24.3406 69.6514C23.5301 69.5742 22.7197 69.4198 21.9349 69.1882C20.7642 68.8409 19.632 68.3263 18.6028 67.6701C17.5736 67.014 16.6345 66.2035 15.8369 65.2772C15.1293 64.4539 15.0006 64.1966 14.4217 63.2832L1.7239 41.2839C1.22216 40.3191 1.06778 40.0875 0.707559 39.0583C0.308743 37.9004 0.0771719 36.6911 0.0128466 35.4689C-0.0514786 34.2468 0.0771719 33.0117 0.360203 31.8281C0.553179 31.0305 0.823344 30.2586 1.15784 29.5124C1.32508 29.1393 1.53092 28.792 1.7239 28.4189L14.4217 6.43252C15.0135 5.5191 15.1293 5.2618 15.8369 4.43844C16.6345 3.51216 17.5736 2.70166 18.6028 2.04554C19.632 1.38942 20.7642 0.874823 21.9349 0.527467C22.7197 0.295896 23.5173 0.141516 24.3406 0.0643252C24.7523 0.0257301 25.1511 0.0257301 25.5628 0H74.4371C75.5178 0.0514602 75.8008 0.0257301 76.8686 0.231571C78.0779 0.463142 79.2358 0.861958 80.3293 1.42802C81.4229 1.99408 82.4263 2.70166 83.314 3.55075C83.9058 4.11681 84.4461 4.73434 84.9093 5.40332C85.1409 5.73781 85.3467 6.08517 85.5654 6.43252L98.2632 28.4189C98.4562 28.7791 98.6492 29.1393 98.8293 29.5124C99.1638 30.2586 99.4339 31.0305 99.6269 31.8281C99.9099 33.0246 100.039 34.2468 99.9743 35.4689C99.9099 36.6911 99.6784 37.9133 99.2795 39.0583C98.9193 40.0875 98.7649 40.3191 98.2632 41.2839L85.5654 63.2703C84.9736 64.1837 84.8578 64.441 84.1502 65.2644C83.3526 66.1907 82.4135 67.0012 81.3843 67.6573C80.3551 68.3134 79.2229 68.828 78.0522 69.1754C77.2674 69.4069 76.4698 69.5613 75.6465 69.6385C75.2348 69.6771 74.836 69.6771 74.4243 69.7028C58.15 69.7157 41.85 69.7157 25.5628 69.7157Z" fill="#FF66AA"/>
</g>
<path d="M47.8173 28.496H34.8498C30.2043 28.496 28.4658 29.0945 28.4658 33.113V33.6545H47.1048V37.274H28.4658V44H24.3903V33.113C24.3903 26.444 27.8673 24.506 34.8498 24.506H47.8173V28.496ZM51.504 44V24.506H68.433C73.221 24.506 76.185 26.672 76.185 30.5765C76.185 33.3125 74.7315 34.994 72.195 35.735C74.6745 36.533 75.7575 38.129 75.7575 40.1525V44H71.5395V40.067C71.5395 38.984 70.941 37.5875 68.3475 37.5875H55.5795V44H51.504ZM55.5795 33.968H68.7465C71.2545 33.968 72.024 32.315 72.024 31.0325C72.024 29.75 71.2545 28.097 68.7465 28.097H55.5795V33.968Z" fill="#591E39"/>
</g>
<defs>
<clipPath id="clip0_292_783">
<rect width="100" height="70" fill="white"/>
</clipPath>
<clipPath id="clip1_292_783">
<rect width="100" height="69.7157" fill="white"/>
</clipPath>
</defs>
</svg>
