<svg width="100" height="70" viewBox="0 15 100 70" fill="none" xmlns="http://www.w3.org/2000/svg">
<g clip-path="url(#clip0_18775_1683)">
<g clip-path="url(#clip1_18775_1683)">
<path fill-rule="evenodd" clip-rule="evenodd" d="M25.5628 84.7157C25.1511 84.69 24.7523 84.69 24.3406 84.6514C23.5301 84.5742 22.7197 84.4198 21.9349 84.1882C20.7642 83.8409 19.632 83.3263 18.6028 82.6701C17.5736 82.014 16.6345 81.2035 15.8369 80.2772C15.1293 79.4539 15.0006 79.1966 14.4217 78.2832L1.7239 56.2839C1.22216 55.3191 1.06778 55.0875 0.707559 54.0583C0.308743 52.9004 0.0771719 51.6911 0.0128466 50.4689C-0.0514786 49.2468 0.0771719 48.0117 0.360203 46.8281C0.553179 46.0305 0.823344 45.2586 1.15784 44.5124C1.32508 44.1393 1.53092 43.792 1.7239 43.4189L14.4217 21.4325C15.0135 20.5191 15.1293 20.2618 15.8369 19.4384C16.6345 18.5122 17.5736 17.7017 18.6028 17.0455C19.632 16.3894 20.7642 15.8748 21.9349 15.5275C22.7197 15.2959 23.5173 15.1415 24.3406 15.0643C24.7523 15.0257 25.1511 15.0257 25.5628 15H74.4371C75.5178 15.0515 75.8008 15.0257 76.8686 15.2316C78.0779 15.4631 79.2358 15.862 80.3293 16.428C81.4229 16.9941 82.4263 17.7017 83.314 18.5508C83.9058 19.1168 84.4461 19.7343 84.9093 20.4033C85.1409 20.7378 85.3467 21.0852 85.5654 21.4325L98.2632 43.4189C98.4562 43.7791 98.6492 44.1393 98.8293 44.5124C99.1638 45.2586 99.4339 46.0305 99.6269 46.8281C99.9099 48.0246 100.039 49.2468 99.9743 50.4689C99.9099 51.6911 99.6784 52.9133 99.2795 54.0583C98.9193 55.0875 98.7649 55.3191 98.2632 56.2839L85.5654 78.2703C84.9736 79.1837 84.8578 79.441 84.1502 80.2644C83.3526 81.1907 82.4135 82.0012 81.3843 82.6573C80.3551 83.3134 79.2229 83.828 78.0522 84.1754C77.2674 84.4069 76.4698 84.5613 75.6465 84.6385C75.2348 84.6771 74.836 84.6771 74.4243 84.7028C58.15 84.7157 41.85 84.7157 25.5628 84.7157Z" fill="#FF66AB"/>
</g>
<path d="M38.2788 65.2701L41.6818 65.2701C42.2844 65.2701 42.7899 65.4743 43.1983 65.8826C43.6066 66.291 43.8101 66.7958 43.8087 67.397C43.8073 67.9982 43.6031 68.5037 43.1961 68.9135C42.7892 69.3232 42.2844 69.5267 41.6818 69.5239L33.1742 69.5239C32.5716 69.5239 32.0668 69.3197 31.6599 68.9113C31.253 68.503 31.0488 67.9982 31.0474 67.397L31.0474 58.8894C31.0474 58.2868 31.2515 57.782 31.6599 57.3751C32.0683 56.9681 32.5731 56.764 33.1743 56.7625C33.7755 56.7611 34.2809 56.9653 34.6907 57.3751C35.1005 57.7849 35.304 58.2896 35.3011 58.8894L35.3011 62.2925L44.4057 53.1879C44.7956 52.798 45.2919 52.603 45.8945 52.603C46.4971 52.603 46.9934 52.798 47.3833 53.1879C47.7732 53.5779 47.9682 54.0741 47.9682 54.6767C47.9682 55.2794 47.7732 55.7756 47.3833 56.1656L38.2788 65.2701Z" fill="#6B2E49"/>
<path d="M62.1003 65.2701L52.9958 56.1656C52.6059 55.7756 52.4109 55.2794 52.4109 54.6767C52.4109 54.0741 52.6059 53.5779 52.9958 53.1879C53.3857 52.798 53.882 52.603 54.4846 52.603C55.0872 52.603 55.5835 52.798 55.9734 53.1879L65.078 62.2925V58.8894C65.078 58.2868 65.2821 57.782 65.6905 57.3751C66.0989 56.9681 66.6036 56.764 67.2048 56.7625C67.806 56.7611 68.3115 56.9653 68.7213 57.3751C69.1311 57.7849 69.3346 58.2896 69.3317 58.8894V67.397C69.3317 67.9996 69.1276 68.5051 68.7192 68.9135C68.3108 69.3218 67.806 69.5253 67.2048 69.5239H58.6973C58.0947 69.5239 57.5899 69.3197 57.1829 68.9113C56.776 68.503 56.5718 67.9982 56.5704 67.397C56.569 66.7958 56.7732 66.291 57.1829 65.8826C57.5927 65.4743 58.0975 65.2701 58.6973 65.2701H62.1003Z" fill="#6B2E49"/>
<path d="M35.3011 38.4712V41.8742C35.3011 42.4768 35.097 42.9823 34.6886 43.3907C34.2802 43.799 33.7755 44.0025 33.1743 44.0011C32.5731 43.9997 32.0683 43.7955 31.6599 43.3885C31.2515 42.9816 31.0474 42.4768 31.0474 41.8742V33.3666C31.0474 32.764 31.2515 32.2592 31.6599 31.8523C32.0683 31.4453 32.5731 31.2412 33.1743 31.2397H41.6818C42.2844 31.2397 42.7899 31.4439 43.1983 31.8523C43.6066 32.2607 43.8101 32.7654 43.8087 33.3666C43.8073 33.9678 43.6031 34.4733 43.1961 34.8831C42.7892 35.2929 42.2844 35.4964 41.6818 35.4935H38.2788L47.3833 44.5981C47.7732 44.988 47.9682 45.4843 47.9682 46.0869C47.9682 46.6895 47.7732 47.1858 47.3833 47.5757C46.9934 47.9656 46.4971 48.1606 45.8945 48.1606C45.2919 48.1606 44.7956 47.9656 44.4057 47.5757L35.3011 38.4712Z" fill="#6B2E49"/>
<path d="M65.0777 38.4712L55.9732 47.5757C55.5833 47.9656 55.087 48.1606 54.4844 48.1606C53.8817 48.1606 53.3855 47.9656 52.9955 47.5757C52.6056 47.1858 52.4106 46.6895 52.4106 46.0869C52.4106 45.4843 52.6056 44.988 52.9955 44.5981L62.1001 35.4935H58.697C58.0944 35.4935 57.5896 35.29 57.1827 34.8831C56.7758 34.4762 56.5716 33.9707 56.5702 33.3666C56.5687 32.7626 56.7729 32.2578 57.1827 31.8523C57.5925 31.4468 58.0973 31.2426 58.697 31.2397L67.2046 31.2397C67.8072 31.2397 68.3127 31.4439 68.7211 31.8523C69.1294 32.2607 69.3329 32.7654 69.3315 33.3666V41.8742C69.3315 42.4768 69.1273 42.9823 68.7189 43.3907C68.3106 43.799 67.8058 44.0025 67.2046 44.0011C66.6034 43.9997 66.0986 43.7955 65.6903 43.3885C65.2819 42.9816 65.0777 42.4768 65.0777 41.8742V38.4712Z" fill="#6B2E49"/>
</g>
<defs>
<clipPath id="clip0_18775_1683">
<rect width="100" height="100" fill="white"/>
</clipPath>
<clipPath id="clip1_18775_1683">
<rect width="100" height="100" fill="white"/>
</clipPath>
</defs>
</svg>
