<svg width="100" height="70" viewBox="0 15 100 70" fill="none" xmlns="http://www.w3.org/2000/svg">
<g clip-path="url(#clip0_18775_1668)">
<g clip-path="url(#clip1_18775_1668)">
<path fill-rule="evenodd" clip-rule="evenodd" d="M25.5628 84.7157C25.1511 84.69 24.7523 84.69 24.3406 84.6514C23.5301 84.5742 22.7197 84.4198 21.9349 84.1882C20.7642 83.8409 19.632 83.3263 18.6028 82.6701C17.5736 82.014 16.6345 81.2035 15.8369 80.2772C15.1293 79.4539 15.0006 79.1966 14.4217 78.2832L1.7239 56.2839C1.22216 55.3191 1.06778 55.0875 0.707559 54.0583C0.308743 52.9004 0.0771719 51.6911 0.0128466 50.4689C-0.0514786 49.2468 0.0771719 48.0117 0.360203 46.8281C0.553179 46.0305 0.823344 45.2586 1.15784 44.5124C1.32508 44.1393 1.53092 43.792 1.7239 43.4189L14.4217 21.4325C15.0135 20.5191 15.1293 20.2618 15.8369 19.4384C16.6345 18.5122 17.5736 17.7017 18.6028 17.0455C19.632 16.3894 20.7642 15.8748 21.9349 15.5275C22.7197 15.2959 23.5173 15.1415 24.3406 15.0643C24.7523 15.0257 25.1511 15.0257 25.5628 15H74.4371C75.5178 15.0515 75.8008 15.0257 76.8686 15.2316C78.0779 15.4631 79.2358 15.862 80.3293 16.428C81.4229 16.9941 82.4263 17.7017 83.314 18.5508C83.9058 19.1168 84.4461 19.7343 84.9093 20.4033C85.1409 20.7378 85.3467 21.0852 85.5654 21.4325L98.2632 43.4189C98.4562 43.7791 98.6492 44.1393 98.8293 44.5124C99.1638 45.2586 99.4339 46.0305 99.6269 46.8281C99.9099 48.0246 100.039 49.2468 99.9743 50.4689C99.9099 51.6911 99.6784 52.9133 99.2795 54.0583C98.9193 55.0875 98.7649 55.3191 98.2632 56.2839L85.5654 78.2703C84.9736 79.1837 84.8578 79.441 84.1502 80.2644C83.3526 81.1907 82.4135 82.0012 81.3843 82.6573C80.3551 83.3134 79.2229 83.828 78.0522 84.1754C77.2674 84.4069 76.4698 84.5613 75.6465 84.6385C75.2348 84.6771 74.836 84.6771 74.4243 84.7028C58.15 84.7157 41.85 84.7157 25.5628 84.7157Z" fill="#8C66FF"/>
</g>
<path d="M69.15 30.9132C66.6557 28.3942 63.6883 26.3929 60.4183 25.0243C57.1482 23.6556 53.64 22.9466 50.0951 22.9378C46.5501 22.9291 43.0384 23.6209 39.7617 24.9734C36.4849 26.326 33.5077 28.3127 31.0011 30.8193C28.4944 33.3259 26.5078 36.3032 25.1552 39.5799C23.8026 42.8567 23.1109 46.3684 23.1196 49.9133C23.1283 53.4582 23.8374 56.9665 25.206 60.2365C26.5747 63.5066 28.576 66.474 31.095 68.9683C33.5892 71.4872 36.5566 73.4885 39.8267 74.8572C43.0967 76.2258 46.605 76.9349 50.1499 76.9436C53.6948 76.9523 57.2065 76.2606 60.4833 74.908C63.7601 73.5555 66.7373 71.5688 69.2439 69.0621C71.7506 66.5555 73.7372 63.5783 75.0898 60.3015C76.4423 57.0248 77.1341 53.5131 77.1254 49.9682C77.1167 46.4232 76.4076 42.915 75.0389 39.6449C73.6703 36.3749 71.669 33.4075 69.15 30.9132ZM53.9471 70.737C51.8589 71.1203 50.1225 69.3627 50.1225 67.2396V59.5512C47.5736 59.5512 45.1292 58.5387 43.3269 56.7364C41.5245 54.934 40.512 52.4896 40.512 49.9407C40.512 47.3919 41.5245 44.9474 43.3269 43.1451C45.1292 41.3428 47.5736 40.3303 50.1225 40.3303V32.6419C50.1225 30.5188 51.8589 28.7612 53.9471 29.1444C63.7864 30.9503 71.2655 39.5929 71.2655 49.9407C71.2655 60.2885 63.7864 68.9312 53.9471 70.737Z" fill="#3D2E6B"/>
<path d="M59.7332 49.9408C59.7332 47.3919 58.7206 44.9475 56.9183 43.1452C55.116 41.3429 52.6715 40.3303 50.1227 40.3303V59.5513C52.6715 59.5513 55.116 58.5387 56.9183 56.7364C58.7206 54.9341 59.7332 52.4896 59.7332 49.9408Z" fill="#3D2E6B"/>
</g>
<defs>
<clipPath id="clip0_18775_1668">
<rect width="100" height="100" fill="white"/>
</clipPath>
<clipPath id="clip1_18775_1668">
<rect width="100" height="100" fill="white"/>
</clipPath>
</defs>
</svg>
