<svg width="100" height="70" viewBox="0 15 100 70" fill="none" xmlns="http://www.w3.org/2000/svg">
<g clip-path="url(#clip0_18775_1692)">
<g clip-path="url(#clip1_18775_1692)">
<path fill-rule="evenodd" clip-rule="evenodd" d="M25.5628 84.7157C25.1511 84.69 24.7523 84.69 24.3406 84.6514C23.5301 84.5742 22.7197 84.4198 21.9349 84.1882C20.7642 83.8409 19.632 83.3263 18.6028 82.6701C17.5736 82.014 16.6345 81.2035 15.8369 80.2772C15.1293 79.4539 15.0006 79.1966 14.4217 78.2832L1.7239 56.2839C1.22216 55.3191 1.06778 55.0875 0.707559 54.0583C0.308743 52.9004 0.0771719 51.6911 0.0128466 50.4689C-0.0514786 49.2468 0.0771719 48.0117 0.360203 46.8281C0.553179 46.0305 0.823344 45.2586 1.15784 44.5124C1.32508 44.1393 1.53092 43.792 1.7239 43.4189L14.4217 21.4325C15.0135 20.5191 15.1293 20.2618 15.8369 19.4384C16.6345 18.5122 17.5736 17.7017 18.6028 17.0455C19.632 16.3894 20.7642 15.8748 21.9349 15.5275C22.7197 15.2959 23.5173 15.1415 24.3406 15.0643C24.7523 15.0257 25.1511 15.0257 25.5628 15H74.4371C75.5178 15.0515 75.8008 15.0257 76.8686 15.2316C78.0779 15.4631 79.2358 15.862 80.3293 16.428C81.4229 16.9941 82.4263 17.7017 83.314 18.5508C83.9058 19.1168 84.4461 19.7343 84.9093 20.4033C85.1409 20.7378 85.3467 21.0852 85.5654 21.4325L98.2632 43.4189C98.4562 43.7791 98.6492 44.1393 98.8293 44.5124C99.1638 45.2586 99.4339 46.0305 99.6269 46.8281C99.9099 48.0246 100.039 49.2468 99.9743 50.4689C99.9099 51.6911 99.6784 52.9133 99.2795 54.0583C98.9193 55.0875 98.7649 55.3191 98.2632 56.2839L85.5654 78.2703C84.9736 79.1837 84.8578 79.441 84.1502 80.2644C83.3526 81.1907 82.4135 82.0012 81.3843 82.6573C80.3551 83.3134 79.2229 83.828 78.0522 84.1754C77.2674 84.4069 76.4698 84.5613 75.6465 84.6385C75.2348 84.6771 74.836 84.6771 74.4243 84.7028C58.15 84.7157 41.85 84.7157 25.5628 84.7157Z" fill="#FF66AB"/>
</g>
<path d="M35.9387 48.3602L33.9645 45.5883C33.615 45.0975 33.488 44.5673 33.5837 43.9978C33.6795 43.4283 33.9726 42.9697 34.4631 42.6221C34.9536 42.2745 35.4832 42.1479 36.0519 42.2425C36.6206 42.3371 37.0798 42.6298 37.4294 43.1206L42.3648 50.0503C42.7144 50.5412 42.8409 51.0708 42.7443 51.6391C42.6478 52.2075 42.3551 52.6666 41.8662 53.0166L34.9366 57.952C34.4457 58.3016 33.9155 58.4285 33.346 58.3328C32.7765 58.2371 32.3179 57.9439 31.9703 57.4534C31.6227 56.9629 31.4957 56.4327 31.5895 55.8628C31.6832 55.293 31.9764 54.8344 32.4689 54.4871L35.2407 52.513L22.5431 50.3788C21.9993 50.2874 21.5526 49.9963 21.203 49.5054C20.8534 49.0146 20.7243 48.4972 20.8157 47.9534C20.9071 47.4096 21.1982 46.9629 21.6891 46.6133C22.1799 46.2637 22.6972 46.1346 23.2411 46.226L35.9387 48.3602Z" fill="#6B2E49"/>
<path d="M52.7628 37.9492L55.6154 25.3934C55.7376 24.8557 56.0536 24.4262 56.5636 24.1051C57.0735 23.784 57.5973 23.6845 58.1351 23.8067C58.6728 23.9289 59.1022 24.2449 59.4234 24.7548C59.7445 25.2648 59.844 25.7886 59.7218 26.3263L56.8692 38.8821L59.7488 37.0687C60.2588 36.7476 60.7943 36.6508 61.3555 36.7783C61.9167 36.9058 62.3589 37.2247 62.682 37.7351C63.005 38.2455 63.1012 38.7814 62.9706 39.343C62.8399 39.9045 62.5216 40.3462 62.0156 40.6682L54.8166 45.2017C54.3066 45.5229 53.7701 45.6194 53.2069 45.4915C52.6438 45.3636 52.2026 45.0448 51.8834 44.5354L47.3499 37.3363C47.0288 36.8264 46.9322 36.2899 47.0602 35.7267C47.1881 35.1635 47.5068 34.7224 48.0163 34.4032C48.5258 34.084 49.0618 33.9878 49.6242 34.1146C50.1866 34.2413 50.6283 34.5597 50.9494 35.0696L52.7628 37.9492Z" fill="#6B2E49"/>
<path d="M51.9301 73.7479L47.8352 52.3622C47.5111 50.6692 49.3374 49.3865 50.8199 50.266L69.7799 61.5129C71.439 62.497 70.8808 65.0278 68.9616 65.2228L60.4339 66.089C59.7211 66.1614 59.1015 66.6096 58.8095 67.2639L55.7208 74.1867C54.9233 75.9742 52.2981 75.6704 51.9301 73.7479Z" fill="#6B2E49" stroke="#6B2E49"/>
</g>
<defs>
<clipPath id="clip0_18775_1692">
<rect width="100" height="100" fill="white"/>
</clipPath>
<clipPath id="clip1_18775_1692">
<rect width="100" height="100" fill="white"/>
</clipPath>
</defs>
</svg>
