<svg width="100" height="70" viewBox="0 0 100 70" fill="none" xmlns="http://www.w3.org/2000/svg">
<g clip-path="url(#clip0_292_780)">
<g clip-path="url(#clip1_292_780)">
<path fill-rule="evenodd" clip-rule="evenodd" d="M25.5628 69.7157C25.1511 69.69 24.7523 69.69 24.3406 69.6514C23.5301 69.5742 22.7197 69.4198 21.9349 69.1882C20.7642 68.8409 19.632 68.3263 18.6028 67.6701C17.5736 67.014 16.6345 66.2035 15.8369 65.2772C15.1293 64.4539 15.0006 64.1966 14.4217 63.2832L1.7239 41.2839C1.22216 40.3191 1.06778 40.0875 0.707559 39.0583C0.308743 37.9004 0.0771719 36.6911 0.0128466 35.4689C-0.0514786 34.2468 0.0771719 33.0117 0.360203 31.8281C0.553179 31.0305 0.823344 30.2586 1.15784 29.5124C1.32508 29.1393 1.53092 28.792 1.7239 28.4189L14.4217 6.43252C15.0135 5.5191 15.1293 5.2618 15.8369 4.43844C16.6345 3.51216 17.5736 2.70166 18.6028 2.04554C19.632 1.38942 20.7642 0.874823 21.9349 0.527467C22.7197 0.295896 23.5173 0.141516 24.3406 0.0643252C24.7523 0.0257301 25.1511 0.0257301 25.5628 0H74.4371C75.5178 0.0514602 75.8008 0.0257301 76.8686 0.231571C78.0779 0.463142 79.2358 0.861958 80.3293 1.42802C81.4229 1.99408 82.4263 2.70166 83.314 3.55075C83.9058 4.11681 84.4461 4.73434 84.9093 5.40332C85.1409 5.73781 85.3467 6.08517 85.5654 6.43252L98.2632 28.4189C98.4562 28.7791 98.6492 29.1393 98.8293 29.5124C99.1638 30.2586 99.4339 31.0305 99.6269 31.8281C99.9099 33.0246 100.039 34.2468 99.9743 35.4689C99.9099 36.6911 99.6784 37.9133 99.2795 39.0583C98.9193 40.0875 98.7649 40.3191 98.2632 41.2839L85.5654 63.2703C84.9736 64.1837 84.8578 64.441 84.1502 65.2644C83.3526 66.1907 82.4135 67.0012 81.3843 67.6573C80.3551 68.3134 79.2229 68.828 78.0522 69.1754C77.2674 69.4069 76.4698 69.5613 75.6465 69.6385C75.2348 69.6771 74.836 69.6771 74.4243 69.7028C58.15 69.7157 41.85 69.7157 25.5628 69.7157Z" fill="#FF66AA"/>
</g>
<path d="M39.9452 23.0109H23.3125C22.9644 23.0109 22.6306 22.8727 22.3844 22.6265C22.1383 22.3804 22 22.0465 22 21.6984V12.9484C22 11.9041 22.4148 10.9026 23.1533 10.1642C23.8917 9.42578 24.8932 9.01094 25.9375 9.01094H37.3125C38.3568 9.01094 39.3583 9.42578 40.0967 10.1642C40.8352 10.9026 41.25 11.9041 41.25 12.9484V21.6984C41.2516 21.8706 41.219 22.0414 41.1541 22.2008C41.0892 22.3603 40.9932 22.5053 40.8718 22.6274C40.7505 22.7494 40.606 22.8462 40.447 22.9121C40.2879 22.9779 40.1173 23.0115 39.9452 23.0109ZM78 21.6984V12.9375C78 11.8932 77.5852 10.8917 76.8467 10.1533C76.1083 9.41484 75.1068 9 74.0625 9H62.6875C61.6432 9 60.6417 9.41484 59.9033 10.1533C59.1648 10.8917 58.75 11.8932 58.75 12.9375V21.6875C58.75 22.0356 58.8883 22.3694 59.1344 22.6156C59.3806 22.8617 59.7144 23 60.0625 23H76.6875C76.8594 23.0016 77.0299 22.9691 77.1891 22.9044C77.3484 22.8397 77.4932 22.744 77.6152 22.623C77.7373 22.502 77.8341 22.3579 77.9002 22.1992C77.9662 22.0405 78.0002 21.8703 78 21.6984ZM60.0625 26.5109C59.7144 26.5109 59.3806 26.6492 59.1344 26.8954C58.8883 27.1415 58.75 27.4753 58.75 27.8234V33.5109C58.75 47.5219 41.25 47.5 41.25 33.5109V27.8234C41.25 27.4753 41.1117 27.1415 40.8656 26.8954C40.6194 26.6492 40.2856 26.5109 39.9375 26.5109H23.3234C23.1502 26.5109 22.9786 26.5452 22.8186 26.6119C22.6587 26.6785 22.5135 26.7762 22.3915 26.8992C22.2695 27.0223 22.173 27.1682 22.1077 27.3287C22.0424 27.4892 22.0095 27.6611 22.0109 27.8344C22.0219 30.175 22.0766 32.2422 22.0109 33.6641C22.0109 50.1359 36.9045 60.6359 50.093 60.6359C63.2814 60.6359 77.9836 50.1359 77.9836 33.6531C77.918 32.2531 77.9617 30.0437 77.9836 27.8344C77.985 27.6611 77.9522 27.4892 77.8868 27.3287C77.8215 27.1682 77.7251 27.0223 77.6031 26.8992C77.481 26.7762 77.3359 26.6785 77.1759 26.6119C77.0159 26.5452 76.8444 26.5109 76.6711 26.5109H60.0625Z" fill="#591E39"/>
</g>
<defs>
<clipPath id="clip0_292_780">
<rect width="100" height="70" fill="white"/>
</clipPath>
<clipPath id="clip1_292_780">
<rect width="100" height="69.7157" fill="white"/>
</clipPath>
</defs>
</svg>
