<svg width="100" height="70" viewBox="0 0 100 70" fill="none" xmlns="http://www.w3.org/2000/svg">
<g clip-path="url(#clip0_292_845)">
<g clip-path="url(#clip1_292_845)">
<path fill-rule="evenodd" clip-rule="evenodd" d="M25.5628 69.7157C25.1511 69.69 24.7523 69.69 24.3406 69.6514C23.5301 69.5742 22.7197 69.4198 21.9349 69.1882C20.7642 68.8409 19.632 68.3263 18.6028 67.6701C17.5736 67.014 16.6345 66.2035 15.8369 65.2772C15.1293 64.4539 15.0006 64.1966 14.4217 63.2832L1.7239 41.2839C1.22216 40.3191 1.06778 40.0875 0.707559 39.0583C0.308743 37.9004 0.0771719 36.6911 0.0128466 35.4689C-0.0514786 34.2468 0.0771719 33.0117 0.360203 31.8281C0.553179 31.0305 0.823344 30.2586 1.15784 29.5124C1.32508 29.1393 1.53092 28.792 1.7239 28.4189L14.4217 6.43252C15.0135 5.5191 15.1293 5.2618 15.8369 4.43844C16.6345 3.51216 17.5736 2.70166 18.6028 2.04554C19.632 1.38942 20.7642 0.874823 21.9349 0.527467C22.7197 0.295896 23.5173 0.141516 24.3406 0.0643252C24.7523 0.0257301 25.1511 0.0257301 25.5628 0H74.4371C75.5178 0.0514602 75.8008 0.0257301 76.8686 0.231571C78.0779 0.463142 79.2358 0.861958 80.3293 1.42802C81.4229 1.99408 82.4263 2.70166 83.314 3.55075C83.9058 4.11681 84.4461 4.73434 84.9093 5.40332C85.1409 5.73781 85.3467 6.08517 85.5654 6.43252L98.2632 28.4189C98.4562 28.7791 98.6492 29.1393 98.8293 29.5124C99.1638 30.2586 99.4339 31.0305 99.6269 31.8281C99.9099 33.0246 100.039 34.2468 99.9743 35.4689C99.9099 36.6911 99.6784 37.9133 99.2795 39.0583C98.9193 40.0875 98.7649 40.3191 98.2632 41.2839L85.5654 63.2703C84.9736 64.1837 84.8578 64.441 84.1502 65.2644C83.3526 66.1907 82.4135 67.0012 81.3843 67.6573C80.3551 68.3134 79.2229 68.828 78.0522 69.1754C77.2674 69.4069 76.4698 69.5613 75.6465 69.6385C75.2348 69.6771 74.836 69.6771 74.4243 69.7028C58.15 69.7157 41.85 69.7157 25.5628 69.7157Z" fill="#8C66FF"/>
</g>
<path d="M34.0717 39.9815L24.8092 28.8095V44H20.8192V24.506H24.7807C26.2912 24.506 26.9467 25.2755 27.5452 26.0165L35.6392 35.963L43.7332 26.0165C44.3317 25.2755 44.9872 24.506 46.4977 24.506H50.4592V44H46.4692V28.8095L37.2067 39.9815H34.0717ZM55.3031 44V24.506H72.2321C77.0201 24.506 79.9841 26.672 79.9841 30.5765C79.9841 33.3125 78.5306 34.994 75.9941 35.735C78.4736 36.533 79.5566 38.129 79.5566 40.1525V44H75.3386V40.067C75.3386 38.984 74.7401 37.5875 72.1466 37.5875H59.3786V44H55.3031ZM59.3786 33.968H72.5456C75.0536 33.968 75.8231 32.315 75.8231 31.0325C75.8231 29.75 75.0536 28.097 72.5456 28.097H59.3786V33.968Z" fill="#2D1E59"/>
</g>
<defs>
<clipPath id="clip0_292_845">
<rect width="100" height="70" fill="white"/>
</clipPath>
<clipPath id="clip1_292_845">
<rect width="100" height="69.7157" fill="white"/>
</clipPath>
</defs>
</svg>
