<svg width="100" height="70" viewBox="0 0 100 70" fill="none" xmlns="http://www.w3.org/2000/svg">
<g clip-path="url(#clip0_292_778)">
<g clip-path="url(#clip1_292_778)">
<path fill-rule="evenodd" clip-rule="evenodd" d="M25.5628 69.7157C25.1511 69.69 24.7523 69.69 24.3406 69.6514C23.5301 69.5742 22.7197 69.4198 21.9349 69.1882C20.7642 68.8409 19.632 68.3263 18.6028 67.6701C17.5736 67.014 16.6345 66.2035 15.8369 65.2772C15.1293 64.4539 15.0006 64.1966 14.4217 63.2832L1.7239 41.2839C1.22216 40.3191 1.06778 40.0875 0.707559 39.0583C0.308743 37.9004 0.0771719 36.6911 0.0128466 35.4689C-0.0514786 34.2468 0.0771719 33.0117 0.360203 31.8281C0.553179 31.0305 0.823344 30.2586 1.15784 29.5124C1.32508 29.1393 1.53092 28.792 1.7239 28.4189L14.4217 6.43252C15.0135 5.5191 15.1293 5.2618 15.8369 4.43844C16.6345 3.51216 17.5736 2.70166 18.6028 2.04554C19.632 1.38942 20.7642 0.874823 21.9349 0.527467C22.7197 0.295896 23.5173 0.141516 24.3406 0.0643252C24.7523 0.0257301 25.1511 0.0257301 25.5628 0H74.4371C75.5178 0.0514602 75.8008 0.0257301 76.8686 0.231571C78.0779 0.463142 79.2358 0.861958 80.3293 1.42802C81.4229 1.99408 82.4263 2.70166 83.314 3.55075C83.9058 4.11681 84.4461 4.73434 84.9093 5.40332C85.1409 5.73781 85.3467 6.08517 85.5654 6.43252L98.2632 28.4189C98.4562 28.7791 98.6492 29.1393 98.8293 29.5124C99.1638 30.2586 99.4339 31.0305 99.6269 31.8281C99.9099 33.0246 100.039 34.2468 99.9743 35.4689C99.9099 36.6911 99.6784 37.9133 99.2795 39.0583C98.9193 40.0875 98.7649 40.3191 98.2632 41.2839L85.5654 63.2703C84.9736 64.1837 84.8578 64.441 84.1502 65.2644C83.3526 66.1907 82.4135 67.0012 81.3843 67.6573C80.3551 68.3134 79.2229 68.828 78.0522 69.1754C77.2674 69.4069 76.4698 69.5613 75.6465 69.6385C75.2348 69.6771 74.836 69.6771 74.4243 69.7028C58.15 69.7157 41.85 69.7157 25.5628 69.7157Z" fill="#FF66AA"/>
</g>
<path d="M45.5187 14.7706L35.7877 24.4994H24.625C23.1747 24.4994 22 25.6741 22 27.1244V42.8743C22 44.3235 23.1747 45.4992 24.625 45.4992H35.7877L45.5187 55.2281C47.1626 56.8719 49.9997 55.7169 49.9997 53.372V16.6267C49.9997 14.2795 47.1604 13.1289 45.5187 14.7706ZM72.4914 34.9993L77.4832 30.0075C78.1723 29.3185 78.1723 28.2007 77.4832 27.5116L74.9873 25.0157C74.2982 24.3266 73.1804 24.3266 72.4914 25.0157L67.4996 30.0075L62.5077 25.0157C61.8187 24.3266 60.7009 24.3266 60.0118 25.0157L57.5159 27.5116C56.8268 28.2007 56.8268 29.3185 57.5159 30.0075L62.5077 34.9993L57.517 39.9901C56.8279 40.6791 56.8279 41.7969 57.517 42.486L60.0129 44.9819C60.702 45.671 61.8198 45.671 62.5088 44.9819L67.4996 39.9912L72.4914 44.983C73.1804 45.672 74.2982 45.672 74.9873 44.983L77.4832 42.4871C78.1723 41.798 78.1723 40.6802 77.4832 39.9912L72.4914 34.9993Z" fill="#591E39"/>
</g>
<defs>
<clipPath id="clip0_292_778">
<rect width="100" height="70" fill="white"/>
</clipPath>
<clipPath id="clip1_292_778">
<rect width="100" height="69.7157" fill="white"/>
</clipPath>
</defs>
</svg>
