<svg width="100" height="70" viewBox="0 0 100 70" fill="none" xmlns="http://www.w3.org/2000/svg">
<g clip-path="url(#clip0_292_733)">
<g clip-path="url(#clip1_292_733)">
<path fill-rule="evenodd" clip-rule="evenodd" d="M25.5628 69.7157C25.1511 69.69 24.7523 69.69 24.3406 69.6514C23.5301 69.5742 22.7197 69.4198 21.9349 69.1882C20.7642 68.8409 19.632 68.3263 18.6028 67.6701C17.5736 67.014 16.6345 66.2035 15.8369 65.2772C15.1293 64.4539 15.0006 64.1966 14.4217 63.2832L1.7239 41.2839C1.22216 40.3191 1.06778 40.0875 0.707559 39.0583C0.308743 37.9004 0.0771719 36.6911 0.0128466 35.4689C-0.0514786 34.2468 0.0771719 33.0117 0.360203 31.8281C0.553179 31.0305 0.823344 30.2586 1.15784 29.5124C1.32508 29.1393 1.53092 28.792 1.7239 28.4189L14.4217 6.43252C15.0135 5.5191 15.1293 5.2618 15.8369 4.43844C16.6345 3.51216 17.5736 2.70166 18.6028 2.04554C19.632 1.38942 20.7642 0.874823 21.9349 0.527467C22.7197 0.295896 23.5173 0.141516 24.3406 0.0643252C24.7523 0.0257301 25.1511 0.0257301 25.5628 0H74.4371C75.5178 0.0514602 75.8008 0.0257301 76.8686 0.231571C78.0779 0.463142 79.2358 0.861958 80.3293 1.42802C81.4229 1.99408 82.4263 2.70166 83.314 3.55075C83.9058 4.11681 84.4461 4.73434 84.9093 5.40332C85.1409 5.73781 85.3467 6.08517 85.5654 6.43252L98.2632 28.4189C98.4562 28.7791 98.6492 29.1393 98.8293 29.5124C99.1638 30.2586 99.4339 31.0305 99.6269 31.8281C99.9099 33.0246 100.039 34.2468 99.9743 35.4689C99.9099 36.6911 99.6784 37.9133 99.2795 39.0583C98.9193 40.0875 98.7649 40.3191 98.2632 41.2839L85.5654 63.2703C84.9736 64.1837 84.8578 64.441 84.1502 65.2644C83.3526 66.1907 82.4135 67.0012 81.3843 67.6573C80.3551 68.3134 79.2229 68.828 78.0522 69.1754C77.2674 69.4069 76.4698 69.5613 75.6465 69.6385C75.2348 69.6771 74.836 69.6771 74.4243 69.7028C58.15 69.7157 41.85 69.7157 25.5628 69.7157Z" fill="#FF6666"/>
</g>
<path d="M76.6298 27.7041C76.3289 25.8332 75.8408 23.9971 75.1726 22.2234C74.7646 21.1377 74.2885 20.0786 73.7472 19.0526L71.7238 20.6685C71.0904 19.5561 70.3862 18.4852 69.6157 17.4625C68.5665 16.0718 67.3915 14.78 66.1057 13.6036C65.003 12.6011 63.8178 11.6929 62.5627 10.8885C61.3208 10.0906 60.0107 9.40366 58.6478 8.83568C57.1257 8.20132 55.542 7.72553 53.9218 7.41589C50.9436 6.8509 47.8844 6.86166 44.9102 7.44759C43.3202 7.76313 41.7663 8.23883 40.2726 8.86739C38.936 9.42861 37.6509 10.1049 36.4318 10.8885C35.1781 11.6968 33.9946 12.6085 32.8935 13.6141C31.566 14.8282 30.3568 16.1651 29.2823 17.607C28.5508 18.5888 27.8802 19.6143 27.2742 20.6779L25.2497 19.0632C24.7083 20.0892 24.2322 21.1482 23.8243 22.2339C23.1564 24.0061 22.6682 25.8406 22.367 27.71C21.9998 29.9981 21.9077 32.3217 22.0928 34.6316C22.2006 35.9711 22.4024 37.3014 22.6966 38.6127C23.3432 41.5012 24.4432 44.2696 25.9559 46.8156L25.8559 51.2453C25.8477 51.5979 25.9093 51.9487 26.0371 52.2775C26.1648 52.6064 26.3562 52.907 26.6004 53.1621C26.8446 53.4171 27.1367 53.6217 27.4602 53.7641C27.7836 53.9065 28.132 53.984 28.4854 53.9921L29.7178 54.0203L30.0709 57.5774C30.1412 58.2862 30.4906 58.9381 31.0424 59.39C31.5941 59.8418 32.3032 60.0566 33.0136 59.9872L38.3716 59.4622C38.7235 59.428 39.0653 59.3249 39.3772 59.1587C39.6891 58.9926 39.9651 58.7667 40.1895 58.494C40.4138 58.2213 40.5821 57.9072 40.6846 57.5695C40.7871 57.2319 40.8219 56.8774 40.787 56.5264L38.9472 37.813C38.8773 37.1041 38.528 36.452 37.9761 36C37.4242 35.5481 36.7151 35.3334 36.0045 35.4032L30.6477 35.9281C30.2958 35.9625 29.9541 36.0658 29.6422 36.2319C29.3303 36.3981 29.0542 36.624 28.8298 36.8966C28.6054 37.1692 28.4371 37.4833 28.3343 37.8209C28.2316 38.1585 28.1966 38.5129 28.2312 38.864L28.2583 39.1447C27.5862 39.2739 26.9889 39.654 26.588 40.2075C26.2955 39.3625 26.0503 38.5019 25.8535 37.6298C25.2819 35.0852 25.123 32.4656 25.3827 29.8708L29.1022 27.2989C29.4022 26.4769 29.744 25.6706 30.1263 24.8833C30.8211 23.4555 31.6486 22.0959 32.5981 20.8224C33.4823 19.6367 34.4753 18.5359 35.5643 17.5342C36.498 16.6752 37.5037 15.8976 38.5705 15.2101C39.551 14.5769 40.583 14.027 41.6556 13.566C44.1536 12.4918 46.8464 11.9423 49.5664 11.9516C52.2865 11.9609 54.9755 12.5288 57.466 13.62C58.5353 14.0874 59.5637 14.6428 60.5405 15.2806C61.6042 15.9764 62.6061 16.7622 63.5349 17.6293C64.6361 18.6542 65.6371 19.7812 66.5247 20.995C67.9369 22.9283 69.0689 25.0505 69.8876 27.2989L73.6071 29.8708C73.8669 32.466 73.7079 35.0859 73.1363 37.6309C72.9395 38.5031 72.6942 39.3636 72.4018 40.2087C72.0009 39.6552 71.4036 39.2751 70.7315 39.1459L70.7586 38.8652C70.7932 38.5141 70.7582 38.1596 70.6555 37.8221C70.5527 37.4845 70.3844 37.1704 70.16 36.8978C69.9355 36.6251 69.6595 36.3993 69.3476 36.2331C69.0357 36.0669 68.694 35.9637 68.3421 35.9293L62.9853 35.4044C62.2747 35.3346 61.5655 35.5493 61.0137 36.0012C60.4618 36.4531 60.1125 37.1053 60.0426 37.8141L58.2075 56.5275C58.1726 56.8786 58.2074 57.2331 58.3099 57.5707C58.4124 57.9083 58.5807 58.2225 58.805 58.4952C59.0294 58.7679 59.3054 58.9937 59.6173 59.1599C59.9292 59.326 60.271 59.4292 60.6229 59.4634L65.9762 59.9872C66.6866 60.0566 67.3957 59.8418 67.9474 59.39C68.4992 58.9381 68.8486 58.2862 68.9188 57.5774L69.272 54.0203L70.5044 53.9921C70.8578 53.984 71.2062 53.9065 71.5296 53.7641C71.853 53.6217 72.1452 53.4171 72.3894 53.1621C72.6336 52.907 72.825 52.6064 72.9527 52.2775C73.0805 51.9487 73.1421 51.5979 73.1339 51.2453L73.0386 46.8156C74.5543 44.2682 75.6567 41.4978 76.3049 38.6068C76.5992 37.2955 76.8009 35.9652 76.9088 34.6258C77.0923 32.3157 76.9987 29.992 76.6298 27.7041Z" fill="#591E1E"/>
</g>
<defs>
<clipPath id="clip0_292_733">
<rect width="100" height="70" fill="white"/>
</clipPath>
<clipPath id="clip1_292_733">
<rect width="100" height="69.7157" fill="white"/>
</clipPath>
</defs>
</svg>
