<svg width="100" height="70" viewBox="0 0 100 70" fill="none" xmlns="http://www.w3.org/2000/svg">
<g clip-path="url(#clip0_292_725)">
<g clip-path="url(#clip1_292_725)">
<path fill-rule="evenodd" clip-rule="evenodd" d="M25.5628 69.7157C25.1511 69.69 24.7523 69.69 24.3406 69.6514C23.5301 69.5742 22.7197 69.4198 21.9349 69.1882C20.7642 68.8409 19.632 68.3263 18.6028 67.6701C17.5736 67.014 16.6345 66.2035 15.8369 65.2772C15.1293 64.4539 15.0006 64.1966 14.4217 63.2832L1.7239 41.2839C1.22216 40.3191 1.06778 40.0875 0.707559 39.0583C0.308743 37.9004 0.0771719 36.6911 0.0128466 35.4689C-0.0514786 34.2468 0.0771719 33.0117 0.360203 31.8281C0.553179 31.0305 0.823344 30.2586 1.15784 29.5124C1.32508 29.1393 1.53092 28.792 1.7239 28.4189L14.4217 6.43252C15.0135 5.5191 15.1293 5.2618 15.8369 4.43844C16.6345 3.51216 17.5736 2.70166 18.6028 2.04554C19.632 1.38942 20.7642 0.874823 21.9349 0.527467C22.7197 0.295896 23.5173 0.141516 24.3406 0.0643252C24.7523 0.0257301 25.1511 0.0257301 25.5628 0H74.4371C75.5178 0.0514602 75.8008 0.0257301 76.8686 0.231571C78.0779 0.463142 79.2358 0.861958 80.3293 1.42802C81.4229 1.99408 82.4263 2.70166 83.314 3.55075C83.9058 4.11681 84.4461 4.73434 84.9093 5.40332C85.1409 5.73781 85.3467 6.08517 85.5654 6.43252L98.2632 28.4189C98.4562 28.7791 98.6492 29.1393 98.8293 29.5124C99.1638 30.2586 99.4339 31.0305 99.6269 31.8281C99.9099 33.0246 100.039 34.2468 99.9743 35.4689C99.9099 36.6911 99.6784 37.9133 99.2795 39.0583C98.9193 40.0875 98.7649 40.3191 98.2632 41.2839L85.5654 63.2703C84.9736 64.1837 84.8578 64.441 84.1502 65.2644C83.3526 66.1907 82.4135 67.0012 81.3843 67.6573C80.3551 68.3134 79.2229 68.828 78.0522 69.1754C77.2674 69.4069 76.4698 69.5613 75.6465 69.6385C75.2348 69.6771 74.836 69.6771 74.4243 69.7028C58.15 69.7157 41.85 69.7157 25.5628 69.7157Z" fill="#B2FF66"/>
</g>
<path d="M65.1254 40.2188C66.2913 36.8373 66.2913 33.1627 65.1254 29.7812L71.1918 23.7183C73.0382 27.1921 74.0038 31.066 74.0038 35C74.0038 38.934 73.0382 42.8079 71.1918 46.2817L65.1254 40.2188ZM50 47.0002C47.6266 47.0002 45.3065 46.2964 43.3331 44.9778C41.3596 43.6592 39.8216 41.785 38.9133 39.5923C38.005 37.3995 37.7674 34.9867 38.2304 32.6589C38.6934 30.3311 39.8363 28.1929 41.5146 26.5146C43.1929 24.8363 45.3311 23.6934 47.6589 23.2304C49.9867 22.7674 52.3995 23.005 54.5923 23.9133C56.785 24.8216 58.6592 26.3596 59.9778 28.3331C61.2964 30.3065 62.0002 32.6266 62.0002 35C61.9995 38.1825 60.7351 41.2344 58.4847 43.4847C56.2344 45.7351 53.1825 46.9995 50 47.0002ZM50 59.0003C46.0668 58.997 42.194 58.0329 38.7183 56.1918L44.7812 50.1289C48.1627 51.2948 51.8373 51.2948 55.2188 50.1289L61.2817 56.1918C57.806 58.0329 53.9332 58.997 50 59.0003ZM28.8082 46.2817C26.9618 42.8079 25.9962 38.934 25.9962 35C25.9962 31.066 26.9618 27.1921 28.8082 23.7183L34.8711 29.7812C33.7052 33.1627 33.7052 36.8373 34.8711 40.2188L28.8082 46.2817ZM50 11.0008C53.9331 11.0038 57.8059 11.9675 61.2817 13.8082L55.2188 19.8746C51.8373 18.7087 48.1627 18.7087 44.7812 19.8746L38.7183 13.8082C42.194 11.9671 46.0668 11.003 50 10.9997V11.0008ZM50 7.00116C34.5311 7.00116 22 19.5323 22 35.0012C22 50.47 34.5311 63 50 63C65.4689 63 78 50.4689 78 35C78 19.5311 65.4689 7 50 7V7.00116Z" fill="#3C591E"/>
</g>
<defs>
<clipPath id="clip0_292_725">
<rect width="100" height="70" fill="white"/>
</clipPath>
<clipPath id="clip1_292_725">
<rect width="100" height="69.7157" fill="white"/>
</clipPath>
</defs>
</svg>
