<svg width="100" height="70" viewBox="0 15 100 70" fill="none" xmlns="http://www.w3.org/2000/svg">
<g clip-path="url(#clip0_18775_1691)">
<g clip-path="url(#clip1_18775_1691)">
<path fill-rule="evenodd" clip-rule="evenodd" d="M25.5628 84.7157C25.1511 84.69 24.7523 84.69 24.3406 84.6514C23.5301 84.5742 22.7197 84.4198 21.9349 84.1882C20.7642 83.8409 19.632 83.3263 18.6028 82.6701C17.5736 82.014 16.6345 81.2035 15.8369 80.2772C15.1293 79.4539 15.0006 79.1966 14.4217 78.2832L1.7239 56.2839C1.22216 55.3191 1.06778 55.0875 0.707559 54.0583C0.308743 52.9004 0.0771719 51.6911 0.0128466 50.4689C-0.0514786 49.2468 0.0771719 48.0117 0.360203 46.8281C0.553179 46.0305 0.823344 45.2586 1.15784 44.5124C1.32508 44.1393 1.53092 43.792 1.7239 43.4189L14.4217 21.4325C15.0135 20.5191 15.1293 20.2618 15.8369 19.4384C16.6345 18.5122 17.5736 17.7017 18.6028 17.0455C19.632 16.3894 20.7642 15.8748 21.9349 15.5275C22.7197 15.2959 23.5173 15.1415 24.3406 15.0643C24.7523 15.0257 25.1511 15.0257 25.5628 15H74.4371C75.5178 15.0515 75.8008 15.0257 76.8686 15.2316C78.0779 15.4631 79.2358 15.862 80.3293 16.428C81.4229 16.9941 82.4263 17.7017 83.314 18.5508C83.9058 19.1168 84.4461 19.7343 84.9093 20.4033C85.1409 20.7378 85.3467 21.0852 85.5654 21.4325L98.2632 43.4189C98.4562 43.7791 98.6492 44.1393 98.8293 44.5124C99.1638 45.2586 99.4339 46.0305 99.6269 46.8281C99.9099 48.0246 100.039 49.2468 99.9743 50.4689C99.9099 51.6911 99.6784 52.9133 99.2795 54.0583C98.9193 55.0875 98.7649 55.3191 98.2632 56.2839L85.5654 78.2703C84.9736 79.1837 84.8578 79.441 84.1502 80.2644C83.3526 81.1907 82.4135 82.0012 81.3843 82.6573C80.3551 83.3134 79.2229 83.828 78.0522 84.1754C77.2674 84.4069 76.4698 84.5613 75.6465 84.6385C75.2348 84.6771 74.836 84.6771 74.4243 84.7028C58.15 84.7157 41.85 84.7157 25.5628 84.7157Z" fill="#FF66AB"/>
</g>
<path fill-rule="evenodd" clip-rule="evenodd" d="M69.4066 43.8687C70.3026 46.4728 70.6725 49.229 70.4948 51.9772C70.3172 54.7255 69.5955 57.4111 68.3717 59.8782C67.148 62.3454 65.4464 64.545 63.3659 66.3493C61.2853 68.1537 58.8671 69.5269 56.2517 70.3893C53.6362 71.2517 50.8755 71.5861 48.1298 71.3732C45.384 71.1602 42.7079 70.4041 40.2567 69.1488C37.8055 67.8934 35.628 66.1637 33.8505 64.0602C32.073 61.9566 30.731 59.521 29.9022 56.8947C28.2561 51.678 28.7313 46.0229 31.2248 41.154C33.7184 36.2852 38.0295 32.5946 43.2246 30.8816C48.4197 29.1686 54.0804 29.5711 58.9809 32.0019C63.8814 34.4326 67.627 38.696 69.4066 43.8687ZM65.2102 51.5387C65.3622 49.4952 65.1101 47.4417 64.4685 45.4956C63.8269 43.5496 62.8082 41.7489 61.4707 40.1965C60.1331 38.6441 58.5029 37.3703 56.6731 36.4479C54.8433 35.5255 52.8497 34.9726 50.8062 34.8207C48.7627 34.6687 46.7093 34.9208 44.7632 35.5624C42.8171 36.204 41.0165 37.2227 39.4641 38.5602C37.9117 39.8978 36.6379 41.528 35.7155 43.3578C34.7931 45.1876 34.2402 47.1812 34.0882 49.2247C33.7814 53.3517 35.1266 57.4316 37.8278 60.5668C40.5291 63.702 44.3652 65.6358 48.4922 65.9427C52.6193 66.2495 56.6992 64.9043 59.8344 62.2031C62.9696 59.5018 64.9034 55.6657 65.2102 51.5387Z" fill="#6B2E49"/>
<path fill-rule="evenodd" clip-rule="evenodd" d="M49.6519 55.5818C51.031 55.5818 52.3536 55.034 53.3288 54.0588C54.304 53.0836 54.8519 51.761 54.8519 50.3818C54.8519 49.0027 54.304 47.6801 53.3288 46.7049C52.3536 45.7297 51.031 45.1818 49.6519 45.1818C48.2727 45.1818 46.9501 45.7297 45.9749 46.7049C44.9997 47.6801 44.4519 49.0027 44.4519 50.3818C44.4519 51.761 44.9997 53.0836 45.9749 54.0588C46.9501 55.034 48.2727 55.5818 49.6519 55.5818ZM49.6519 60.7818C52.4101 60.7818 55.0554 59.6861 57.0058 57.7357C58.9561 55.7854 60.0519 53.1401 60.0519 50.3818C60.0519 47.6236 58.9561 44.9783 57.0058 43.0279C55.0554 41.0775 52.4101 39.9818 49.6519 39.9818C46.8936 39.9818 44.2483 41.0775 42.2979 43.0279C40.3476 44.9783 39.2519 47.6236 39.2519 50.3818C39.2519 53.1401 40.3476 55.7854 42.2979 57.7357C44.2483 59.6861 46.8936 60.7818 49.6519 60.7818ZM49.6519 24.3818C50.3414 24.3818 51.0027 24.6558 51.4903 25.1434C51.9779 25.631 52.2519 26.2923 52.2519 26.9818V32.1818C52.2519 32.8714 51.9779 33.5327 51.4903 34.0203C51.0027 34.5079 50.3414 34.7818 49.6519 34.7818C48.9623 34.7818 48.301 34.5079 47.8134 34.0203C47.3258 33.5327 47.0519 32.8714 47.0519 32.1818V26.9818C47.0519 26.2923 47.3258 25.631 47.8134 25.1434C48.301 24.6558 48.9623 24.3818 49.6519 24.3818ZM49.6519 65.9818C50.3414 65.9818 51.0027 66.2558 51.4903 66.7434C51.9779 67.2309 52.2519 67.8923 52.2519 68.5818V73.7818C52.2519 74.4714 51.9779 75.1327 51.4903 75.6203C51.0027 76.1079 50.3414 76.3818 49.6519 76.3818C48.9623 76.3818 48.301 76.1079 47.8134 75.6203C47.3258 75.1327 47.0519 74.4714 47.0519 73.7818V68.5818C47.0519 67.8923 47.3258 67.2309 47.8134 66.7434C48.301 66.2558 48.9623 65.9818 49.6519 65.9818ZM75.6519 50.3818C75.6519 51.0714 75.3779 51.7327 74.8903 52.2203C74.4027 52.7079 73.7414 52.9818 73.0519 52.9818H67.8519C67.1623 52.9818 66.501 52.7079 66.0134 52.2203C65.5258 51.7327 65.2519 51.0714 65.2519 50.3818C65.2519 49.6923 65.5258 49.031 66.0134 48.5434C66.501 48.0558 67.1623 47.7818 67.8519 47.7818H73.0519C73.7414 47.7818 74.4027 48.0558 74.8903 48.5434C75.3779 49.031 75.6519 49.6923 75.6519 50.3818ZM34.0519 50.3818C34.0519 51.0714 33.7779 51.7327 33.2903 52.2203C32.8027 52.7079 32.1414 52.9818 31.4519 52.9818H26.2519C25.5623 52.9818 24.901 52.7079 24.4134 52.2203C23.9258 51.7327 23.6519 51.0714 23.6519 50.3818C23.6519 49.6923 23.9258 49.031 24.4134 48.5434C24.901 48.0558 25.5623 47.7818 26.2519 47.7818H31.4519C32.1414 47.7818 32.8027 48.0558 33.2903 48.5434C33.7779 49.031 34.0519 49.6923 34.0519 50.3818Z" fill="#6B2E49"/>
<path d="M31.7671 73.0209L31.5714 73.1986C30.5502 74.0321 29.0423 73.973 28.0901 73.0209C27.138 72.0688 27.0789 70.5608 27.9124 69.5396L28.0901 69.3439L68.6138 28.8202C69.6292 27.8049 71.2754 27.8049 72.2908 28.8202C73.3062 29.8356 73.3062 31.4818 72.2908 32.4972L31.7671 73.0209Z" fill="#6B2E49"/>
</g>
<defs>
<clipPath id="clip0_18775_1691">
<rect width="100" height="100" fill="white"/>
</clipPath>
<clipPath id="clip1_18775_1691">
<rect width="100" height="100" fill="white"/>
</clipPath>
</defs>
</svg>
