<svg width="100" height="70" viewBox="0 0 100 70" fill="none" xmlns="http://www.w3.org/2000/svg">
<g clip-path="url(#clip0_292_779)">
<g clip-path="url(#clip1_292_779)">
<path fill-rule="evenodd" clip-rule="evenodd" d="M25.5628 69.7157C25.1511 69.69 24.7523 69.69 24.3406 69.6514C23.5301 69.5742 22.7197 69.4198 21.9349 69.1882C20.7642 68.8409 19.632 68.3263 18.6028 67.6701C17.5736 67.014 16.6345 66.2035 15.8369 65.2772C15.1293 64.4539 15.0006 64.1966 14.4217 63.2832L1.7239 41.2839C1.22216 40.3191 1.06778 40.0875 0.707559 39.0583C0.308743 37.9004 0.0771719 36.6911 0.0128466 35.4689C-0.0514786 34.2468 0.0771719 33.0117 0.360203 31.8281C0.553179 31.0305 0.823344 30.2586 1.15784 29.5124C1.32508 29.1393 1.53092 28.792 1.7239 28.4189L14.4217 6.43252C15.0135 5.5191 15.1293 5.2618 15.8369 4.43844C16.6345 3.51216 17.5736 2.70166 18.6028 2.04554C19.632 1.38942 20.7642 0.874823 21.9349 0.527467C22.7197 0.295896 23.5173 0.141516 24.3406 0.0643252C24.7523 0.0257301 25.1511 0.0257301 25.5628 0H74.4371C75.5178 0.0514602 75.8008 0.0257301 76.8686 0.231571C78.0779 0.463142 79.2358 0.861958 80.3293 1.42802C81.4229 1.99408 82.4263 2.70166 83.314 3.55075C83.9058 4.11681 84.4461 4.73434 84.9093 5.40332C85.1409 5.73781 85.3467 6.08517 85.5654 6.43252L98.2632 28.4189C98.4562 28.7791 98.6492 29.1393 98.8293 29.5124C99.1638 30.2586 99.4339 31.0305 99.6269 31.8281C99.9099 33.0246 100.039 34.2468 99.9743 35.4689C99.9099 36.6911 99.6784 37.9133 99.2795 39.0583C98.9193 40.0875 98.7649 40.3191 98.2632 41.2839L85.5654 63.2703C84.9736 64.1837 84.8578 64.441 84.1502 65.2644C83.3526 66.1907 82.4135 67.0012 81.3843 67.6573C80.3551 68.3134 79.2229 68.828 78.0522 69.1754C77.2674 69.4069 76.4698 69.5613 75.6465 69.6385C75.2348 69.6771 74.836 69.6771 74.4243 69.7028C58.15 69.7157 41.85 69.7157 25.5628 69.7157Z" fill="#FF66AA"/>
</g>
<path d="M49.9997 48.0001C43.3629 48.0001 37.9904 42.863 37.496 36.353L28.3173 29.2594C27.1107 30.7732 26.0003 32.3735 25.1043 34.1235C24.9041 34.5195 24.7998 34.9569 24.7998 35.4006C24.7998 35.8443 24.9041 36.2817 25.1043 36.6777C29.8494 45.936 39.2434 52.2001 49.9997 52.2001C52.3543 52.2001 54.6258 51.8501 56.8151 51.2849L52.2747 47.7718C51.5249 47.9166 50.7634 47.993 49.9997 48.0001ZM77.4589 53.0839L67.7858 45.6079C70.7242 43.1316 73.1408 40.0957 74.8952 36.6768C75.0953 36.2808 75.1996 35.8434 75.1996 35.3997C75.1996 34.9561 75.0953 34.5186 74.8952 34.1227C70.15 24.8643 60.7561 18.6002 49.9997 18.6002C45.4948 18.6057 41.063 19.7398 37.1093 21.899L25.9775 13.2951C25.8324 13.1821 25.6664 13.0989 25.489 13.0501C25.3117 13.0013 25.1265 12.988 24.944 13.0108C24.7615 13.0337 24.5853 13.0922 24.4254 13.1832C24.2655 13.2742 24.1252 13.3957 24.0123 13.541L22.2947 15.7521C22.0668 16.0452 21.9647 16.4168 22.0108 16.7852C22.057 17.1536 22.2475 17.4886 22.5406 17.7165L74.0219 57.5052C74.1671 57.6182 74.3331 57.7014 74.5104 57.7502C74.6877 57.799 74.873 57.8123 75.0555 57.7895C75.238 57.7667 75.4142 57.7081 75.5741 57.6171C75.7339 57.5262 75.8743 57.4046 75.9871 57.2593L77.7056 55.0482C77.9334 54.755 78.0354 54.3833 77.9891 54.0149C77.9428 53.6466 77.7521 53.3116 77.4589 53.0839ZM61.3834 40.6589L57.9447 38.0007C58.2343 37.1637 58.3879 36.2857 58.3997 35.4002C58.4168 34.1036 58.1295 32.8212 57.5611 31.6558C56.9926 30.4904 56.1587 29.4746 55.1265 28.69C54.0942 27.9054 52.8923 27.3737 51.6173 27.1379C50.3423 26.902 49.0298 26.9684 47.7851 27.3318C48.3127 28.0468 48.5982 28.9116 48.5997 29.8002C48.5867 30.0959 48.5415 30.3893 48.465 30.6752L42.0241 25.6973C44.2615 23.8276 47.084 22.8024 49.9997 22.8002C51.6546 22.7993 53.2935 23.1246 54.8226 23.7574C56.3517 24.3903 57.7411 25.3184 58.9113 26.4886C60.0815 27.6588 61.0096 29.0482 61.6424 30.5773C62.2753 32.1064 62.6006 33.7453 62.5997 35.4002C62.5997 37.2928 62.1368 39.0568 61.3834 40.6598V40.6589Z" fill="#591E39"/>
</g>
<defs>
<clipPath id="clip0_292_779">
<rect width="100" height="70" fill="white"/>
</clipPath>
<clipPath id="clip1_292_779">
<rect width="100" height="69.7157" fill="white"/>
</clipPath>
</defs>
</svg>
