<svg width="100" height="70" viewBox="0 0 100 70" fill="none" xmlns="http://www.w3.org/2000/svg">
<g clip-path="url(#clip0_292_767)">
<g clip-path="url(#clip1_292_767)">
<path fill-rule="evenodd" clip-rule="evenodd" d="M25.5628 69.7157C25.1511 69.69 24.7523 69.69 24.3406 69.6514C23.5301 69.5742 22.7197 69.4198 21.9349 69.1882C20.7642 68.8409 19.632 68.3263 18.6028 67.6701C17.5736 67.014 16.6345 66.2035 15.8369 65.2772C15.1293 64.4539 15.0006 64.1966 14.4217 63.2832L1.7239 41.2839C1.22216 40.3191 1.06778 40.0875 0.707559 39.0583C0.308743 37.9004 0.0771719 36.6911 0.0128466 35.4689C-0.0514786 34.2468 0.0771719 33.0117 0.360203 31.8281C0.553179 31.0305 0.823344 30.2586 1.15784 29.5124C1.32508 29.1393 1.53092 28.792 1.7239 28.4189L14.4217 6.43252C15.0135 5.5191 15.1293 5.2618 15.8369 4.43844C16.6345 3.51216 17.5736 2.70166 18.6028 2.04554C19.632 1.38942 20.7642 0.874823 21.9349 0.527467C22.7197 0.295896 23.5173 0.141516 24.3406 0.0643252C24.7523 0.0257301 25.1511 0.0257301 25.5628 0H74.4371C75.5178 0.0514602 75.8008 0.0257301 76.8686 0.231571C78.0779 0.463142 79.2358 0.861958 80.3293 1.42802C81.4229 1.99408 82.4263 2.70166 83.314 3.55075C83.9058 4.11681 84.4461 4.73434 84.9093 5.40332C85.1409 5.73781 85.3467 6.08517 85.5654 6.43252L98.2632 28.4189C98.4562 28.7791 98.6492 29.1393 98.8293 29.5124C99.1638 30.2586 99.4339 31.0305 99.6269 31.8281C99.9099 33.0246 100.039 34.2468 99.9743 35.4689C99.9099 36.6911 99.6784 37.9133 99.2795 39.0583C98.9193 40.0875 98.7649 40.3191 98.2632 41.2839L85.5654 63.2703C84.9736 64.1837 84.8578 64.441 84.1502 65.2644C83.3526 66.1907 82.4135 67.0012 81.3843 67.6573C80.3551 68.3134 79.2229 68.828 78.0522 69.1754C77.2674 69.4069 76.4698 69.5613 75.6465 69.6385C75.2348 69.6771 74.836 69.6771 74.4243 69.7028C58.15 69.7157 41.85 69.7157 25.5628 69.7157Z" fill="#66CCFF"/>
</g>
<path d="M75.2013 28.9174C74.5577 26.3731 73.534 23.9424 72.1654 21.709C69.9796 18.14 66.9759 15.1531 63.4074 13C64.9536 15.4955 65.7734 18.3793 65.7733 21.3224C65.7733 21.8139 65.7495 22.2988 65.7052 22.7794C65.4545 25.4595 64.5277 28.0302 63.0132 30.2463C61.4986 32.4624 59.4468 34.2501 57.0533 35.4388C55.4665 36.2283 53.7573 36.737 52 36.9428L52.013 37.052C52.3812 39.7672 53.612 42.2887 55.5207 44.2382C57.4294 46.1877 59.913 47.4601 62.599 47.8646C63.2036 47.954 63.8137 47.9992 64.4248 48C66.6061 48.0005 68.7496 47.4255 70.6426 46.3319C72.5356 45.2383 74.1124 43.6642 75.2164 41.7658C76.267 37.549 76.2611 33.1346 75.1991 28.9207" fill="#1E4559"/>
<path d="M36.3339 19.0798C36.8394 19.0798 37.3396 19.1044 37.832 19.1503C40.536 19.4071 43.1262 20.3435 45.3512 21.8688C47.5762 23.394 49.3603 25.4562 50.5305 27.8553C51.3211 29.4731 51.8138 31.2147 51.9861 33L52.1837 32.9754C54.8722 32.5923 57.363 31.3717 59.2866 29.4944C61.2103 27.6171 62.4645 25.1832 62.8632 22.5536C63.2619 19.9239 62.7839 17.2386 61.5 14.8957C60.2162 12.5528 58.1949 10.6771 55.7359 9.54678C50.4241 8.45254 44.8956 9.00933 39.9229 11.1393C34.9502 13.2694 30.7818 16.8662 28 21.4273C30.034 20.1751 32.3359 19.3992 34.7265 19.1599C35.2624 19.1068 35.8007 19.08 36.3393 19.0798" fill="#1E4559"/>
<path d="M34.0386 48.8657C34.039 45.9229 34.8408 43.039 36.353 40.5416C37.8652 38.0441 40.0272 36.033 42.5936 34.7365C44.254 33.8935 46.0504 33.3707 47.8938 33.1941C47.9278 33.1941 47.9628 33.1875 48 33.1842L47.8938 33.17C47.5365 30.0945 46.0975 27.2601 43.8487 25.2021C41.5998 23.1441 38.6968 22.0051 35.6878 22C35.1601 22.002 34.633 22.0386 34.1097 22.1093C32.0494 22.3871 30.0908 23.1969 28.4162 24.4634C26.7416 25.7298 25.4055 27.4117 24.532 29.3527C23.4621 34.6422 24.0143 40.1432 26.1124 45.0958C28.2104 50.0483 31.7507 54.2079 36.2443 57C35.0457 54.965 34.3138 52.6754 34.1044 50.3054C34.063 49.8299 34.0397 49.3478 34.0397 48.8614" fill="#1E4559"/>
<path d="M64.1134 50.8441C63.5069 50.8438 62.9009 50.8098 62.2983 50.7422C59.6406 50.4378 57.1053 49.4799 54.929 47.958C52.7527 46.4361 51.0066 44.3999 49.8537 42.0396C49.0811 40.4593 48.5914 38.7613 48.406 37.0193C48.406 37.0129 48.406 37.0064 48.406 37L48.3106 37.0107L48.1834 37V37.0279C45.4891 37.3426 42.9691 38.4933 40.993 40.3109C39.017 42.1286 37.6891 44.5175 37.2042 47.1271C36.7194 49.7367 37.1031 52.4295 38.299 54.8102C39.4949 57.191 41.4401 59.1343 43.8491 60.355C49.1907 61.5505 54.7816 61.0761 59.8326 58.9987C64.8836 56.9214 69.1396 53.346 72 48.7772C69.9864 49.9168 67.7386 50.6041 65.4196 50.7894C64.9919 50.8226 64.5598 50.8409 64.1233 50.8409" fill="#1E4559"/>
</g>
<defs>
<clipPath id="clip0_292_767">
<rect width="100" height="70" fill="white"/>
</clipPath>
<clipPath id="clip1_292_767">
<rect width="100" height="69.7157" fill="white"/>
</clipPath>
</defs>
</svg>
