<svg width="100" height="70" viewBox="0 0 100 70" fill="none" xmlns="http://www.w3.org/2000/svg">
<g clip-path="url(#clip0_292_789)">
<g clip-path="url(#clip1_292_789)">
<path fill-rule="evenodd" clip-rule="evenodd" d="M25.5628 69.7157C25.1511 69.69 24.7523 69.69 24.3406 69.6514C23.5301 69.5742 22.7197 69.4198 21.9349 69.1882C20.7642 68.8409 19.632 68.3263 18.6028 67.6701C17.5736 67.014 16.6345 66.2035 15.8369 65.2772C15.1293 64.4539 15.0006 64.1966 14.4217 63.2832L1.7239 41.2839C1.22216 40.3191 1.06778 40.0875 0.707559 39.0583C0.308743 37.9004 0.0771719 36.6911 0.0128466 35.4689C-0.0514786 34.2468 0.0771719 33.0117 0.360203 31.8281C0.553179 31.0305 0.823344 30.2586 1.15784 29.5124C1.32508 29.1393 1.53092 28.792 1.7239 28.4189L14.4217 6.43252C15.0135 5.5191 15.1293 5.2618 15.8369 4.43844C16.6345 3.51216 17.5736 2.70166 18.6028 2.04554C19.632 1.38942 20.7642 0.874823 21.9349 0.527467C22.7197 0.295896 23.5173 0.141516 24.3406 0.0643252C24.7523 0.0257301 25.1511 0.0257301 25.5628 0H74.4371C75.5178 0.0514602 75.8008 0.0257301 76.8686 0.231571C78.0779 0.463142 79.2358 0.861958 80.3293 1.42802C81.4229 1.99408 82.4263 2.70166 83.314 3.55075C83.9058 4.11681 84.4461 4.73434 84.9093 5.40332C85.1409 5.73781 85.3467 6.08517 85.5654 6.43252L98.2632 28.4189C98.4562 28.7791 98.6492 29.1393 98.8293 29.5124C99.1638 30.2586 99.4339 31.0305 99.6269 31.8281C99.9099 33.0246 100.039 34.2468 99.9743 35.4689C99.9099 36.6911 99.6784 37.9133 99.2795 39.0583C98.9193 40.0875 98.7649 40.3191 98.2632 41.2839L85.5654 63.2703C84.9736 64.1837 84.8578 64.441 84.1502 65.2644C83.3526 66.1907 82.4135 67.0012 81.3843 67.6573C80.3551 68.3134 79.2229 68.828 78.0522 69.1754C77.2674 69.4069 76.4698 69.5613 75.6465 69.6385C75.2348 69.6771 74.836 69.6771 74.4243 69.7028C58.15 69.7157 41.85 69.7157 25.5628 69.7157Z" fill="#FFCC22"/>
</g>
<path d="M10.9881 40.352H28.3161C30.7101 40.352 31.4796 39.611 31.4796 38.528C31.4796 37.217 30.3111 36.5615 27.5181 36.3335L18.0846 35.5925C13.6956 35.2505 11.0736 33.683 11.0736 30.092C11.0736 25.9595 14.5506 24.506 18.5691 24.506H34.4151V28.154H18.1986C16.2891 28.154 15.2061 28.667 15.2061 29.978C15.2061 31.061 15.9471 31.631 19.1391 31.8875L28.1166 32.6C32.7051 32.9705 35.6691 34.424 35.6691 38.357C35.6691 41.663 33.5601 44 28.0596 44H10.9881V40.352ZM60.3258 24.506H64.8003L57.0483 40.1525C55.8513 42.575 54.2838 44.285 50.9493 44.285C47.6148 44.285 46.0473 42.575 44.8503 40.1525L37.0983 24.506H41.5728L48.9258 39.098C49.3533 39.9245 49.8948 40.409 50.9493 40.409C52.0038 40.409 52.5453 39.9245 52.9728 39.098L60.3258 24.506ZM89.9293 40.352V44H66.8158V40.4375C66.8158 35.678 73.5988 34.3385 79.0138 33.1985C82.6333 32.429 85.5403 31.802 85.5403 29.8925C85.5403 29.123 85.0843 28.211 83.1463 28.211H67.4998V24.506H83.0893C87.1363 24.506 89.9008 26.444 89.9008 29.75C89.9008 34.082 85.1698 35.621 80.4388 36.6755C75.9358 37.673 71.4613 38.243 71.4613 40.124V40.352H89.9293Z" fill="#594B1E"/>
</g>
<defs>
<clipPath id="clip0_292_789">
<rect width="100" height="70" fill="white"/>
</clipPath>
<clipPath id="clip1_292_789">
<rect width="100" height="69.7157" fill="white"/>
</clipPath>
</defs>
</svg>
