<svg width="100" height="70" viewBox="0 0 100 70" fill="none" xmlns="http://www.w3.org/2000/svg">
<g clip-path="url(#clip0_292_748)">
<g clip-path="url(#clip1_292_748)">
<path fill-rule="evenodd" clip-rule="evenodd" d="M25.5628 69.7157C25.1511 69.69 24.7523 69.69 24.3406 69.6514C23.5301 69.5742 22.7197 69.4198 21.9349 69.1882C20.7642 68.8409 19.632 68.3263 18.6028 67.6701C17.5736 67.014 16.6345 66.2035 15.8369 65.2772C15.1293 64.4539 15.0006 64.1966 14.4217 63.2832L1.7239 41.2839C1.22216 40.3191 1.06778 40.0875 0.707559 39.0583C0.308743 37.9004 0.0771719 36.6911 0.0128466 35.4689C-0.0514786 34.2468 0.0771719 33.0117 0.360203 31.8281C0.553179 31.0305 0.823344 30.2586 1.15784 29.5124C1.32508 29.1393 1.53092 28.792 1.7239 28.4189L14.4217 6.43252C15.0135 5.5191 15.1293 5.2618 15.8369 4.43844C16.6345 3.51216 17.5736 2.70166 18.6028 2.04554C19.632 1.38942 20.7642 0.874823 21.9349 0.527467C22.7197 0.295896 23.5173 0.141516 24.3406 0.0643252C24.7523 0.0257301 25.1511 0.0257301 25.5628 0H74.4371C75.5178 0.0514602 75.8008 0.0257301 76.8686 0.231571C78.0779 0.463142 79.2358 0.861958 80.3293 1.42802C81.4229 1.99408 82.4263 2.70166 83.314 3.55075C83.9058 4.11681 84.4461 4.73434 84.9093 5.40332C85.1409 5.73781 85.3467 6.08517 85.5654 6.43252L98.2632 28.4189C98.4562 28.7791 98.6492 29.1393 98.8293 29.5124C99.1638 30.2586 99.4339 31.0305 99.6269 31.8281C99.9099 33.0246 100.039 34.2468 99.9743 35.4689C99.9099 36.6911 99.6784 37.9133 99.2795 39.0583C98.9193 40.0875 98.7649 40.3191 98.2632 41.2839L85.5654 63.2703C84.9736 64.1837 84.8578 64.441 84.1502 65.2644C83.3526 66.1907 82.4135 67.0012 81.3843 67.6573C80.3551 68.3134 79.2229 68.828 78.0522 69.1754C77.2674 69.4069 76.4698 69.5613 75.6465 69.6385C75.2348 69.6771 74.836 69.6771 74.4243 69.7028C58.15 69.7157 41.85 69.7157 25.5628 69.7157Z" fill="#8C66FF"/>
</g>
<path d="M17.8069 40.352H35.1349C37.5289 40.352 38.2984 39.611 38.2984 38.528C38.2984 37.217 37.1299 36.5615 34.3369 36.3335L24.9034 35.5925C20.5144 35.2505 17.8924 33.683 17.8924 30.092C17.8924 25.9595 21.3694 24.506 25.3879 24.506H41.2339V28.154H25.0174C23.1079 28.154 22.0249 28.667 22.0249 29.978C22.0249 31.061 22.7659 31.631 25.9579 31.8875L34.9354 32.6C39.5239 32.9705 42.4879 34.424 42.4879 38.357C42.4879 41.663 40.3789 44 34.8784 44H17.8069V40.352ZM79.8808 24.506H84.1843L77.1448 40.2665C75.6343 43.6295 73.0978 44.285 71.3023 44.285C68.9653 44.285 66.8278 43.1735 65.5738 40.6085L64.1203 37.6445L62.6953 40.6085C61.4413 43.1735 59.2753 44.285 56.9668 44.285C55.1713 44.285 52.6348 43.6295 51.1243 40.2665L44.0848 24.506H48.3883L54.7723 38.7845C55.3708 40.0955 55.9693 40.4375 56.9383 40.4375C57.9928 40.4375 58.6198 40.01 59.1328 38.9555L61.9543 33.17L57.7648 24.506H61.8688L64.1203 29.18L66.4003 24.506H70.5043L66.3148 33.17L69.1363 38.9555C69.6493 40.01 70.2763 40.4375 71.3308 40.4375C72.2998 40.4375 72.8983 40.0955 73.4968 38.7845L79.8808 24.506Z" fill="#2D1E59"/>
</g>
<defs>
<clipPath id="clip0_292_748">
<rect width="100" height="70" fill="white"/>
</clipPath>
<clipPath id="clip1_292_748">
<rect width="100" height="69.7157" fill="white"/>
</clipPath>
</defs>
</svg>
