<svg width="100" height="70" viewBox="0 0 100 70" fill="none" xmlns="http://www.w3.org/2000/svg">
<g clip-path="url(#clip0_292_788)">
<g clip-path="url(#clip1_292_788)">
<path fill-rule="evenodd" clip-rule="evenodd" d="M25.5628 69.7157C25.1511 69.69 24.7523 69.69 24.3406 69.6514C23.5301 69.5742 22.7197 69.4198 21.9349 69.1882C20.7642 68.8409 19.632 68.3263 18.6028 67.6701C17.5736 67.014 16.6345 66.2035 15.8369 65.2772C15.1293 64.4539 15.0006 64.1966 14.4217 63.2832L1.7239 41.2839C1.22216 40.3191 1.06778 40.0875 0.707559 39.0583C0.308743 37.9004 0.0771719 36.6911 0.0128466 35.4689C-0.0514786 34.2468 0.0771719 33.0117 0.360203 31.8281C0.553179 31.0305 0.823344 30.2586 1.15784 29.5124C1.32508 29.1393 1.53092 28.792 1.7239 28.4189L14.4217 6.43252C15.0135 5.5191 15.1293 5.2618 15.8369 4.43844C16.6345 3.51216 17.5736 2.70166 18.6028 2.04554C19.632 1.38942 20.7642 0.874823 21.9349 0.527467C22.7197 0.295896 23.5173 0.141516 24.3406 0.0643252C24.7523 0.0257301 25.1511 0.0257301 25.5628 0H74.4371C75.5178 0.0514602 75.8008 0.0257301 76.8686 0.231571C78.0779 0.463142 79.2358 0.861958 80.3293 1.42802C81.4229 1.99408 82.4263 2.70166 83.314 3.55075C83.9058 4.11681 84.4461 4.73434 84.9093 5.40332C85.1409 5.73781 85.3467 6.08517 85.5654 6.43252L98.2632 28.4189C98.4562 28.7791 98.6492 29.1393 98.8293 29.5124C99.1638 30.2586 99.4339 31.0305 99.6269 31.8281C99.9099 33.0246 100.039 34.2468 99.9743 35.4689C99.9099 36.6911 99.6784 37.9133 99.2795 39.0583C98.9193 40.0875 98.7649 40.3191 98.2632 41.2839L85.5654 63.2703C84.9736 64.1837 84.8578 64.441 84.1502 65.2644C83.3526 66.1907 82.4135 67.0012 81.3843 67.6573C80.3551 68.3134 79.2229 68.828 78.0522 69.1754C77.2674 69.4069 76.4698 69.5613 75.6465 69.6385C75.2348 69.6771 74.836 69.6771 74.4243 69.7028C58.15 69.7157 41.85 69.7157 25.5628 69.7157Z" fill="#FFCC22"/>
</g>
<path d="M57.7543 36.1805C57.1403 35.7666 56.4569 35.4656 55.7364 35.2915C55.048 35.1224 54.3362 35.0683 53.63 35.1313C53.3244 34.9664 53.0007 34.8374 52.6652 34.7469V32.8968C52.6652 31.3329 52.0416 29.833 50.9314 28.7271C49.8213 27.6213 48.3157 27 46.7457 27C45.1758 27 43.6702 27.6213 42.56 28.7271C41.4499 29.833 40.8263 31.3329 40.8263 32.8968V37.7548C40.5299 37.7262 40.2267 37.7113 39.9189 37.7113C38.2157 37.7113 36.7858 38.312 35.6694 39.495C34.553 40.678 34.0006 42.25 34.0006 44.1882C33.9907 44.7545 34.1063 45.3161 34.3392 45.8328C34.572 46.3495 34.9164 46.8088 35.3478 47.1778C35.8623 47.6434 36.726 48.1755 37.9814 48.8024C38.6073 49.1342 39.0725 49.3871 39.3596 49.553C40.0774 50.0348 40.7573 50.5703 41.3936 51.1548C41.7971 51.5121 42.1806 51.8914 42.5421 52.2909C42.6433 52.3909 42.7178 52.5143 42.7592 52.6501C42.4143 53.1164 42.2334 53.6831 42.2447 54.2622V58.3685C42.2324 59.0437 42.4789 59.6983 42.9338 60.1991C43.1486 60.4518 43.4165 60.6545 43.7186 60.7929C44.0206 60.9312 44.3494 61.0019 44.6818 61H59.4978C59.8304 61.002 60.1594 60.9314 60.4617 60.793C60.7639 60.6546 61.032 60.4519 61.247 60.1991C61.7015 59.6981 61.9479 59.0437 61.9361 58.3685V54.2599C61.9473 53.6803 61.766 53.1132 61.4204 52.6467C61.4374 52.3094 61.5092 51.9772 61.6329 51.6628L62.322 50.2818C62.7439 49.4702 63.1185 48.6352 63.4441 47.7807L63.451 47.7624C63.8017 46.7114 63.9869 45.6126 64 44.5051V43.1619C64 41.0499 63.3936 39.352 62.1968 38.114C61.0368 36.9116 59.5426 36.2674 57.7543 36.1805ZM58.2137 56.3171C58.2126 56.5397 58.1341 56.7551 57.9916 56.9266C57.8491 57.0981 57.6513 57.2151 57.4319 57.2577C57.2126 57.3004 56.9852 57.266 56.7884 57.1605C56.5916 57.055 56.4375 56.8848 56.3525 56.6789C56.2674 56.4731 56.2565 56.2442 56.3217 56.0312C56.3869 55.8183 56.5241 55.6344 56.71 55.5108C56.896 55.3873 57.1191 55.3317 57.3415 55.3535C57.564 55.3753 57.7719 55.4732 57.9301 55.6306C58.0226 55.7184 58.0958 55.8245 58.1448 55.9422C58.1939 56.0598 58.2177 56.1863 58.2149 56.3136L58.2137 56.3171ZM45.0655 43.6699V32.8968C45.0769 32.4606 45.2589 32.0461 45.5727 31.7416C45.8864 31.4371 46.3071 31.2667 46.7452 31.2667C47.1832 31.2667 47.6039 31.4371 47.9177 31.7416C48.2314 32.0461 48.4134 32.4606 48.4249 32.8968V39.9561L49.3678 39.1746C49.7755 38.8314 50.2866 38.6792 50.916 38.6975C51.2188 38.7045 51.5168 38.7746 51.7908 38.9032C52.0648 39.0319 52.3087 39.2163 52.5067 39.4446L52.8168 39.7776L53.2131 39.5488C53.4424 39.4172 53.6966 39.3342 53.9597 39.3051C54.2227 39.2759 54.489 39.3013 54.7418 39.3794C55.3034 39.5327 55.6858 39.7925 55.9098 40.1746L56.1108 40.5178L56.5036 40.4515C57.5717 40.2673 58.3929 40.4 58.9419 40.8451C59.4909 41.2901 59.7597 42.0624 59.7597 43.1596V44.5051C59.7491 45.1812 59.6304 45.8513 59.4082 46.4902C59.2417 46.9032 58.9488 47.5519 58.533 48.4192C58.146 49.148 57.86 49.7177 57.6843 50.1113L57.6716 50.1422C57.4855 50.6238 57.3451 51.1218 57.2524 51.6296H46.9031C46.7301 50.9442 46.4174 50.3015 45.9843 49.7418L45.9693 49.7223C45.4378 49.1023 44.8587 48.5243 44.2374 47.9935C43.417 47.2319 42.5277 46.5475 41.5808 45.949C41.0023 45.6098 40.4061 45.3012 39.7949 45.0245C39.1804 44.6973 38.7612 44.4696 38.5568 44.3461C38.4436 44.2753 38.3388 44.192 38.2444 44.0978C38.2559 43.4457 38.396 42.9136 38.6567 42.5246C38.9358 42.1242 39.3378 41.9377 39.9201 41.9377C40.4361 41.9387 40.9456 42.0519 41.4132 42.2695L41.4522 42.2855C41.8858 42.4657 42.3024 42.6839 42.6972 42.9377C43.4506 43.4365 44.0191 43.6699 44.4877 43.6699H45.0655Z" fill="#594B1E"/>
<path d="M68.8728 12H31.1272C26.0948 12 22 15.7907 22 20.4513V42.5426C22 47.2031 26.0948 50.9949 31.1272 50.9949H32.4505C32.7578 51.0156 33.0661 50.9729 33.3562 50.8695C33.6463 50.7662 33.9121 50.6044 34.1371 50.3941C34.3621 50.1838 34.5414 49.9296 34.664 49.6472C34.7867 49.3648 34.8499 49.0602 34.8499 48.7523C34.8499 48.4445 34.7867 48.1399 34.664 47.8575C34.5414 47.5751 34.3621 47.3208 34.1371 47.1106C33.9121 46.9003 33.6463 46.7385 33.3562 46.6351C33.0661 46.5317 32.7578 46.4891 32.4505 46.5097H31.1272C28.7268 46.5097 26.7739 44.7307 26.7739 42.5426V20.4513C26.7739 18.2643 28.7268 16.4852 31.1272 16.4852H68.8728C71.2732 16.4852 73.2262 18.2643 73.2262 20.4513V42.5426C73.2262 44.7307 71.2732 46.5097 68.8728 46.5097H67.5495C67.2422 46.4891 66.9339 46.5317 66.6438 46.6351C66.3537 46.7385 66.0879 46.9003 65.8629 47.1106C65.638 47.3208 65.4586 47.5751 65.336 47.8575C65.2134 48.1399 65.1501 48.4445 65.1501 48.7523C65.1501 49.0602 65.2134 49.3648 65.336 49.6472C65.4586 49.9296 65.638 50.1838 65.8629 50.3941C66.0879 50.6044 66.3537 50.7662 66.6438 50.8695C66.9339 50.9729 67.2422 51.0156 67.5495 50.9949H68.8728C73.9052 50.9949 78 47.2031 78 42.5426V20.4513C77.9955 15.7907 73.9052 12 68.8728 12Z" fill="#594B1E"/>
</g>
<defs>
<clipPath id="clip0_292_788">
<rect width="100" height="70" fill="white"/>
</clipPath>
<clipPath id="clip1_292_788">
<rect width="100" height="69.7157" fill="white"/>
</clipPath>
</defs>
</svg>
