<svg width="100" height="70" viewBox="0 0 100 70" fill="none" xmlns="http://www.w3.org/2000/svg">
<g clip-path="url(#clip0_292_741)">
<g clip-path="url(#clip1_292_741)">
<path fill-rule="evenodd" clip-rule="evenodd" d="M25.5628 69.7157C25.1511 69.69 24.7523 69.69 24.3406 69.6514C23.5301 69.5742 22.7197 69.4198 21.9349 69.1882C20.7642 68.8409 19.632 68.3263 18.6028 67.6701C17.5736 67.014 16.6345 66.2035 15.8369 65.2772C15.1293 64.4539 15.0006 64.1966 14.4217 63.2832L1.7239 41.2839C1.22216 40.3191 1.06778 40.0875 0.707559 39.0583C0.308743 37.9004 0.0771719 36.6911 0.0128466 35.4689C-0.0514786 34.2468 0.0771719 33.0117 0.360203 31.8281C0.553179 31.0305 0.823344 30.2586 1.15784 29.5124C1.32508 29.1393 1.53092 28.792 1.7239 28.4189L14.4217 6.43252C15.0135 5.5191 15.1293 5.2618 15.8369 4.43844C16.6345 3.51216 17.5736 2.70166 18.6028 2.04554C19.632 1.38942 20.7642 0.874823 21.9349 0.527467C22.7197 0.295896 23.5173 0.141516 24.3406 0.0643252C24.7523 0.0257301 25.1511 0.0257301 25.5628 0H74.4371C75.5178 0.0514602 75.8008 0.0257301 76.8686 0.231571C78.0779 0.463142 79.2358 0.861958 80.3293 1.42802C81.4229 1.99408 82.4263 2.70166 83.314 3.55075C83.9058 4.11681 84.4461 4.73434 84.9093 5.40332C85.1409 5.73781 85.3467 6.08517 85.5654 6.43252L98.2632 28.4189C98.4562 28.7791 98.6492 29.1393 98.8293 29.5124C99.1638 30.2586 99.4339 31.0305 99.6269 31.8281C99.9099 33.0246 100.039 34.2468 99.9743 35.4689C99.9099 36.6911 99.6784 37.9133 99.2795 39.0583C98.9193 40.0875 98.7649 40.3191 98.2632 41.2839L85.5654 63.2703C84.9736 64.1837 84.8578 64.441 84.1502 65.2644C83.3526 66.1907 82.4135 67.0012 81.3843 67.6573C80.3551 68.3134 79.2229 68.828 78.0522 69.1754C77.2674 69.4069 76.4698 69.5613 75.6465 69.6385C75.2348 69.6771 74.836 69.6771 74.4243 69.7028C58.15 69.7157 41.85 69.7157 25.5628 69.7157Z" fill="#8C66FF"/>
</g>
<path d="M80 37.5005C79.996 38.1622 79.7315 38.7956 79.2636 39.2634C78.7958 39.7313 78.1624 39.9958 77.5007 39.9998H71.9138C70.9686 44.1235 68.8805 47.8974 65.889 50.889C62.8974 53.8805 59.1235 55.9686 54.9998 56.9138V62.4995C54.9962 63.1613 54.7317 63.795 54.2638 64.2632C53.796 64.7313 53.1624 64.996 52.5005 65H47.4995C46.8376 64.996 46.204 64.7313 45.7362 64.2632C45.2683 63.795 45.0038 63.1613 45.0002 62.4995V56.9138C40.8765 55.9688 37.1027 53.8807 34.1113 50.8891C31.1199 47.8976 29.0322 44.1235 28.0874 39.9998H22.5005C21.8387 39.9962 21.205 39.7317 20.7368 39.2638C20.2687 38.796 20.004 38.1624 20 37.5005V32.4995C20.004 31.8376 20.2687 31.204 20.7368 30.7362C21.205 30.2683 21.8387 30.0038 22.5005 30.0002H28.0874C29.0317 25.8764 31.1193 22.1022 34.1108 19.1108C37.1022 16.1193 40.8764 14.0317 45.0002 13.0874V7.50052C45.0038 6.83868 45.2683 6.20496 45.7362 5.73684C46.204 5.26872 46.8376 5.00396 47.4995 5H52.5005C53.1624 5.00396 53.796 5.26872 54.2638 5.73684C54.7317 6.20496 54.9962 6.83868 54.9998 7.50052V13.0874C59.1239 14.0315 62.8983 16.119 65.8899 19.1105C68.8816 22.102 70.9695 25.8762 71.9138 30.0002H77.5007C78.1624 30.0042 78.7958 30.2688 79.2636 30.7366C79.7315 31.2044 79.996 31.8379 80 32.4995V37.5005ZM62.5001 39.9998C61.8383 39.9962 61.2045 39.7317 60.7364 39.2638C60.2683 38.796 60.0035 38.1624 59.9996 37.5005V32.4995C60.0035 31.8376 60.2683 31.204 60.7364 30.7362C61.2045 30.2683 61.8383 30.0038 62.5001 30.0002H66.7594C65.9235 27.2213 64.4119 24.6929 62.3597 22.6412C60.3076 20.5895 57.7789 19.0784 54.9998 18.2431V22.4999C54.9962 23.1617 54.7317 23.7955 54.2638 24.2636C53.796 24.7317 53.1624 24.9965 52.5005 25.0004H47.4995C46.8376 24.9965 46.204 24.7317 45.7362 24.2636C45.2683 23.7955 45.0038 23.1617 45.0002 22.4999V18.2431C42.2211 19.0784 39.6924 20.5895 37.6403 22.6412C35.5881 24.6929 34.0765 27.2213 33.2406 30.0002H37.4999C38.1617 30.0038 38.7955 30.2683 39.2636 30.7362C39.7317 31.204 39.9965 31.8376 40.0004 32.4995V37.5005C39.9965 38.1624 39.7317 38.796 39.2636 39.2638C38.7955 39.7317 38.1617 39.9962 37.4999 39.9998H33.2406C34.0765 42.7787 35.5881 45.3071 37.6403 47.3588C39.6924 49.4105 42.2211 50.9216 45.0002 51.7569V47.5001C45.0038 46.8383 45.2683 46.2045 45.7362 45.7364C46.204 45.2683 46.8376 45.0035 47.4995 44.9996H52.5005C53.1624 45.0035 53.796 45.2683 54.2638 45.7364C54.7317 46.2045 54.9962 46.8383 54.9998 47.5001V51.7569C57.7789 50.9216 60.3076 49.4105 62.3597 47.3588C64.4119 45.3071 65.9235 42.7787 66.7594 39.9998H62.5001Z" fill="#2D1E59"/>
</g>
<defs>
<clipPath id="clip0_292_741">
<rect width="100" height="70" fill="white"/>
</clipPath>
<clipPath id="clip1_292_741">
<rect width="100" height="69.7157" fill="white"/>
</clipPath>
</defs>
</svg>
