<svg width="100" height="70" viewBox="0 0 100 70" fill="none" xmlns="http://www.w3.org/2000/svg">
<g clip-path="url(#clip0_292_769)">
<g clip-path="url(#clip1_292_769)">
<path fill-rule="evenodd" clip-rule="evenodd" d="M25.5628 69.7157C25.1511 69.69 24.7523 69.69 24.3406 69.6514C23.5301 69.5742 22.7197 69.4198 21.9349 69.1882C20.7642 68.8409 19.632 68.3263 18.6028 67.6701C17.5736 67.014 16.6345 66.2035 15.8369 65.2772C15.1293 64.4539 15.0006 64.1966 14.4217 63.2832L1.7239 41.2839C1.22216 40.3191 1.06778 40.0875 0.707559 39.0583C0.308743 37.9004 0.0771719 36.6911 0.0128466 35.4689C-0.0514786 34.2468 0.0771719 33.0117 0.360203 31.8281C0.553179 31.0305 0.823344 30.2586 1.15784 29.5124C1.32508 29.1393 1.53092 28.792 1.7239 28.4189L14.4217 6.43252C15.0135 5.5191 15.1293 5.2618 15.8369 4.43844C16.6345 3.51216 17.5736 2.70166 18.6028 2.04554C19.632 1.38942 20.7642 0.874823 21.9349 0.527467C22.7197 0.295896 23.5173 0.141516 24.3406 0.0643252C24.7523 0.0257301 25.1511 0.0257301 25.5628 0H74.4371C75.5178 0.0514602 75.8008 0.0257301 76.8686 0.231571C78.0779 0.463142 79.2358 0.861958 80.3293 1.42802C81.4229 1.99408 82.4263 2.70166 83.314 3.55075C83.9058 4.11681 84.4461 4.73434 84.9093 5.40332C85.1409 5.73781 85.3467 6.08517 85.5654 6.43252L98.2632 28.4189C98.4562 28.7791 98.6492 29.1393 98.8293 29.5124C99.1638 30.2586 99.4339 31.0305 99.6269 31.8281C99.9099 33.0246 100.039 34.2468 99.9743 35.4689C99.9099 36.6911 99.6784 37.9133 99.2795 39.0583C98.9193 40.0875 98.7649 40.3191 98.2632 41.2839L85.5654 63.2703C84.9736 64.1837 84.8578 64.441 84.1502 65.2644C83.3526 66.1907 82.4135 67.0012 81.3843 67.6573C80.3551 68.3134 79.2229 68.828 78.0522 69.1754C77.2674 69.4069 76.4698 69.5613 75.6465 69.6385C75.2348 69.6771 74.836 69.6771 74.4243 69.7028C58.15 69.7157 41.85 69.7157 25.5628 69.7157Z" fill="#FF66AA"/>
</g>
<path d="M72.1619 34.9914L77.1915 30.0689C78.6908 28.6496 77.9917 26.1271 76.0251 25.6568L69.1728 23.9079L71.1044 17.125C71.6503 15.174 69.8106 13.3337 67.8603 13.8798L61.0797 15.8121L59.3314 8.95743C58.8687 7.0216 56.3181 6.31361 54.9208 7.79061L50.0001 12.8593L45.0794 7.79072C43.698 6.33045 41.1367 6.9995 40.6688 8.95754L38.9206 15.8122L32.1398 13.8799C30.1889 13.3336 28.3499 15.1745 28.8957 17.1251L30.8273 23.908L23.975 25.6569C22.0075 26.1274 21.3098 28.6502 22.8085 30.0689L27.8381 34.9914L22.8085 39.9137C21.3092 41.333 22.0083 43.8555 23.9749 44.3258L30.8272 46.0747L28.8956 52.8576C28.3497 54.8086 30.1894 56.6489 32.1397 56.1029L38.9203 54.1705L40.6686 61.0252C41.1541 63.0568 43.6979 63.6521 45.0792 62.192L50.0001 57.1606L54.9207 62.192C56.2879 63.6672 58.8568 63.0108 59.3313 61.0252L61.0795 54.1705L67.8602 56.1029C69.811 56.6491 71.6501 54.8082 71.1043 52.8576L69.1727 46.0747L76.025 44.3258C77.9923 43.8552 78.6901 41.3325 77.1914 39.9137L72.1619 34.9914Z" fill="#591E39"/>
</g>
<defs>
<clipPath id="clip0_292_769">
<rect width="100" height="70" fill="white"/>
</clipPath>
<clipPath id="clip1_292_769">
<rect width="100" height="69.7157" fill="white"/>
</clipPath>
</defs>
</svg>
