<svg width="100" height="70" viewBox="0 15 100 70" fill="none" xmlns="http://www.w3.org/2000/svg">
<g clip-path="url(#clip0_18775_1654)">
<g clip-path="url(#clip1_18775_1654)">
<path fill-rule="evenodd" clip-rule="evenodd" d="M25.5628 84.7157C25.1511 84.69 24.7523 84.69 24.3406 84.6514C23.5301 84.5742 22.7197 84.4198 21.9349 84.1882C20.7642 83.8409 19.632 83.3263 18.6028 82.6701C17.5736 82.014 16.6345 81.2035 15.8369 80.2772C15.1293 79.4539 15.0006 79.1966 14.4217 78.2832L1.7239 56.2839C1.22216 55.3191 1.06778 55.0875 0.707559 54.0583C0.308743 52.9004 0.0771719 51.6911 0.0128466 50.4689C-0.0514786 49.2468 0.0771719 48.0117 0.360203 46.8281C0.553179 46.0305 0.823344 45.2586 1.15784 44.5124C1.32508 44.1393 1.53092 43.792 1.7239 43.4189L14.4217 21.4325C15.0135 20.5191 15.1293 20.2618 15.8369 19.4384C16.6345 18.5122 17.5736 17.7017 18.6028 17.0455C19.632 16.3894 20.7642 15.8748 21.9349 15.5275C22.7197 15.2959 23.5173 15.1415 24.3406 15.0643C24.7523 15.0257 25.1511 15.0257 25.5628 15H74.4371C75.5178 15.0515 75.8008 15.0257 76.8686 15.2316C78.0779 15.4631 79.2358 15.862 80.3293 16.428C81.4229 16.9941 82.4263 17.7017 83.314 18.5508C83.9058 19.1168 84.4461 19.7343 84.9093 20.4033C85.1409 20.7378 85.3467 21.0852 85.5654 21.4325L98.2632 43.4189C98.4562 43.7791 98.6492 44.1393 98.8293 44.5124C99.1638 45.2586 99.4339 46.0305 99.6269 46.8281C99.9099 48.0246 100.039 49.2468 99.9743 50.4689C99.9099 51.6911 99.6784 52.9133 99.2795 54.0583C98.9193 55.0875 98.7649 55.3191 98.2632 56.2839L85.5654 78.2703C84.9736 79.1837 84.8578 79.441 84.1502 80.2644C83.3526 81.1907 82.4135 82.0012 81.3843 82.6573C80.3551 83.3134 79.2229 83.828 78.0522 84.1754C77.2674 84.4069 76.4698 84.5613 75.6465 84.6385C75.2348 84.6771 74.836 84.6771 74.4243 84.7028C58.15 84.7157 41.85 84.7157 25.5628 84.7157Z" fill="#66CCFF"/>
</g>
<path d="M67.8077 33.5258L62.1611 35.9703C60.5085 34.5931 58.6149 33.4913 56.5491 32.7339L55.7916 26.5709C55.7493 26.2061 55.5937 25.8637 55.3466 25.5919C55.0996 25.3202 54.7735 25.1327 54.4144 25.056C52.9683 24.815 51.5223 24.6772 50.0074 24.6772C48.4924 24.6772 47.0464 24.815 45.6003 25.056C44.8429 25.1937 44.292 25.8134 44.2231 26.5709L43.5001 32.7339C41.4343 33.4913 39.5406 34.5931 37.888 35.9703L32.207 33.5258C31.8711 33.3712 31.4938 33.3313 31.133 33.4122C30.7722 33.4931 30.4479 33.6902 30.2101 33.9733C28.3165 36.2113 26.8015 38.7935 25.7686 41.5824C25.4932 42.3054 25.7686 43.0973 26.3884 43.5793L31.3807 47.2978C30.9674 49.424 30.9674 51.6099 31.3807 53.7362L26.3884 57.4546C25.7686 57.9022 25.5276 58.7285 25.7686 59.4516C26.8015 62.2404 28.3165 64.7882 30.1757 67.0262C30.6577 67.6115 31.484 67.7836 32.1726 67.4737L37.8536 65.0292C39.5062 66.4064 41.3999 67.5082 43.4657 68.2656L44.1887 74.4286C44.292 75.1861 44.8429 75.8058 45.5659 75.9435C47.0464 76.1845 48.4924 76.3223 50.0074 76.3223C51.5223 76.3223 52.9683 76.1845 54.4144 75.9435C55.1719 75.8058 55.7227 75.1861 55.7916 74.4286L56.5146 68.2656C58.5804 67.5082 60.4741 66.4064 62.1267 65.0292L67.8077 67.4737C68.4963 67.7836 69.3226 67.6115 69.8046 67.0262C71.6638 64.7882 73.1788 62.2404 74.2117 59.4516C74.4871 58.7285 74.2117 57.9366 73.5919 57.489L68.5996 53.7706C68.8406 52.6688 68.9439 51.6015 68.9439 50.4998C68.9439 49.398 68.8406 48.3307 68.634 47.2633L73.6263 43.5449C74.2461 43.0973 74.4871 42.271 74.2461 41.5479C73.2132 38.7591 71.6983 36.2113 69.839 33.9733C69.5923 33.692 69.2622 33.4969 68.8968 33.4164C68.5314 33.3359 68.1498 33.3742 67.8077 33.5258Z" stroke="#2E576B" stroke-width="5"/>
<path d="M50.0073 61.6779C56.1808 61.6779 61.1855 56.6733 61.1855 50.4997C61.1855 44.3262 56.1808 39.3215 50.0073 39.3215C43.8337 39.3215 38.8291 44.3262 38.8291 50.4997C38.8291 56.6733 43.8337 61.6779 50.0073 61.6779Z" stroke="#2E576B" stroke-width="5"/>
</g>
<defs>
<clipPath id="clip0_18775_1654">
<rect width="100" height="100" fill="white"/>
</clipPath>
<clipPath id="clip1_18775_1654">
<rect width="100" height="100" fill="white"/>
</clipPath>
</defs>
</svg>
