<svg width="100" height="70" viewBox="0 15 100 70" fill="none" xmlns="http://www.w3.org/2000/svg">
<g clip-path="url(#clip0_18775_1699)">
<g clip-path="url(#clip1_18775_1699)">
<path fill-rule="evenodd" clip-rule="evenodd" d="M25.5628 84.7157C25.1511 84.69 24.7523 84.69 24.3406 84.6514C23.5301 84.5742 22.7197 84.4198 21.9349 84.1882C20.7642 83.8409 19.632 83.3263 18.6028 82.6701C17.5736 82.014 16.6345 81.2035 15.8369 80.2772C15.1293 79.4539 15.0006 79.1966 14.4217 78.2832L1.7239 56.2839C1.22216 55.3191 1.06778 55.0875 0.707559 54.0583C0.308743 52.9004 0.0771719 51.6911 0.0128466 50.4689C-0.0514786 49.2468 0.0771719 48.0117 0.360203 46.8281C0.553179 46.0305 0.823344 45.2586 1.15784 44.5124C1.32508 44.1393 1.53092 43.792 1.7239 43.4189L14.4217 21.4325C15.0135 20.5191 15.1293 20.2618 15.8369 19.4384C16.6345 18.5122 17.5736 17.7017 18.6028 17.0455C19.632 16.3894 20.7642 15.8748 21.9349 15.5275C22.7197 15.2959 23.5173 15.1415 24.3406 15.0643C24.7523 15.0257 25.1511 15.0257 25.5628 15H74.4371C75.5178 15.0515 75.8008 15.0257 76.8686 15.2316C78.0779 15.4631 79.2358 15.862 80.3293 16.428C81.4229 16.9941 82.4263 17.7017 83.314 18.5508C83.9058 19.1168 84.4461 19.7343 84.9093 20.4033C85.1409 20.7378 85.3467 21.0852 85.5654 21.4325L98.2632 43.4189C98.4562 43.7791 98.6492 44.1393 98.8293 44.5124C99.1638 45.2586 99.4339 46.0305 99.6269 46.8281C99.9099 48.0246 100.039 49.2468 99.9743 50.4689C99.9099 51.6911 99.6784 52.9133 99.2795 54.0583C98.9193 55.0875 98.7649 55.3191 98.2632 56.2839L85.5654 78.2703C84.9736 79.1837 84.8578 79.441 84.1502 80.2644C83.3526 81.1907 82.4135 82.0012 81.3843 82.6573C80.3551 83.3134 79.2229 83.828 78.0522 84.1754C77.2674 84.4069 76.4698 84.5613 75.6465 84.6385C75.2348 84.6771 74.836 84.6771 74.4243 84.7028C58.15 84.7157 41.85 84.7157 25.5628 84.7157Z" fill="#FF66AB"/>
</g>
<path fill-rule="evenodd" clip-rule="evenodd" d="M50.3068 26.4609C52.2464 26.4609 53.9663 27.8093 55.2259 29.1624C56.1724 30.1766 57.0744 31.4548 57.8175 32.9247C59.9515 31.8215 62.2997 31.1948 64.6996 31.0879C67.2094 30.9711 68.8405 32.9761 68.9901 35.0279L69.0018 35.3364V40.4822C69.0025 44.9346 67.4141 49.2411 64.5224 52.6268C61.6307 56.0124 57.6256 58.2548 53.2279 58.9505L52.6437 59.0323V66.2065C55.1582 64.6431 58.8644 62.8087 63.7625 61.5841C64.0622 61.5038 64.3748 61.4838 64.6823 61.5255C64.9897 61.5673 65.2858 61.6698 65.5532 61.8271C65.8206 61.9845 66.054 62.1935 66.2397 62.442C66.4255 62.6904 66.5599 62.9734 66.6352 63.2744C66.7104 63.5754 66.725 63.8884 66.678 64.1951C66.631 64.5017 66.5234 64.796 66.3615 65.0606C66.1996 65.3253 65.9867 65.5551 65.735 65.7366C65.4834 65.918 65.1981 66.0476 64.8959 66.1177C61.7279 66.8953 58.684 68.1113 55.8522 69.7305L55.046 70.2166L54.6768 70.4502L54.0084 70.8989L53.4335 71.3079L52.9545 71.6724L52.5666 71.9832L52.1599 72.3291C51.6155 72.8152 51.0756 73.1984 50.3068 73.1984C49.6548 73.1984 49.1664 72.9227 48.699 72.5417L48.0681 72.0019L47.6872 71.6935L47.2081 71.3312L46.6379 70.92L46.3154 70.7026L45.6027 70.2376L45.2101 69.9969L44.3524 69.4991C41.6367 67.9946 38.733 66.8575 35.7177 66.1177C35.4181 66.0449 35.1359 65.9136 34.8873 65.7312C34.6387 65.5489 34.4287 65.3192 34.2692 65.0553C34.1098 64.7915 34.0042 64.4987 33.9584 64.1938C33.9126 63.8889 33.9276 63.578 34.0025 63.279C34.0775 62.9799 34.2108 62.6987 34.3949 62.4514C34.579 62.2041 34.8102 61.9957 35.0752 61.8382C35.3402 61.6806 35.6337 61.5771 35.9389 61.5335C36.2441 61.4899 36.5549 61.5071 36.8534 61.5841C41.422 62.7269 44.9554 64.4024 47.4511 65.891L47.9699 66.2065V59.0323C43.5555 58.4762 39.4842 56.364 36.4875 53.0752C33.4908 49.7864 31.7654 45.5367 31.6212 41.0898L31.6118 40.4822V35.3037C31.6118 33.1771 33.2289 30.9805 35.8345 31.0506C37.5498 31.0973 40.1671 31.4432 42.8452 32.8336C43.5209 31.4994 44.3763 30.2641 45.3877 29.1624C46.6496 27.8093 48.3649 26.4609 50.3068 26.4609ZM36.2856 35.7523V40.4822C36.2851 43.7961 37.4583 47.003 39.5972 49.5342C41.7361 52.0654 44.7024 53.7571 47.9699 54.3095C47.9349 45.4737 45.5092 40.9776 43.0368 38.6524C40.9126 36.6544 38.4682 35.9814 36.6595 35.7851L36.2856 35.7547V35.7523ZM64.328 35.7991C62.4866 35.9743 59.8366 36.6404 57.5605 38.8066C55.0834 41.1599 52.6787 45.635 52.6437 54.3095C55.8134 53.7737 58.7028 52.165 60.8279 49.7528C62.9529 47.3406 64.1845 44.2714 64.3164 41.0594L64.328 40.4822V35.7991ZM50.3068 31.1581C49.7226 31.4011 49.2295 31.8942 48.8065 32.3475C48.04 33.1678 47.2642 34.3105 46.6706 35.6659C48.0914 37.1101 49.3463 38.9422 50.3348 41.2417C51.3257 38.9913 52.5759 37.1919 53.985 35.764C53.4594 34.5092 52.7227 33.3537 51.8071 32.3475C51.3864 31.8942 50.891 31.4011 50.3068 31.1581Z" fill="#6B2E49"/>
</g>
<defs>
<clipPath id="clip0_18775_1699">
<rect width="100" height="100" fill="white"/>
</clipPath>
<clipPath id="clip1_18775_1699">
<rect width="100" height="100" fill="white"/>
</clipPath>
</defs>
</svg>
