<svg width="100" height="70" viewBox="0 15 100 70" fill="none" xmlns="http://www.w3.org/2000/svg">
<g clip-path="url(#clip0_18775_1688)">
<g clip-path="url(#clip1_18775_1688)">
<path fill-rule="evenodd" clip-rule="evenodd" d="M25.5628 84.7157C25.1511 84.69 24.7523 84.69 24.3406 84.6514C23.5301 84.5742 22.7197 84.4198 21.9349 84.1882C20.7642 83.8409 19.632 83.3263 18.6028 82.6701C17.5736 82.014 16.6345 81.2035 15.8369 80.2772C15.1293 79.4539 15.0006 79.1966 14.4217 78.2832L1.7239 56.2839C1.22216 55.3191 1.06778 55.0875 0.707559 54.0583C0.308743 52.9004 0.0771719 51.6911 0.0128466 50.4689C-0.0514786 49.2468 0.0771719 48.0117 0.360203 46.8281C0.553179 46.0305 0.823344 45.2586 1.15784 44.5124C1.32508 44.1393 1.53092 43.792 1.7239 43.4189L14.4217 21.4325C15.0135 20.5191 15.1293 20.2618 15.8369 19.4384C16.6345 18.5122 17.5736 17.7017 18.6028 17.0455C19.632 16.3894 20.7642 15.8748 21.9349 15.5275C22.7197 15.2959 23.5173 15.1415 24.3406 15.0643C24.7523 15.0257 25.1511 15.0257 25.5628 15H74.4371C75.5178 15.0515 75.8008 15.0257 76.8686 15.2316C78.0779 15.4631 79.2358 15.862 80.3293 16.428C81.4229 16.9941 82.4263 17.7017 83.314 18.5508C83.9058 19.1168 84.4461 19.7343 84.9093 20.4033C85.1409 20.7378 85.3467 21.0852 85.5654 21.4325L98.2632 43.4189C98.4562 43.7791 98.6492 44.1393 98.8293 44.5124C99.1638 45.2586 99.4339 46.0305 99.6269 46.8281C99.9099 48.0246 100.039 49.2468 99.9743 50.4689C99.9099 51.6911 99.6784 52.9133 99.2795 54.0583C98.9193 55.0875 98.7649 55.3191 98.2632 56.2839L85.5654 78.2703C84.9736 79.1837 84.8578 79.441 84.1502 80.2644C83.3526 81.1907 82.4135 82.0012 81.3843 82.6573C80.3551 83.3134 79.2229 83.828 78.0522 84.1754C77.2674 84.4069 76.4698 84.5613 75.6465 84.6385C75.2348 84.6771 74.836 84.6771 74.4243 84.7028C58.15 84.7157 41.85 84.7157 25.5628 84.7157Z" fill="#FF66AB"/>
</g>
<path d="M33.5151 50.0508C33.503 48.297 35.306 47.2856 36.7573 47.9443L36.897 48.0137L36.9087 48.0195L36.9204 48.0273L37.0366 48.0986L44.3784 51.0332L44.4272 51.0527L44.4722 51.083C46.5003 52.4503 45.2649 55.526 42.9663 55.2764L39.7964 55.2451L39.7446 55.2441L39.6938 55.2334L38.8823 55.0537C39.7716 57.0415 41.1641 58.77 42.9292 60.0635C44.9447 61.5404 47.3544 62.3833 49.8511 62.4854C52.3477 62.5874 54.8184 61.9443 56.9478 60.6367C59.0771 59.3291 60.7688 57.4164 61.8071 55.1436L61.811 55.1338C62.0533 54.6316 62.483 54.2445 63.0073 54.0547C63.5318 53.8649 64.11 53.8873 64.6177 54.1182C65.1253 54.3491 65.5225 54.77 65.7241 55.29C65.9257 55.8101 65.9153 56.3886 65.6958 56.9014L65.6919 56.9121C62.3446 64.2736 54.0755 68.3554 46.0044 66.1924C42.4433 65.2392 39.2935 63.1441 37.0376 60.2285C34.7816 57.3129 33.5439 53.7372 33.5151 50.0508ZM35.0405 42.9189C38.3909 35.5639 46.656 31.4883 54.7231 33.6484C58.284 34.6016 61.434 36.697 63.6899 39.6123C65.9458 42.5275 67.1832 46.1021 67.2124 49.7881C67.2271 51.5997 65.3036 52.6225 63.8315 51.8271L63.8208 51.8223L63.811 51.8154L63.687 51.7402L56.3501 48.8086L56.3003 48.7891L56.2554 48.7588C54.2807 47.4277 55.3998 44.4756 57.5815 44.5508L57.7954 44.5674L57.8071 44.5684L57.8188 44.5713L57.9839 44.5986L61.8999 44.915C61.0136 42.8739 59.6009 41.0992 57.7983 39.7783C55.7828 38.3013 53.3731 37.4575 50.8765 37.3555C48.3798 37.2535 45.9091 37.8975 43.7798 39.2051C41.6506 40.5126 39.9587 42.4246 38.9204 44.6973C38.8087 44.9544 38.6475 45.187 38.4458 45.3818C38.2414 45.5793 37.9999 45.7342 37.7349 45.8369C37.4697 45.9396 37.1861 45.9886 36.9019 45.9805C36.6179 45.9723 36.3382 45.9077 36.0796 45.79C35.8208 45.6723 35.5879 45.5038 35.395 45.2949C35.2022 45.0861 35.0533 44.8405 34.9565 44.5732C34.8598 44.3059 34.817 44.0213 34.8315 43.7373C34.8461 43.4534 34.917 43.175 35.0405 42.9189Z" fill="#6B2E49" stroke="#6B2E49"/>
<circle cx="50.3638" cy="50.3817" r="27.2503" stroke="#6B2E49" stroke-width="5"/>
</g>
<defs>
<clipPath id="clip0_18775_1688">
<rect width="100" height="100" fill="white"/>
</clipPath>
<clipPath id="clip1_18775_1688">
<rect width="100" height="100" fill="white"/>
</clipPath>
</defs>
</svg>
