<svg width="100" height="70" viewBox="0 15 100 70" fill="none" xmlns="http://www.w3.org/2000/svg">
<g clip-path="url(#clip0_18775_1655)">
<g clip-path="url(#clip1_18775_1655)">
<path fill-rule="evenodd" clip-rule="evenodd" d="M25.5628 84.7157C25.1511 84.69 24.7523 84.69 24.3406 84.6514C23.5301 84.5742 22.7197 84.4198 21.9349 84.1882C20.7642 83.8409 19.632 83.3263 18.6028 82.6701C17.5736 82.014 16.6345 81.2035 15.8369 80.2772C15.1293 79.4539 15.0006 79.1966 14.4217 78.2832L1.7239 56.2839C1.22216 55.3191 1.06778 55.0875 0.707559 54.0583C0.308743 52.9004 0.0771719 51.6911 0.0128466 50.4689C-0.0514786 49.2468 0.0771719 48.0117 0.360203 46.8281C0.553179 46.0305 0.823344 45.2586 1.15784 44.5124C1.32508 44.1393 1.53092 43.792 1.7239 43.4189L14.4217 21.4325C15.0135 20.5191 15.1293 20.2618 15.8369 19.4384C16.6345 18.5122 17.5736 17.7017 18.6028 17.0455C19.632 16.3894 20.7642 15.8748 21.9349 15.5275C22.7197 15.2959 23.5173 15.1415 24.3406 15.0643C24.7523 15.0257 25.1511 15.0257 25.5628 15H74.4371C75.5178 15.0515 75.8008 15.0257 76.8686 15.2316C78.0779 15.4631 79.2358 15.862 80.3293 16.428C81.4229 16.9941 82.4263 17.7017 83.314 18.5508C83.9058 19.1168 84.4461 19.7343 84.9093 20.4033C85.1409 20.7378 85.3467 21.0852 85.5654 21.4325L98.2632 43.4189C98.4562 43.7791 98.6492 44.1393 98.8293 44.5124C99.1638 45.2586 99.4339 46.0305 99.6269 46.8281C99.9099 48.0246 100.039 49.2468 99.9743 50.4689C99.9099 51.6911 99.6784 52.9133 99.2795 54.0583C98.9193 55.0875 98.7649 55.3191 98.2632 56.2839L85.5654 78.2703C84.9736 79.1837 84.8578 79.441 84.1502 80.2644C83.3526 81.1907 82.4135 82.0012 81.3843 82.6573C80.3551 83.3134 79.2229 83.828 78.0522 84.1754C77.2674 84.4069 76.4698 84.5613 75.6465 84.6385C75.2348 84.6771 74.836 84.6771 74.4243 84.7028C58.15 84.7157 41.85 84.7157 25.5628 84.7157Z" fill="#66CCFF"/>
</g>
<path d="M36.3664 55.8507C37.7855 55.8507 39.1466 55.2869 40.1501 54.2834C41.1535 53.2799 41.7173 51.9189 41.7173 50.4997C41.7173 49.0806 41.1535 47.7196 40.1501 46.7161C39.1466 45.7126 37.7855 45.1488 36.3664 45.1488C34.9472 45.1488 33.5862 45.7126 32.5827 46.7161C31.5792 47.7196 31.0154 49.0806 31.0154 50.4997C31.0154 51.9189 31.5792 53.2799 32.5827 54.2834C33.5862 55.2869 34.9472 55.8507 36.3664 55.8507ZM63.121 55.8507C64.5402 55.8507 65.9012 55.2869 66.9047 54.2834C67.9082 53.2799 68.472 51.9189 68.472 50.4997C68.472 49.0806 67.9082 47.7196 66.9047 46.7161C65.9012 45.7126 64.5402 45.1488 63.121 45.1488C61.7019 45.1488 60.3408 45.7126 59.3373 46.7161C58.3339 47.7196 57.7701 49.0806 57.7701 50.4997C57.7701 51.9189 58.3339 53.2799 59.3373 54.2834C60.3408 55.2869 61.7019 55.8507 63.121 55.8507ZM49.7437 42.4733C51.1629 42.4733 52.5239 41.9096 53.5274 40.9061C54.5309 39.9026 55.0946 38.5416 55.0946 37.1224C55.0946 35.7033 54.5309 34.3422 53.5274 33.3387C52.5239 32.3352 51.1629 31.7715 49.7437 31.7715C48.3245 31.7715 46.9635 32.3352 45.96 33.3387C44.9565 34.3422 44.3928 35.7033 44.3928 37.1224C44.3928 38.5416 44.9565 39.9026 45.96 40.9061C46.9635 41.9096 48.3245 42.4733 49.7437 42.4733ZM49.7437 69.228C51.1629 69.228 52.5239 68.6642 53.5274 67.6607C54.5309 66.6573 55.0946 65.2962 55.0946 63.8771C55.0946 62.4579 54.5309 61.0969 53.5274 60.0934C52.5239 59.0899 51.1629 58.5261 49.7437 58.5261C48.3245 58.5261 46.9635 59.0899 45.96 60.0934C44.9565 61.0969 44.3928 62.4579 44.3928 63.8771C44.3928 65.2962 44.9565 66.6573 45.96 67.6607C46.9635 68.6642 48.3245 69.228 49.7437 69.228Z" stroke="#2E576B" stroke-width="5" stroke-linecap="round" stroke-linejoin="round"/>
<path d="M22.989 50.4998C22.989 65.2764 34.9671 77.2544 49.7437 77.2544C64.5203 77.2544 76.4983 65.2764 76.4983 50.4998C76.4983 35.7232 64.5203 23.7451 49.7437 23.7451C34.9671 23.7451 22.989 35.7232 22.989 50.4998ZM22.989 50.4998V77.2544" stroke="#2E576B" stroke-width="5" stroke-linecap="round" stroke-linejoin="round"/>
</g>
<defs>
<clipPath id="clip0_18775_1655">
<rect width="100" height="100" fill="white"/>
</clipPath>
<clipPath id="clip1_18775_1655">
<rect width="100" height="100" fill="white"/>
</clipPath>
</defs>
</svg>
