<svg width="100" height="70" viewBox="0 15 100 70" fill="none" xmlns="http://www.w3.org/2000/svg">
<g clip-path="url(#clip0_18775_1639)">
<g clip-path="url(#clip1_18775_1639)">
<path fill-rule="evenodd" clip-rule="evenodd" d="M25.5628 84.7157C25.1511 84.69 24.7523 84.69 24.3406 84.6514C23.5301 84.5742 22.7197 84.4198 21.9349 84.1882C20.7642 83.8409 19.632 83.3263 18.6028 82.6701C17.5736 82.014 16.6345 81.2035 15.8369 80.2772C15.1293 79.4539 15.0006 79.1966 14.4217 78.2832L1.7239 56.2839C1.22216 55.3191 1.06778 55.0875 0.707559 54.0583C0.308743 52.9004 0.0771719 51.6911 0.0128466 50.4689C-0.0514786 49.2468 0.0771719 48.0117 0.360203 46.8281C0.553179 46.0305 0.823344 45.2586 1.15784 44.5124C1.32508 44.1393 1.53092 43.792 1.7239 43.4189L14.4217 21.4325C15.0135 20.5191 15.1293 20.2618 15.8369 19.4384C16.6345 18.5122 17.5736 17.7017 18.6028 17.0455C19.632 16.3894 20.7642 15.8748 21.9349 15.5275C22.7197 15.2959 23.5173 15.1415 24.3406 15.0643C24.7523 15.0257 25.1511 15.0257 25.5628 15H74.4371C75.5178 15.0515 75.8008 15.0257 76.8686 15.2316C78.0779 15.4631 79.2358 15.862 80.3293 16.428C81.4229 16.9941 82.4263 17.7017 83.314 18.5508C83.9058 19.1168 84.4461 19.7343 84.9093 20.4033C85.1409 20.7378 85.3467 21.0852 85.5654 21.4325L98.2632 43.4189C98.4562 43.7791 98.6492 44.1393 98.8293 44.5124C99.1638 45.2586 99.4339 46.0305 99.6269 46.8281C99.9099 48.0246 100.039 49.2468 99.9743 50.4689C99.9099 51.6911 99.6784 52.9133 99.2795 54.0583C98.9193 55.0875 98.7649 55.3191 98.2632 56.2839L85.5654 78.2703C84.9736 79.1837 84.8578 79.441 84.1502 80.2644C83.3526 81.1907 82.4135 82.0012 81.3843 82.6573C80.3551 83.3134 79.2229 83.828 78.0522 84.1754C77.2674 84.4069 76.4698 84.5613 75.6465 84.6385C75.2348 84.6771 74.836 84.6771 74.4243 84.7028C58.15 84.7157 41.85 84.7157 25.5628 84.7157Z" fill="#B2FF66"/>
</g>
<path d="M50.4957 62.8068C47.0108 62.8068 43.6687 61.4225 41.2045 58.9583C38.7403 56.4941 37.356 53.152 37.356 49.6671C37.356 46.1822 38.7403 42.8401 41.2045 40.3759C43.6687 37.9118 47.0108 36.5274 50.4957 36.5274C53.9805 36.5274 57.3227 37.9118 59.7868 40.3759C62.251 42.8401 63.6354 46.1822 63.6354 49.6671C63.6354 53.152 62.251 56.4941 59.7868 58.9583C57.3227 61.4225 53.9805 62.8068 50.4957 62.8068ZM50.4957 57.8794C52.6737 57.8794 54.7625 57.0142 56.3027 55.4741C57.8428 53.934 58.708 51.8452 58.708 49.6671C58.708 47.4891 57.8428 45.4002 56.3027 43.8601C54.7625 42.32 52.6737 41.4548 50.4957 41.4548C48.3176 41.4548 46.2288 42.32 44.6887 43.8601C43.1486 45.4002 42.2833 47.4891 42.2833 49.6671C42.2833 51.8452 43.1486 53.934 44.6887 55.4741C46.2288 57.0142 48.3176 57.8794 50.4957 57.8794ZM69.0785 31.0843C69.3074 31.3131 69.4891 31.5847 69.613 31.8838C69.7369 32.1828 69.8007 32.5033 69.8007 32.8269C69.8007 33.1506 69.7369 33.4711 69.613 33.7701C69.4891 34.0691 69.3074 34.3408 69.0785 34.5696L65.5932 38.0516C65.2921 38.3759 64.909 38.613 64.4845 38.7379C64.0599 38.8627 63.6095 38.8708 63.1807 38.7612C62.752 38.6515 62.3607 38.4283 62.0482 38.1149C61.7357 37.8016 61.5134 37.4098 61.4049 36.9807C61.2955 36.5524 61.3033 36.1026 61.4276 35.6784C61.5519 35.2541 61.788 34.8712 62.1112 34.5696L65.5932 31.0876C66.0551 30.6262 66.6813 30.367 67.3342 30.367C67.9871 30.367 68.6133 30.6262 69.0752 31.0876L69.0785 31.0843ZM38.8802 61.2826C39.3415 61.7446 39.6007 62.3707 39.6007 63.0236C39.6007 63.6765 39.3415 64.3027 38.8802 64.7646L35.3981 68.2499C35.171 68.4854 34.8992 68.6732 34.5987 68.8024C34.2982 68.9317 33.9749 68.9998 33.6478 69.0028C33.3207 69.0058 32.9962 68.9436 32.6934 68.8199C32.3906 68.6962 32.1154 68.5133 31.884 68.2821C31.6525 68.0509 31.4695 67.7759 31.3454 67.4732C31.2214 67.1705 31.1589 66.8461 31.1616 66.519C31.1643 66.1918 31.2321 65.8685 31.3611 65.5679C31.4901 65.2673 31.6776 64.9953 31.9128 64.7679L35.3949 61.2826C35.6237 61.0537 35.8953 60.8721 36.1943 60.7481C36.4933 60.6242 36.8138 60.5605 37.1375 60.5605C37.4612 60.5605 37.7817 60.6242 38.0807 60.7481C38.3797 60.8721 38.6514 61.0537 38.8802 61.2826ZM50.4957 23.3877C51.1491 23.3877 51.7757 23.6473 52.2378 24.1093C52.6998 24.5713 52.9594 25.198 52.9594 25.8514V30.7788C52.9594 31.4322 52.6998 32.0588 52.2378 32.5209C51.7757 32.9829 51.1491 33.2425 50.4957 33.2425C49.8423 33.2425 49.2156 32.9829 48.7536 32.5209C48.2915 32.0588 48.032 31.4322 48.032 30.7788V25.8514C48.032 25.198 48.2915 24.5713 48.7536 24.1093C49.2156 23.6473 49.8423 23.3877 50.4957 23.3877ZM34.071 49.6671C34.071 50.3205 33.8115 50.9472 33.3494 51.4092C32.8874 51.8712 32.2607 52.1308 31.6073 52.1308H26.6799C26.0265 52.1308 25.3999 51.8712 24.9378 51.4092C24.4758 50.9472 24.2162 50.3205 24.2162 49.6671C24.2162 49.0137 24.4758 48.3871 24.9378 47.925C25.3999 47.463 26.0265 47.2034 26.6799 47.2034H31.6073C32.2607 47.2034 32.8874 47.463 33.3494 47.925C33.8115 48.3871 34.071 49.0137 34.071 49.6671ZM76.7751 49.6671C76.7751 50.3205 76.5155 50.9472 76.0535 51.4092C75.5915 51.8712 74.9648 52.1308 74.3114 52.1308H69.384C68.7306 52.1308 68.1039 51.8712 67.6419 51.4092C67.1799 50.9472 66.9203 50.3205 66.9203 49.6671C66.9203 49.0137 67.1799 48.3871 67.6419 47.925C68.1039 47.463 68.7306 47.2034 69.384 47.2034H74.3114C74.9648 47.2034 75.5915 47.463 76.0535 47.925C76.5155 48.3871 76.7751 49.0137 76.7751 49.6671ZM50.4957 66.0918C51.1491 66.0918 51.7757 66.3513 52.2378 66.8134C52.6998 67.2754 52.9594 67.902 52.9594 68.5554V73.4828C52.9594 74.1362 52.6998 74.7629 52.2378 75.2249C51.7757 75.687 51.1491 75.9465 50.4957 75.9465C49.8423 75.9465 49.2156 75.687 48.7536 75.2249C48.2915 74.7629 48.032 74.1362 48.032 73.4828V68.5554C48.032 67.902 48.2915 67.2754 48.7536 66.8134C49.2156 66.3513 49.8423 66.0918 50.4957 66.0918ZM62.1112 61.2826C62.5731 60.8212 63.1993 60.5621 63.8522 60.5621C64.5051 60.5621 65.1312 60.8212 65.5932 61.2826L69.0785 64.7646C69.5275 65.2291 69.7761 65.8513 69.7708 66.4973C69.7655 67.1433 69.5067 67.7613 69.0501 68.2183C68.5936 68.6753 67.9757 68.9347 67.3298 68.9406C66.6838 68.9466 66.0613 68.6985 65.5965 68.2499L62.1112 64.7679C61.8822 64.5391 61.7006 64.2675 61.5767 63.9685C61.4528 63.6694 61.389 63.3489 61.389 63.0253C61.389 62.7016 61.4528 62.3811 61.5767 62.0821C61.7006 61.7831 61.8822 61.5114 62.1112 61.2826ZM31.9128 31.0843C32.1416 30.8553 32.4133 30.6737 32.7123 30.5498C33.0113 30.4259 33.3318 30.3621 33.6555 30.3621C33.9792 30.3621 34.2997 30.4259 34.5987 30.5498C34.8977 30.6737 35.1693 30.8553 35.3981 31.0843L38.8802 34.5696C39.3159 35.0365 39.5533 35.6544 39.5422 36.293C39.5312 36.9315 39.2726 37.5409 38.821 37.9925C38.3694 38.4441 37.7601 38.7026 37.1215 38.7137C36.483 38.7247 35.8651 38.4873 35.3981 38.0516L31.9161 34.5696C31.4547 34.1076 31.1956 33.4815 31.1956 32.8286C31.1956 32.1757 31.4547 31.5495 31.9161 31.0876L31.9128 31.0843Z" fill="#4C6B2E"/>
</g>
<defs>
<clipPath id="clip0_18775_1639">
<rect width="100" height="100" fill="white"/>
</clipPath>
<clipPath id="clip1_18775_1639">
<rect width="100" height="69.7157" fill="white" transform="translate(0 15)"/>
</clipPath>
</defs>
</svg>
