<svg width="100" height="70" viewBox="0 15 100 70" fill="none" xmlns="http://www.w3.org/2000/svg">
<g clip-path="url(#clip0_18775_1684)">
<g clip-path="url(#clip1_18775_1684)">
<path fill-rule="evenodd" clip-rule="evenodd" d="M25.5628 84.7157C25.1511 84.69 24.7523 84.69 24.3406 84.6514C23.5301 84.5742 22.7197 84.4198 21.9349 84.1882C20.7642 83.8409 19.632 83.3263 18.6028 82.6701C17.5736 82.014 16.6345 81.2035 15.8369 80.2772C15.1293 79.4539 15.0006 79.1966 14.4217 78.2832L1.7239 56.2839C1.22216 55.3191 1.06778 55.0875 0.707559 54.0583C0.308743 52.9004 0.0771719 51.6911 0.0128466 50.4689C-0.0514786 49.2468 0.0771719 48.0117 0.360203 46.8281C0.553179 46.0305 0.823344 45.2586 1.15784 44.5124C1.32508 44.1393 1.53092 43.792 1.7239 43.4189L14.4217 21.4325C15.0135 20.5191 15.1293 20.2618 15.8369 19.4384C16.6345 18.5122 17.5736 17.7017 18.6028 17.0455C19.632 16.3894 20.7642 15.8748 21.9349 15.5275C22.7197 15.2959 23.5173 15.1415 24.3406 15.0643C24.7523 15.0257 25.1511 15.0257 25.5628 15H74.4371C75.5178 15.0515 75.8008 15.0257 76.8686 15.2316C78.0779 15.4631 79.2358 15.862 80.3293 16.428C81.4229 16.9941 82.4263 17.7017 83.314 18.5508C83.9058 19.1168 84.4461 19.7343 84.9093 20.4033C85.1409 20.7378 85.3467 21.0852 85.5654 21.4325L98.2632 43.4189C98.4562 43.7791 98.6492 44.1393 98.8293 44.5124C99.1638 45.2586 99.4339 46.0305 99.6269 46.8281C99.9099 48.0246 100.039 49.2468 99.9743 50.4689C99.9099 51.6911 99.6784 52.9133 99.2795 54.0583C98.9193 55.0875 98.7649 55.3191 98.2632 56.2839L85.5654 78.2703C84.9736 79.1837 84.8578 79.441 84.1502 80.2644C83.3526 81.1907 82.4135 82.0012 81.3843 82.6573C80.3551 83.3134 79.2229 83.828 78.0522 84.1754C77.2674 84.4069 76.4698 84.5613 75.6465 84.6385C75.2348 84.6771 74.836 84.6771 74.4243 84.7028C58.15 84.7157 41.85 84.7157 25.5628 84.7157Z" fill="#FF66AB"/>
</g>
<path d="M40.539 64.3183L37.1359 64.3183C36.5333 64.3183 36.0278 64.1141 35.6195 63.7057C35.2111 63.2974 35.0076 62.7926 35.0091 62.1914C35.0105 61.5902 35.2147 61.0847 35.6216 60.6749C36.0285 60.2651 36.5333 60.0617 37.1359 60.0645L45.6435 60.0645C46.2461 60.0645 46.7509 60.2687 47.1578 60.6771C47.5648 61.0854 47.769 61.5902 47.7704 62.1914L47.7704 70.6989C47.7704 71.3016 47.5662 71.8063 47.1578 72.2133C46.7495 72.6202 46.2447 72.8244 45.6435 72.8258C45.0423 72.8273 44.5368 72.6231 44.127 72.2133C43.7172 71.8035 43.5138 71.2987 43.5166 70.6989L43.5166 67.2959L34.4121 76.4005C34.0221 76.7904 33.5259 76.9854 32.9233 76.9854C32.3206 76.9854 31.8244 76.7904 31.4344 76.4005C31.0445 76.0105 30.8495 75.5143 30.8495 74.9116C30.8495 74.309 31.0445 73.8127 31.4344 73.4228L40.539 64.3183Z" fill="#6B2E49"/>
<path d="M59.4445 64.3183L68.549 73.4228C68.9389 73.8127 69.1339 74.309 69.1339 74.9116C69.1339 75.5143 68.9389 76.0105 68.549 76.4005C68.1591 76.7904 67.6628 76.9854 67.0602 76.9854C66.4576 76.9854 65.9613 76.7904 65.5714 76.4005L56.4668 67.2959L56.4668 70.6989C56.4668 71.3016 56.2627 71.8063 55.8543 72.2133C55.4459 72.6202 54.9412 72.8244 54.34 72.8258C53.7388 72.8273 53.2333 72.6231 52.8235 72.2133C52.4137 71.8035 52.2102 71.2987 52.2131 70.6989L52.2131 62.1914C52.2131 61.5888 52.4172 61.0833 52.8256 60.6749C53.234 60.2666 53.7388 60.0631 54.34 60.0645L62.8475 60.0645C63.4501 60.0645 63.9549 60.2687 64.3619 60.6771C64.7688 61.0854 64.973 61.5902 64.9744 62.1914C64.9758 62.7926 64.7716 63.2974 64.3619 63.7057C63.9521 64.1141 63.4473 64.3183 62.8475 64.3183L59.4445 64.3183Z" fill="#6B2E49"/>
<path d="M43.5166 32.3909L43.5166 28.9879C43.5166 28.3853 43.7208 27.8798 44.1292 27.4714C44.5375 27.063 45.0423 26.8596 45.6435 26.861C46.2447 26.8624 46.7495 27.0666 47.1578 27.4735C47.5662 27.8805 47.7704 28.3853 47.7704 28.9879L47.7704 37.4954C47.7704 38.098 47.5662 38.6028 47.1578 39.0098C46.7495 39.4167 46.2447 39.6209 45.6435 39.6223L37.1359 39.6223C36.5333 39.6223 36.0278 39.4181 35.6195 39.0098C35.2111 38.6014 35.0076 38.0966 35.0091 37.4954C35.0105 36.8942 35.2147 36.3887 35.6216 35.979C36.0285 35.5692 36.5333 35.3657 37.1359 35.3685L40.539 35.3685L31.4344 26.264C31.0445 25.8741 30.8495 25.3778 30.8495 24.7752C30.8495 24.1726 31.0445 23.6763 31.4344 23.2864C31.8244 22.8964 32.3206 22.7015 32.9233 22.7015C33.5259 22.7015 34.0221 22.8964 34.4121 23.2864L43.5166 32.3909Z" fill="#6B2E49"/>
<path d="M56.4666 32.3909L65.5711 23.2864C65.9611 22.8964 66.4573 22.7015 67.06 22.7015C67.6626 22.7015 68.1588 22.8964 68.5488 23.2864C68.9387 23.6763 69.1337 24.1726 69.1337 24.7752C69.1337 25.3778 68.9387 25.8741 68.5488 26.264L59.4442 35.3685L62.8473 35.3685C63.4499 35.3685 63.9547 35.572 64.3616 35.979C64.7686 36.3859 64.9727 36.8914 64.9742 37.4954C64.9756 38.0995 64.7714 38.6042 64.3616 39.0098C63.9518 39.4153 63.447 39.6195 62.8473 39.6223L54.3397 39.6223C53.7371 39.6223 53.2316 39.4181 52.8232 39.0098C52.4149 38.6014 52.2114 38.0966 52.2128 37.4954L52.2128 28.9879C52.2128 28.3853 52.417 27.8798 52.8254 27.4714C53.2337 27.063 53.7385 26.8596 54.3397 26.861C54.9409 26.8624 55.4457 27.0666 55.8541 27.4735C56.2624 27.8805 56.4666 28.3853 56.4666 28.9879L56.4666 32.3909Z" fill="#6B2E49"/>
<path d="M49.5 44.5C56.655 44.5 63.0402 45.324 67.5576 46.6025C69.8334 47.2467 71.4938 47.9666 72.5273 48.6582C73.1533 49.0771 73.3805 49.3681 73.4619 49.5C73.3805 49.6319 73.1533 49.9229 72.5273 50.3418C71.4938 51.0334 69.8334 51.7533 67.5576 52.3975C63.0402 53.676 56.655 54.5 49.5 54.5C42.345 54.5 35.9598 53.676 31.4424 52.3975C29.1666 51.7533 27.5062 51.0334 26.4727 50.3418C25.846 49.9225 25.6182 49.6317 25.5371 49.5C25.6182 49.3683 25.846 49.0775 26.4727 48.6582C27.5062 47.9666 29.1666 47.2467 31.4424 46.6025C35.9598 45.324 42.345 44.5 49.5 44.5Z" stroke="#6B2E49" stroke-width="5"/>
</g>
<defs>
<clipPath id="clip0_18775_1684">
<rect width="100" height="100" fill="white"/>
</clipPath>
<clipPath id="clip1_18775_1684">
<rect width="100" height="100" fill="white"/>
</clipPath>
</defs>
</svg>
