<svg width="100" height="70" viewBox="0 15 100 70" fill="none" xmlns="http://www.w3.org/2000/svg">
<g clip-path="url(#clip0_18775_1645)">
<g clip-path="url(#clip1_18775_1645)">
<path fill-rule="evenodd" clip-rule="evenodd" d="M25.5628 84.7157C25.1511 84.69 24.7523 84.69 24.3406 84.6514C23.5301 84.5742 22.7197 84.4198 21.9349 84.1882C20.7642 83.8409 19.632 83.3263 18.6028 82.6701C17.5736 82.014 16.6345 81.2035 15.8369 80.2772C15.1293 79.4539 15.0006 79.1966 14.4217 78.2832L1.7239 56.2839C1.22216 55.3191 1.06778 55.0875 0.707559 54.0583C0.308743 52.9004 0.0771719 51.6911 0.0128466 50.4689C-0.0514786 49.2468 0.0771719 48.0117 0.360203 46.8281C0.553179 46.0305 0.823344 45.2586 1.15784 44.5124C1.32508 44.1393 1.53092 43.792 1.7239 43.4189L14.4217 21.4325C15.0135 20.5191 15.1293 20.2618 15.8369 19.4384C16.6345 18.5122 17.5736 17.7017 18.6028 17.0455C19.632 16.3894 20.7642 15.8748 21.9349 15.5275C22.7197 15.2959 23.5173 15.1415 24.3406 15.0643C24.7523 15.0257 25.1511 15.0257 25.5628 15H74.4371C75.5178 15.0515 75.8008 15.0257 76.8686 15.2316C78.0779 15.4631 79.2358 15.862 80.3293 16.428C81.4229 16.9941 82.4263 17.7017 83.314 18.5508C83.9058 19.1168 84.4461 19.7343 84.9093 20.4033C85.1409 20.7378 85.3467 21.0852 85.5654 21.4325L98.2632 43.4189C98.4562 43.7791 98.6492 44.1393 98.8293 44.5124C99.1638 45.2586 99.4339 46.0305 99.6269 46.8281C99.9099 48.0246 100.039 49.2468 99.9743 50.4689C99.9099 51.6911 99.6784 52.9133 99.2795 54.0583C98.9193 55.0875 98.7649 55.3191 98.2632 56.2839L85.5654 78.2703C84.9736 79.1837 84.8578 79.441 84.1502 80.2644C83.3526 81.1907 82.4135 82.0012 81.3843 82.6573C80.3551 83.3134 79.2229 83.828 78.0522 84.1754C77.2674 84.4069 76.4698 84.5613 75.6465 84.6385C75.2348 84.6771 74.836 84.6771 74.4243 84.7028C58.15 84.7157 41.85 84.7157 25.5628 84.7157Z" fill="#FF6666"/>
</g>
<path d="M23.7154 49.989C23.6993 47.681 26.1519 46.3583 28.0476 47.3784L28.3019 47.5337L35.4723 52.3639C38.0748 54.1176 36.4817 58.1017 33.507 57.7376L33.1937 57.6841L30.3476 57.0575C31.7942 61.06 34.4001 64.5409 37.8329 67.0565C41.2657 69.5721 45.3699 71.0083 49.6222 71.1821C53.8745 71.3559 58.0822 70.2593 61.7089 68.0322C65.3355 65.8051 68.2167 62.5485 69.9851 58.6774C70.2891 58.0472 70.8277 57.561 71.4856 57.3229C72.1436 57.0848 72.8686 57.1137 73.5055 57.4035C74.1424 57.6932 74.6405 58.2208 74.8933 58.8732C75.1461 59.5257 75.1335 60.2511 74.8581 60.8944C69.538 72.595 56.3942 79.0826 43.5663 75.6447C37.906 74.1296 32.8991 70.7995 29.3133 66.1652C25.7276 61.5309 23.7611 55.8483 23.7154 49.989ZM26.1332 38.6685C31.4534 26.9679 44.5972 20.483 57.425 23.9182C63.0848 25.4332 68.0915 28.7629 71.6772 33.3966C75.2629 38.0304 77.2297 43.7124 77.2759 49.5713C77.2946 51.8819 74.8394 53.2073 72.9464 52.1845L72.6894 52.0292L65.5191 47.199C62.9165 45.4453 64.5096 41.4612 67.4843 41.8253L67.7976 41.8788L70.6438 42.5054C69.1971 38.5029 66.5913 35.022 63.1585 32.5064C59.7257 29.9908 55.6214 28.5546 51.3691 28.3808C47.1168 28.207 42.9091 29.3036 39.2825 31.5307C35.6558 33.7577 32.7746 37.0144 31.0062 40.8855C30.8658 41.2134 30.6614 41.5099 30.4048 41.7577C30.1483 42.0055 29.8448 42.1995 29.5122 42.3283C29.1796 42.4572 28.8246 42.5183 28.4681 42.5081C28.1116 42.4979 27.7607 42.4166 27.436 42.2689C27.1114 42.1212 26.8195 41.9101 26.5776 41.648C26.3356 41.386 26.1485 41.0782 26.0271 40.7428C25.9057 40.4074 25.8526 40.0512 25.8708 39.695C25.889 39.3388 25.9782 38.9898 26.1332 38.6685Z" fill="#6B2E2E"/>
<path d="M62.6006 49.8043C62.6022 50.1444 62.5297 50.4808 62.3881 50.7901C62.2466 51.0993 62.0393 51.374 61.7807 51.595L54.8769 57.5064C54.5371 57.7944 54.1212 57.978 53.6795 58.035C53.5752 58.0458 53.4709 58.0458 53.3667 58.035C53.0274 58.0375 52.6919 57.9638 52.385 57.8193C51.9835 57.6348 51.6402 57.3438 51.3926 56.9778C51.1571 56.602 51.0268 56.1699 51.015 55.7265V52.253L44.8878 57.4848C44.5494 57.775 44.1329 57.9589 43.6905 58.0134C43.5862 58.0242 43.4819 58.0242 43.3776 58.0134C43.0384 58.0159 42.7029 57.9422 42.396 57.7977C41.9956 57.6159 41.6552 57.3241 41.4143 56.9563C41.17 56.5839 41.0355 56.1502 41.026 55.7049V43.8389C41.0361 43.3956 41.1697 42.9638 41.4117 42.5922C41.6537 42.2206 41.9946 41.9239 42.396 41.7354C42.8004 41.5496 43.2493 41.4825 43.6904 41.5416C44.1315 41.6008 44.5467 41.784 44.8878 42.0698L51.015 47.3124V43.8497C51.0197 43.5173 51.0948 43.1896 51.2354 42.8883C51.376 42.587 51.5789 42.319 51.8307 42.1018C52.0825 41.8847 52.3774 41.7234 52.6961 41.6287C53.0148 41.5339 53.35 41.5078 53.6795 41.552C54.1165 41.6144 54.5274 41.7975 54.8661 42.0806L61.7807 48.0028C62.0385 48.2229 62.2446 48.4947 62.3848 48.8011C62.5283 49.1172 62.6016 49.4591 62.6006 49.8043Z" fill="#6B2E2E"/>
</g>
<defs>
<clipPath id="clip0_18775_1645">
<rect width="100" height="100" fill="white"/>
</clipPath>
<clipPath id="clip1_18775_1645">
<rect width="100" height="69.7157" fill="white" transform="translate(0 15)"/>
</clipPath>
</defs>
</svg>
