<svg width="218" height="70" viewBox="0 0 218 70" fill="none" xmlns="http://www.w3.org/2000/svg">
    <g clip-path="url(#clip0_293_1953)">
        <path d="M191.94 0H72.5V69.7157C88.7871 69.7157 175.653 69.7157 191.928 69.7028C192.339 69.6771 192.738 69.6771 193.15 69.6385C193.973 69.5613 194.771 69.4069 195.555 69.1754C196.726 68.828 197.858 68.3134 198.888 67.6573C199.917 67.0012 200.856 66.1907 201.654 65.2644C202.361 64.441 202.477 64.1837 203.069 63.2703L215.767 41.2839C216.269 40.3191 216.423 40.0875 216.783 39.0583C217.182 37.9133 217.414 36.6911 217.478 35.4689C217.542 34.2468 217.414 33.0246 217.131 31.8281C216.938 31.0305 216.668 30.2586 216.333 29.5124C216.153 29.1393 215.96 28.7791 215.767 28.4189L203.069 6.43252C202.85 6.08517 202.644 5.73781 202.413 5.40332C201.95 4.73434 201.409 4.11681 200.817 3.55075C199.93 2.70166 198.926 1.99408 197.833 1.42802C196.739 0.861958 195.581 0.463142 194.372 0.231571C193.304 0.0257301 193.021 0.0514602 191.94 0Z" fill="white"/>
    </g>
    <defs>
        <clipPath id="clip0_293_1953">
            <rect width="217.5" height="70" fill="white"/>
        </clipPath>
    </defs>
</svg>
