<svg width="100" height="70" viewBox="0 15 100 70" fill="none" xmlns="http://www.w3.org/2000/svg">
<g clip-path="url(#clip0_18775_1636)">
<g clip-path="url(#clip1_18775_1636)">
<path fill-rule="evenodd" clip-rule="evenodd" d="M25.5629 84.7157C25.1512 84.69 24.7524 84.69 24.3407 84.6514C23.5302 84.5742 22.7197 84.4198 21.9349 84.1882C20.7642 83.8409 19.6321 83.3263 18.6029 82.6701C17.5737 82.014 16.6345 81.2035 15.8369 80.2772C15.1293 79.4539 15.0007 79.1966 14.4217 78.2832L1.72393 56.2839C1.22219 55.3191 1.06781 55.0875 0.70759 54.0583C0.308773 52.9004 0.0772024 51.6911 0.0128772 50.4689C-0.0514481 49.2468 0.0772024 48.0117 0.360233 46.8281C0.553209 46.0305 0.823375 45.2586 1.15787 44.5124C1.32511 44.1393 1.53095 43.792 1.72393 43.4189L14.4217 21.4325C15.0135 20.5191 15.1293 20.2618 15.8369 19.4384C16.6345 18.5122 17.5737 17.7017 18.6029 17.0455C19.6321 16.3894 20.7642 15.8748 21.9349 15.5275C22.7197 15.2959 23.5173 15.1415 24.3407 15.0643C24.7524 15.0257 25.1512 15.0257 25.5629 15H74.4372C75.5178 15.0515 75.8009 15.0257 76.8687 15.2316C78.078 15.4631 79.2358 15.862 80.3294 16.428C81.4229 16.9941 82.4264 17.7017 83.314 18.5508C83.9058 19.1168 84.4462 19.7343 84.9093 20.4033C85.1409 20.7378 85.3467 21.0852 85.5654 21.4325L98.2632 43.4189C98.4562 43.7791 98.6492 44.1393 98.8293 44.5124C99.1638 45.2586 99.434 46.0305 99.6269 46.8281C99.91 48.0246 100.039 49.2468 99.9743 50.4689C99.91 51.6911 99.6784 52.9133 99.2796 54.0583C98.9193 55.0875 98.765 55.3191 98.2632 56.2839L85.5654 78.2703C84.9736 79.1837 84.8578 79.441 84.1503 80.2644C83.3526 81.1907 82.4135 82.0012 81.3843 82.6573C80.3551 83.3134 79.223 83.828 78.0522 84.1754C77.2675 84.4069 76.4698 84.5613 75.6465 84.6385C75.2348 84.6771 74.836 84.6771 74.4243 84.7028C58.15 84.7157 41.85 84.7157 25.5629 84.7157Z" fill="#B2FF66"/>
</g>
<path fill-rule="evenodd" clip-rule="evenodd" d="M70.0194 30.2027L75.6106 38.5842C75.9371 39.0734 76.1331 39.6378 76.18 40.224C76.227 40.8102 76.1232 41.3987 75.8788 41.9335C75.6343 42.4683 75.2571 42.9318 74.7831 43.2798C74.309 43.6279 73.7539 43.8489 73.1704 43.922L67.037 44.6905C67.2531 46.7734 66.8963 48.8759 66.005 50.7709C65.1137 52.6658 63.7218 54.2814 61.9795 55.4433L50.4492 63.0232C48.7074 64.186 46.6812 64.8511 44.5891 64.9466C42.497 65.0421 40.4186 64.5644 38.5782 63.5651L35.5129 68.9328C35.2213 69.4435 34.804 69.8711 34.3006 70.1751C33.7971 70.4791 33.2244 70.6493 32.6367 70.6697C32.0489 70.69 31.4658 70.5597 30.9426 70.2912C30.4194 70.0227 29.9735 69.6249 29.6473 69.1356L24.0561 60.7541C23.7297 60.265 23.5336 59.7005 23.4867 59.1143C23.4398 58.5281 23.5435 57.9397 23.788 57.4048C24.0325 56.87 24.4096 56.4066 24.8837 56.0585C25.3577 55.7105 25.9128 55.4894 26.4963 55.4163L32.6297 54.6478C32.4128 52.5641 32.7694 50.4607 33.6609 48.5648C34.5524 46.6689 35.945 45.0526 37.6881 43.8906L49.2184 36.3106C50.9604 35.1482 52.9866 34.4836 55.0786 34.3885C57.1706 34.2934 59.2488 34.7715 61.089 35.771L64.1543 30.4033C64.4456 29.8924 64.8628 29.4645 65.3662 29.1602C65.8695 28.8559 66.4423 28.6854 67.0301 28.6649C67.6179 28.6443 68.2012 28.7744 68.7245 29.0428C69.2479 29.3112 69.694 29.7089 70.0203 30.1982L70.0194 30.2027ZM34.0164 59.106L28.9149 59.7452L32.441 65.0339L34.991 60.567L34.0164 59.106ZM51.7699 40.1384L40.2419 47.7188C39.4711 48.2138 38.8066 48.8574 38.2872 49.612C37.7678 50.3666 37.4039 51.2171 37.2167 52.1138C37.0295 53.0106 37.0228 53.9356 37.1969 54.835C37.371 55.7344 37.7225 56.59 38.2309 57.3521C38.7392 58.1142 39.3943 58.7674 40.1578 59.2736C40.9213 59.7798 41.778 60.1289 42.6778 60.3005C43.5777 60.4721 44.5027 60.4627 45.3989 60.273C46.2951 60.0832 47.1446 59.7169 47.8977 59.1954L59.4257 51.615C60.1875 51.1159 60.8429 50.4709 61.3541 49.7173C61.8654 48.9636 62.2223 48.1161 62.4044 47.2238C62.5865 46.3315 62.5901 45.412 62.4151 44.5182C62.24 43.6245 61.8897 42.7743 61.3844 42.0166C60.8791 41.259 60.2288 40.6088 59.471 40.1037C58.7132 39.5987 57.8629 39.2486 56.9691 39.0738C56.0753 38.899 55.1558 38.9028 54.2635 39.0852C53.3713 39.2675 52.5235 39.627 51.7699 40.1384ZM67.2267 34.2999L64.6771 38.7646L65.6517 40.2256L70.7532 39.5864L67.2267 34.2999Z" fill="#4C6B2E"/>
</g>
<defs>
<clipPath id="clip0_18775_1636">
<rect width="100" height="100" fill="white"/>
</clipPath>
<clipPath id="clip1_18775_1636">
<rect width="100" height="69.7157" fill="white" transform="translate(0 15)"/>
</clipPath>
</defs>
</svg>
