<svg width="100" height="70" viewBox="0 15 100 70" fill="none" xmlns="http://www.w3.org/2000/svg">
<g clip-path="url(#clip0_18775_1642)">
<g clip-path="url(#clip1_18775_1642)">
<path fill-rule="evenodd" clip-rule="evenodd" d="M25.5629 84.7157C25.1512 84.69 24.7524 84.69 24.3407 84.6514C23.5302 84.5742 22.7197 84.4198 21.9349 84.1882C20.7642 83.8409 19.6321 83.3263 18.6029 82.6701C17.5737 82.014 16.6345 81.2035 15.8369 80.2772C15.1293 79.4539 15.0007 79.1966 14.4217 78.2832L1.72393 56.2839C1.22219 55.3191 1.06781 55.0875 0.70759 54.0583C0.308773 52.9004 0.0772024 51.6911 0.0128772 50.4689C-0.0514481 49.2468 0.0772024 48.0117 0.360233 46.8281C0.553209 46.0305 0.823375 45.2586 1.15787 44.5124C1.32511 44.1393 1.53095 43.792 1.72393 43.4189L14.4217 21.4325C15.0135 20.5191 15.1293 20.2618 15.8369 19.4384C16.6345 18.5122 17.5737 17.7017 18.6029 17.0455C19.6321 16.3894 20.7642 15.8748 21.9349 15.5275C22.7197 15.2959 23.5173 15.1415 24.3407 15.0643C24.7524 15.0257 25.1512 15.0257 25.5629 15H74.4372C75.5178 15.0515 75.8009 15.0257 76.8687 15.2316C78.078 15.4631 79.2358 15.862 80.3294 16.428C81.4229 16.9941 82.4264 17.7017 83.314 18.5508C83.9058 19.1168 84.4462 19.7343 84.9093 20.4033C85.1409 20.7378 85.3467 21.0852 85.5654 21.4325L98.2632 43.4189C98.4562 43.7791 98.6492 44.1393 98.8293 44.5124C99.1638 45.2586 99.434 46.0305 99.6269 46.8281C99.91 48.0246 100.039 49.2468 99.9743 50.4689C99.91 51.6911 99.6784 52.9133 99.2796 54.0583C98.9193 55.0875 98.765 55.3191 98.2632 56.2839L85.5654 78.2703C84.9736 79.1837 84.8578 79.441 84.1503 80.2644C83.3526 81.1907 82.4135 82.0012 81.3843 82.6573C80.3551 83.3134 79.223 83.828 78.0522 84.1754C77.2675 84.4069 76.4698 84.5613 75.6465 84.6385C75.2348 84.6771 74.836 84.6771 74.4243 84.7028C58.15 84.7157 41.85 84.7157 25.5629 84.7157Z" fill="#FF6666"/>
</g>
<path d="M67.7224 36.936V58.0551C67.4346 66.3539 60.6871 73.0099 52.2752 73.0099C43.8634 73.0099 36.9988 66.343 36.711 58.0551L31.86 50.9323C31.6415 50.6075 31.5614 50.2099 31.6373 49.8265C31.7132 49.4431 31.9389 49.1053 32.2649 48.887C32.5026 48.7228 32.7864 48.6375 33.0758 48.6433C33.3186 48.6419 33.5579 48.7009 33.772 48.8149C33.986 48.9289 34.168 49.0943 34.3014 49.2961L39.7915 57.5307C39.8324 58.0368 40.0679 58.5078 40.449 58.8458C40.8302 59.1838 41.3276 59.3629 41.8381 59.3458C42.3485 59.3287 42.8327 59.1168 43.1901 58.7541C43.5475 58.3913 43.7506 57.9057 43.7572 57.3979H43.7682V29.2051C43.7786 28.8241 43.9382 28.4621 44.213 28.1963C44.4878 27.9305 44.856 27.7817 45.2394 27.7817C45.6229 27.7817 45.9911 27.9305 46.2659 28.1963C46.5407 28.4621 46.7003 28.8241 46.7107 29.2051V53.6457C46.7128 55.073 47.284 56.4413 48.2992 57.4506C49.3144 58.4599 50.6907 59.0278 52.1264 59.0299C53.4622 59.0312 54.7502 58.5361 55.7376 57.6417C56.51 58.3362 57.4677 58.7942 58.4957 58.9604C59.5237 59.1266 60.578 58.994 61.532 58.5785C62.4859 58.163 63.2988 57.4824 63.8729 56.6185C64.4469 55.7545 64.7577 54.7441 64.7678 53.7088V35.6805C64.7678 35.2982 64.9205 34.9316 65.1925 34.6612C65.4644 34.3909 65.8332 34.239 66.2177 34.239C66.6023 34.239 66.9711 34.3909 67.243 34.6612C67.5149 34.9316 67.6677 35.2982 67.6677 35.6805L67.7224 36.936ZM50.6874 46.1204C50.6874 45.9269 50.7257 45.7354 50.8002 45.5567C50.8747 45.3779 50.9838 45.2156 51.1214 45.0788C51.259 44.942 51.4223 44.8335 51.6021 44.7594C51.7818 44.6854 51.9745 44.6473 52.1691 44.6473C52.3637 44.6473 52.5563 44.6854 52.7361 44.7594C52.9159 44.8335 53.0792 44.942 53.2168 45.0788C53.3544 45.2156 53.4635 45.3779 53.538 45.5567C53.6125 45.7354 53.6508 45.9269 53.6508 46.1204V53.6663C53.6508 53.8598 53.6125 54.0513 53.538 54.23C53.4635 54.4088 53.3544 54.5712 53.2168 54.7079C53.0792 54.8447 52.9159 54.9532 52.7361 55.0273C52.5563 55.1013 52.3637 55.1394 52.1691 55.1394C51.9745 55.1394 51.7818 55.1013 51.6021 55.0273C51.4223 54.9532 51.259 54.8447 51.1214 54.7079C50.9838 54.5712 50.8747 54.4088 50.8002 54.23C50.7257 54.0513 50.6874 53.8598 50.6874 53.6663V46.1204ZM57.9251 46.1204C57.9356 45.7365 58.0964 45.3718 58.3732 45.104C58.65 44.8361 59.0211 44.6863 59.4073 44.6863C59.7936 44.6863 60.1647 44.8361 60.4415 45.104C60.7183 45.3718 60.8791 45.7365 60.8896 46.1204V53.6663C60.895 53.8632 60.8606 54.0592 60.7885 54.2426C60.7165 54.4261 60.6081 54.5933 60.47 54.7345C60.3318 54.8756 60.1666 54.9878 59.9841 55.0644C59.8016 55.1411 59.6055 55.1805 59.4073 55.1805C59.2092 55.1805 59.0131 55.1411 58.8306 55.0644C58.6481 54.9878 58.4829 54.8756 58.3447 54.7345C58.2066 54.5933 58.0982 54.4261 58.0262 54.2426C57.9541 54.0592 57.9197 53.8632 57.9251 53.6663V46.1204ZM71.6619 36.936V35.6958C71.6417 34.2866 71.0645 32.942 70.055 31.9526C69.0456 30.9633 67.685 30.4086 66.2675 30.4086C64.85 30.4086 63.4894 30.9633 62.48 31.9526C61.4706 32.942 60.8933 34.2866 60.8732 35.6958V40.9418C60.3904 40.8096 59.8922 40.7419 59.3915 40.7405C58.0559 40.74 56.7681 41.235 55.7803 42.1287C54.7908 41.2376 53.5042 40.743 52.1691 40.7405C51.6684 40.7419 51.1701 40.8096 50.6874 40.9418V29.2051C50.6874 27.7768 50.1167 26.4071 49.1009 25.3971C48.085 24.3872 46.7072 23.8198 45.2706 23.8198C43.834 23.8198 42.4562 24.3872 41.4404 25.3971C40.4245 26.4071 39.8538 27.7768 39.8538 29.2051V50.5189L37.5744 47.1376C37.1819 46.5459 36.6754 46.0372 36.0841 45.641C35.4929 45.2448 34.8286 44.9689 34.1296 44.8291C33.4306 44.6893 32.7107 44.6885 32.0114 44.8267C31.3121 44.9648 30.6472 45.2393 30.055 45.6341C29.4629 46.029 28.9552 46.5365 28.5613 47.1273C28.1673 47.7182 27.895 48.3807 27.7598 49.0767C27.6247 49.7727 27.6294 50.4884 27.7738 51.1826C27.9182 51.8768 28.1994 52.5357 28.6012 53.1213L33.0046 59.6707C34.0705 69.3163 42.2898 76.8198 52.2577 76.8198C62.7794 76.8198 71.3609 68.4579 71.6487 58.0703L71.6619 36.936Z" fill="#6B2E2E"/>
</g>
<defs>
<clipPath id="clip0_18775_1642">
<rect width="100" height="100" fill="white"/>
</clipPath>
<clipPath id="clip1_18775_1642">
<rect width="100" height="69.7157" fill="white" transform="translate(0 15)"/>
</clipPath>
</defs>
</svg>
