<svg width="100" height="70" viewBox="0 15 100 70" fill="none" xmlns="http://www.w3.org/2000/svg">
<g clip-path="url(#clip0_18775_1646)">
<g clip-path="url(#clip1_18775_1646)">
<path fill-rule="evenodd" clip-rule="evenodd" d="M25.5628 84.7157C25.1511 84.69 24.7523 84.69 24.3406 84.6514C23.5301 84.5742 22.7197 84.4198 21.9349 84.1882C20.7642 83.8409 19.632 83.3263 18.6028 82.6701C17.5736 82.014 16.6345 81.2035 15.8369 80.2772C15.1293 79.4539 15.0006 79.1966 14.4217 78.2832L1.7239 56.2839C1.22216 55.3191 1.06778 55.0875 0.707559 54.0583C0.308743 52.9004 0.0771719 51.6911 0.0128466 50.4689C-0.0514786 49.2468 0.0771719 48.0117 0.360203 46.8281C0.553179 46.0305 0.823344 45.2586 1.15784 44.5124C1.32508 44.1393 1.53092 43.792 1.7239 43.4189L14.4217 21.4325C15.0135 20.5191 15.1293 20.2618 15.8369 19.4384C16.6345 18.5122 17.5736 17.7017 18.6028 17.0455C19.632 16.3894 20.7642 15.8748 21.9349 15.5275C22.7197 15.2959 23.5173 15.1415 24.3406 15.0643C24.7523 15.0257 25.1511 15.0257 25.5628 15H74.4371C75.5178 15.0515 75.8008 15.0257 76.8686 15.2316C78.0779 15.4631 79.2358 15.862 80.3293 16.428C81.4229 16.9941 82.4263 17.7017 83.314 18.5508C83.9058 19.1168 84.4461 19.7343 84.9093 20.4033C85.1409 20.7378 85.3467 21.0852 85.5654 21.4325L98.2632 43.4189C98.4562 43.7791 98.6492 44.1393 98.8293 44.5124C99.1638 45.2586 99.4339 46.0305 99.6269 46.8281C99.9099 48.0246 100.039 49.2468 99.9743 50.4689C99.9099 51.6911 99.6784 52.9133 99.2795 54.0583C98.9193 55.0875 98.7649 55.3191 98.2632 56.2839L85.5654 78.2703C84.9736 79.1837 84.8578 79.441 84.1502 80.2644C83.3526 81.1907 82.4135 82.0012 81.3843 82.6573C80.3551 83.3134 79.2229 83.828 78.0522 84.1754C77.2674 84.4069 76.4698 84.5613 75.6465 84.6385C75.2348 84.6771 74.836 84.6771 74.4243 84.7028C58.15 84.7157 41.85 84.7157 25.5628 84.7157Z" fill="#FF6666"/>
</g>
<path d="M77.1215 43.9424C76.8206 42.0715 76.3325 40.2354 75.6643 38.4616C75.4106 37.7866 75.1306 37.1218 74.8249 36.4688C74.5354 35.8503 73.7444 35.6858 73.2107 36.112C72.6881 36.5294 71.9173 36.3803 71.562 35.8137C71.1076 35.0892 70.6223 34.3842 70.1074 33.7008C69.0582 32.31 67.8832 31.0183 66.5974 29.8419C65.4947 28.8394 64.3095 27.9312 63.0544 27.1267C61.8125 26.3289 60.5024 25.6419 59.1395 25.074C57.6174 24.4396 56.0336 23.9638 54.4135 23.6542C51.4353 23.0892 48.3761 23.0999 45.4019 23.6859C43.8119 24.0014 42.258 24.4771 40.7643 25.1057C39.4277 25.6669 38.1426 26.3431 36.9235 27.1267C35.6698 27.9351 34.4863 28.8468 33.3852 29.8524C32.0577 31.0665 30.8485 32.4034 29.774 33.8452C29.2962 34.4865 28.8444 35.1464 28.4197 35.8233C28.0641 36.39 27.2933 36.5392 26.7703 36.1221C26.2361 35.696 25.4449 35.8608 25.1552 36.4796C24.8496 37.1325 24.5696 37.7972 24.316 38.4722C23.6481 40.2444 23.1599 42.0789 22.8587 43.9482C22.4915 46.2363 22.3994 48.56 22.5845 50.8699C22.6923 52.2094 22.8941 53.5397 23.1883 54.851C23.8349 57.7395 24.9349 60.5079 26.4476 63.0539L26.3476 67.4836C26.3394 67.8362 26.401 68.1869 26.5288 68.5158C26.6565 68.8447 26.8479 69.1453 27.0921 69.4003C27.3363 69.6554 27.6284 69.86 27.9519 70.0024C28.2753 70.1448 28.6237 70.2223 28.9771 70.2304L30.2095 70.2586L30.5626 73.8157C30.6329 74.5244 30.9823 75.1764 31.5341 75.6282C32.0858 76.0801 32.7949 76.2949 33.5053 76.2255L38.8633 75.7005C39.2152 75.6663 39.557 75.5631 39.8689 75.397C40.1808 75.2309 40.4568 75.005 40.6812 74.7323C40.9055 74.4596 41.0738 74.1454 41.1763 73.8078C41.2788 73.4702 41.3136 73.1157 41.2787 72.7646L39.4389 54.0512C39.369 53.3424 39.0197 52.6902 38.4678 52.2383C37.9159 51.7864 37.2068 51.5717 36.4962 51.6415L31.1394 52.1664C30.7875 52.2008 30.4458 52.304 30.1339 52.4702C29.822 52.6364 29.5459 52.8622 29.3215 53.1349C29.0971 53.4075 28.9288 53.7216 28.826 54.0592C28.7233 54.3967 28.6883 54.7512 28.7229 55.1023C28.7382 55.2614 28.6293 55.4042 28.4763 55.4506C28.3579 55.4865 28.2425 55.5305 28.1308 55.582C27.6047 55.8246 26.8251 55.6912 26.6671 55.1338C26.5484 54.7149 26.4411 54.2929 26.3452 53.868C25.9428 52.0765 25.7449 50.2477 25.7537 48.4166C25.7607 46.9501 26.5695 45.6284 27.7757 44.7944L28.2857 44.4418C29.1368 43.8533 29.7708 43.0092 30.185 42.061C30.323 41.745 30.4673 41.4318 30.618 41.1216C31.3128 39.6937 32.1403 38.3341 33.0898 37.0606C33.974 35.875 34.967 34.7742 36.056 33.7724C36.9897 32.9135 37.9954 32.1359 39.0622 31.4484C40.0427 30.8152 41.0747 30.2653 42.1473 29.8043C44.6453 28.7301 47.3381 28.1806 50.0581 28.1899C52.7782 28.1992 55.4672 28.7671 57.9577 29.8583C59.027 30.3256 60.0554 30.8811 61.0322 31.5188C62.0959 32.2147 63.0978 33.0005 64.0266 33.8676C65.1278 34.8925 66.1288 36.0195 67.0164 37.2333C68.115 38.7373 69.0441 40.3557 69.788 42.0589C70.2026 43.0083 70.837 43.8537 71.6891 44.4429L72.1975 44.7944C73.4037 45.6284 74.2125 46.9501 74.2196 48.4166C74.2284 50.2481 74.0305 52.0772 73.628 53.8692C73.5321 54.294 73.4248 54.7161 73.306 55.135C73.1481 55.6924 72.3685 55.8258 71.8423 55.5831C71.7307 55.5317 71.6153 55.4877 71.4969 55.4518C71.3439 55.4054 71.235 55.2626 71.2503 55.1035C71.2849 54.7524 71.2499 54.3979 71.1472 54.0603C71.0444 53.7228 70.8761 53.4087 70.6517 53.1361C70.4272 52.8634 70.1512 52.6376 69.8393 52.4714C69.5274 52.3052 69.1857 52.202 68.8338 52.1676L63.477 51.6426C62.7664 51.5729 62.0572 51.7876 61.5054 52.2395C60.9535 52.6914 60.6042 53.3435 60.5343 54.0524L58.6992 72.7658C58.6643 73.1169 58.6991 73.4714 58.8016 73.809C58.9041 74.1466 59.0724 74.4608 59.2967 74.7335C59.521 75.0061 59.7971 75.232 60.109 75.3982C60.4209 75.5643 60.7627 75.6675 61.1146 75.7017L66.4679 76.2255C67.1783 76.2949 67.8874 76.0801 68.4391 75.6282C68.9909 75.1764 69.3403 74.5244 69.4105 73.8157L69.7637 70.2586L70.9961 70.2304C71.3495 70.2223 71.6979 70.1448 72.0213 70.0024C72.3447 69.86 72.6369 69.6554 72.8811 69.4003C73.1253 69.1453 73.3167 68.8447 73.4444 68.5158C73.5722 68.1869 73.6338 67.8362 73.6256 67.4836L73.5303 63.0539C75.046 60.5065 76.1484 57.7361 76.7966 54.8451C77.0909 53.5338 77.2926 52.2035 77.4005 50.864C77.584 48.554 77.4904 46.2303 77.1215 43.9424Z" fill="#6B2E2E"/>
</g>
<defs>
<clipPath id="clip0_18775_1646">
<rect width="100" height="100" fill="white"/>
</clipPath>
<clipPath id="clip1_18775_1646">
<rect width="100" height="69.7157" fill="white" transform="translate(0 15)"/>
</clipPath>
</defs>
</svg>
