<svg width="100" height="70" viewBox="0 15 100 70" fill="none" xmlns="http://www.w3.org/2000/svg">
<g clip-path="url(#clip0_18775_1637)">
<g clip-path="url(#clip1_18775_1637)">
<path fill-rule="evenodd" clip-rule="evenodd" d="M25.5629 84.7157C25.1512 84.69 24.7524 84.69 24.3407 84.6514C23.5302 84.5742 22.7197 84.4198 21.9349 84.1882C20.7642 83.8409 19.6321 83.3263 18.6029 82.6701C17.5737 82.014 16.6345 81.2035 15.8369 80.2772C15.1293 79.4539 15.0007 79.1966 14.4217 78.2832L1.72393 56.2839C1.22219 55.3191 1.06781 55.0875 0.70759 54.0583C0.308773 52.9004 0.0772024 51.6911 0.0128772 50.4689C-0.0514481 49.2468 0.0772024 48.0117 0.360233 46.8281C0.553209 46.0305 0.823375 45.2586 1.15787 44.5124C1.32511 44.1393 1.53095 43.792 1.72393 43.4189L14.4217 21.4325C15.0135 20.5191 15.1293 20.2618 15.8369 19.4384C16.6345 18.5122 17.5737 17.7017 18.6029 17.0455C19.6321 16.3894 20.7642 15.8748 21.9349 15.5275C22.7197 15.2959 23.5173 15.1415 24.3407 15.0643C24.7524 15.0257 25.1512 15.0257 25.5629 15H74.4372C75.5178 15.0515 75.8009 15.0257 76.8687 15.2316C78.078 15.4631 79.2358 15.862 80.3294 16.428C81.4229 16.9941 82.4264 17.7017 83.314 18.5508C83.9058 19.1168 84.4462 19.7343 84.9093 20.4033C85.1409 20.7378 85.3467 21.0852 85.5654 21.4325L98.2632 43.4189C98.4562 43.7791 98.6492 44.1393 98.8293 44.5124C99.1638 45.2586 99.434 46.0305 99.6269 46.8281C99.91 48.0246 100.039 49.2468 99.9743 50.4689C99.91 51.6911 99.6784 52.9133 99.2796 54.0583C98.9193 55.0875 98.765 55.3191 98.2632 56.2839L85.5654 78.2703C84.9736 79.1837 84.8578 79.441 84.1503 80.2644C83.3526 81.1907 82.4135 82.0012 81.3843 82.6573C80.3551 83.3134 79.223 83.828 78.0522 84.1754C77.2675 84.4069 76.4698 84.5613 75.6465 84.6385C75.2348 84.6771 74.836 84.6771 74.4243 84.7028C58.15 84.7157 41.85 84.7157 25.5629 84.7157Z" fill="#B2FF66"/>
</g>
<path d="M66.2815 56.0831C65.7403 55.5423 65.5658 54.7425 65.758 54.0018C66.4424 51.3647 66.4424 48.5958 65.758 45.9586C65.5658 45.218 65.7403 44.4182 66.2815 43.8773L69.5518 40.6089C70.5025 39.6588 72.1014 39.901 72.595 41.1511C73.7023 43.9548 74.2753 46.9497 74.2753 49.9802C74.2753 53.0108 73.7023 56.0056 72.595 58.8094C72.1014 60.0595 70.5025 60.3017 69.5518 59.3516L66.2815 56.0831ZM50.2715 61.9804C47.8981 61.9804 45.578 61.2766 43.6045 59.958C41.6311 58.6394 40.093 56.7652 39.1848 54.5725C38.2765 52.3798 38.0389 49.9669 38.5019 47.6391C38.9649 45.3113 40.1078 43.1731 41.7861 41.4948C43.4643 39.8166 45.6026 38.6737 47.9304 38.2106C50.2582 37.7476 52.671 37.9853 54.8638 38.8935C57.0565 39.8018 58.9307 41.3399 60.2493 43.3133C61.5679 45.2867 62.2717 47.6068 62.2717 49.9802C62.271 53.1627 61.0065 56.2146 58.7562 58.4649C56.5059 60.7153 53.4539 61.9798 50.2715 61.9804ZM50.2715 73.9806C47.2434 73.978 44.251 73.4059 41.4481 72.3027C40.1962 71.8099 39.9527 70.2091 40.9041 69.2577L44.1686 65.9932C44.7095 65.4523 45.5091 65.278 46.2495 65.4701C48.8869 66.1547 51.6561 66.1547 54.2935 65.4701C55.0339 65.278 55.8335 65.4523 56.3744 65.9932L59.6389 69.2577C60.5902 70.2091 60.3468 71.8099 59.0948 72.3027C56.2919 73.4059 53.2996 73.978 50.2715 73.9806ZM30.9912 59.3505C30.0406 60.301 28.4413 60.0589 27.9476 58.8086C26.8406 56.0051 26.2677 53.0105 26.2677 49.9802C26.2677 46.95 26.8406 43.9554 27.9476 41.1518C28.4413 39.9015 30.0406 39.6595 30.9912 40.61L34.2585 43.8773C34.7994 44.4182 34.9737 45.2178 34.7816 45.9582C34.097 48.5956 34.097 51.3648 34.7816 54.0022C34.9737 54.7426 34.7994 55.5422 34.2585 56.0831L30.9912 59.3505ZM50.2715 25.9805C50.2715 25.9808 50.2717 25.9811 50.2721 25.9811C53.3001 25.9834 56.2923 26.5552 59.0952 27.6582C60.347 28.1508 60.5908 29.7514 59.6398 30.7029L56.3744 33.9702C55.8335 34.5114 55.0337 34.6859 54.2931 34.4937C51.656 33.8093 48.887 33.8093 46.2499 34.4937C45.5093 34.6859 44.7095 34.5114 44.1686 33.9702L40.903 30.7027C39.952 29.7513 40.1957 28.1508 41.4474 27.6581C44.2503 26.5547 47.2427 25.9825 50.2709 25.9799C50.2712 25.9799 50.2715 25.9802 50.2715 25.9805ZM50.2715 21.9808C50.2715 21.9811 50.2712 21.9814 50.2709 21.9814C34.8023 21.9817 22.2715 34.5127 22.2715 49.9814C22.2715 65.4503 34.8026 77.9802 50.2715 77.9802C65.7404 77.9802 78.2715 65.4491 78.2715 49.9802C78.2715 34.5115 65.7407 21.9805 50.2721 21.9802C50.2718 21.9802 50.2715 21.9805 50.2715 21.9808Z" fill="#4C6B2E"/>
</g>
<defs>
<clipPath id="clip0_18775_1637">
<rect width="100" height="100" fill="white"/>
</clipPath>
<clipPath id="clip1_18775_1637">
<rect width="100" height="69.7157" fill="white" transform="translate(0 15)"/>
</clipPath>
</defs>
</svg>
