<svg width="100" height="70" viewBox="0 0 100 70" fill="none" xmlns="http://www.w3.org/2000/svg" data-background="#FFCC22" data-foreground="#594605" data-extender="#433609">
<!-- Derived from ppy/osu-web/public/images/badges/mods/mod-no-mod.svg. -->
<svg width="100" height="70" viewBox="0 0 100 70" fill="none" xmlns="http://www.w3.org/2000/svg">
<g clip-path="url(#clip0_1101_4)">
<path fill-rule="evenodd" clip-rule="evenodd" d="M25.5678 70C25.1561 69.9742 24.7572 69.9742 24.3455 69.9354C23.535 69.8579 22.7244 69.7029 21.9396 69.4704C20.7688 69.1216 19.6367 68.6049 18.6074 67.9461C17.5781 67.2873 16.6389 66.4735 15.8412 65.5435C15.1336 64.7167 15.005 64.4584 14.426 63.5412L1.72742 41.4523C1.22565 40.4835 1.07126 40.251 0.71102 39.2176C0.31218 38.055 0.0805947 36.8407 0.0162656 35.6136C-0.0480635 34.3864 0.0805947 33.1463 0.363643 31.9579C0.55663 31.157 0.826813 30.382 1.16132 29.6328C1.32858 29.2582 1.53443 28.9094 1.72742 28.5348L14.426 6.45876C15.0178 5.54161 15.1336 5.28326 15.8412 4.45654C16.6389 3.52648 17.5781 2.71268 18.6074 2.05388C19.6367 1.39509 20.7688 0.878391 21.9396 0.529618C22.7244 0.297103 23.5221 0.142093 24.3455 0.0645876C24.7572 0.025835 25.1561 0.025835 25.5678 0H74.4451C75.5258 0.05167 75.8088 0.025835 76.8767 0.232515C78.0861 0.46503 79.244 0.865473 80.3376 1.43384C81.4312 2.00221 82.4347 2.71268 83.3225 3.56523C83.9143 4.1336 84.4547 4.75364 84.9179 5.42535C85.1494 5.76121 85.3553 6.10998 85.574 6.45876L98.2726 28.5348C98.4656 28.8965 98.6586 29.2582 98.8387 29.6328C99.1732 30.382 99.4434 31.157 99.6364 31.9579C99.9194 33.1593 100.048 34.3864 99.9837 35.6136C99.9194 36.8407 99.6878 38.0679 99.289 39.2176C98.9287 40.251 98.7743 40.4835 98.2726 41.4523L85.574 63.5283C84.9822 64.4455 84.8664 64.7038 84.1588 65.5305C83.3611 66.4606 82.4219 67.2744 81.3926 67.9332C80.3633 68.592 79.2312 69.1087 78.0604 69.4575C77.2756 69.69 76.4779 69.845 75.6545 69.9225C75.2428 69.9612 74.8439 69.9612 74.4322 69.9871C58.1569 70 41.8559 70 25.5678 70Z" fill="#FFCC22"/>
</g>
<defs>
<clipPath id="clip0_1101_4">
<rect width="100" height="69.7157" fill="#FFCC22"/>
</clipPath>
</defs>
</svg>

<svg width="100" height="70" viewBox="0 0 120 84" fill="none" xmlns="http://www.w3.org/2000/svg">
<g clip-path="url(#clip0_18898_8557)">
<path fill-rule="evenodd" clip-rule="evenodd" d="M83.288 34.6426C84.3631 37.7676 84.807 41.075 84.5938 44.3729C84.3806 47.6708 83.5146 50.8935 82.0461 53.8541C80.5776 56.8147 78.5357 59.4541 76.0391 61.6194C73.5424 63.7846 70.6406 65.4325 67.502 66.4674C64.3634 67.5022 61.0506 67.9036 57.7557 67.648C54.4608 67.3925 51.2495 66.4852 48.308 64.9787C45.3666 63.4723 42.7536 61.3967 40.6206 58.8724C38.4876 56.3481 36.8772 53.4254 35.8827 50.2738C33.9074 44.0138 34.4776 37.2276 37.4698 31.385C40.462 25.5424 45.6354 21.1138 51.8695 19.0582C58.1036 17.0026 64.8965 17.4855 70.7771 20.4024C76.6577 23.3194 81.1524 28.4354 83.288 34.6426ZM78.2523 43.8466C78.4346 41.3944 78.1322 38.9303 77.3622 36.595C76.5922 34.2597 75.3698 32.0989 73.7648 30.236C72.1597 28.3731 70.2035 26.8446 68.0077 25.7377C65.812 24.6308 63.4197 23.9673 60.9675 23.785C58.5153 23.6027 56.0512 23.9051 53.7159 24.6751C51.3806 25.445 49.2198 26.6674 47.3569 28.2725C45.494 29.8775 43.9655 31.8338 42.8586 34.0295C41.7518 36.2253 41.0882 38.6176 40.9059 41.0698C40.5377 46.0222 42.1519 50.9181 45.3934 54.6804C48.6349 58.4427 53.2383 60.7632 58.1907 61.1314C63.1431 61.4996 68.039 59.8854 71.8013 56.6439C75.5636 53.4023 77.8841 48.799 78.2523 43.8466Z" fill="#594605"/>
<path d="M38.1205 69.6252L37.8857 69.8384C36.6602 70.8387 34.8507 70.7677 33.7082 69.6252C32.5656 68.4826 32.4946 66.6731 33.4949 65.4476L33.7082 65.2128L82.3366 16.5844C83.555 15.3659 85.5305 15.3659 86.749 16.5844C87.9674 17.8028 87.9674 19.7783 86.749 20.9967L38.1205 69.6252Z" fill="#594605"/>
</g>
<defs>
<clipPath id="clip0_18898_8557">
<rect width="120" height="84" fill="#594605"/>
</clipPath>
</defs>
</svg>

</svg>
