<svg width="100" height="70" viewBox="0 15 100 70" fill="none" xmlns="http://www.w3.org/2000/svg">
<g clip-path="url(#clip0_18775_1641)">
<g clip-path="url(#clip1_18775_1641)">
<path fill-rule="evenodd" clip-rule="evenodd" d="M25.5628 84.7157C25.1511 84.69 24.7523 84.69 24.3406 84.6514C23.5301 84.5742 22.7197 84.4198 21.9349 84.1882C20.7642 83.8409 19.632 83.3263 18.6028 82.6701C17.5736 82.014 16.6345 81.2035 15.8369 80.2772C15.1293 79.4539 15.0006 79.1966 14.4217 78.2832L1.7239 56.2839C1.22216 55.3191 1.06778 55.0875 0.707559 54.0583C0.308743 52.9004 0.0771719 51.6911 0.0128466 50.4689C-0.0514786 49.2468 0.0771719 48.0117 0.360203 46.8281C0.553179 46.0305 0.823344 45.2586 1.15784 44.5124C1.32508 44.1393 1.53092 43.792 1.7239 43.4189L14.4217 21.4325C15.0135 20.5191 15.1293 20.2618 15.8369 19.4384C16.6345 18.5122 17.5736 17.7017 18.6028 17.0455C19.632 16.3894 20.7642 15.8748 21.9349 15.5275C22.7197 15.2959 23.5173 15.1415 24.3406 15.0643C24.7523 15.0257 25.1511 15.0257 25.5628 15H74.4371C75.5178 15.0515 75.8008 15.0257 76.8686 15.2316C78.0779 15.4631 79.2358 15.862 80.3293 16.428C81.4229 16.9941 82.4263 17.7017 83.314 18.5508C83.9058 19.1168 84.4461 19.7343 84.9093 20.4033C85.1409 20.7378 85.3467 21.0852 85.5654 21.4325L98.2632 43.4189C98.4562 43.7791 98.6492 44.1393 98.8293 44.5124C99.1638 45.2586 99.4339 46.0305 99.6269 46.8281C99.9099 48.0246 100.039 49.2468 99.9743 50.4689C99.9099 51.6911 99.6784 52.9133 99.2795 54.0583C98.9193 55.0875 98.7649 55.3191 98.2632 56.2839L85.5654 78.2703C84.9736 79.1837 84.8578 79.441 84.1502 80.2644C83.3526 81.1907 82.4135 82.0012 81.3843 82.6573C80.3551 83.3134 79.2229 83.828 78.0522 84.1754C77.2674 84.4069 76.4698 84.5613 75.6465 84.6385C75.2348 84.6771 74.836 84.6771 74.4243 84.7028C58.15 84.7157 41.85 84.7157 25.5628 84.7157Z" fill="#B2FF66"/>
</g>
<path d="M35.4064 30.2522L54.6757 30.2522L54.6757 24.3876L35.4064 24.3876L35.4064 30.2522Z" stroke="#4C6B2E" stroke-width="5" stroke-linejoin="round"/>
<path d="M54.9528 30.2522C60.7448 36.9215 64.0682 40.7868 64.9229 41.848C66.205 43.4398 65.6666 45.2377 62.4575 45.2377C59.2484 45.2377 57.3978 40.289 54.9528 40.289C54.938 40.2853 54.9371 46.6141 54.9501 59.2756C54.9506 59.6446 54.882 60.0101 54.7484 60.3513C54.6148 60.6924 54.4187 61.0024 54.1713 61.2636C53.924 61.5249 53.6302 61.7321 53.3068 61.8737C52.9834 62.0152 52.6367 62.0881 52.2865 62.0884L52.2839 62.0884C51.9333 62.0885 51.5862 62.0158 51.2622 61.8745C50.9383 61.7332 50.644 61.5261 50.3961 61.2649C50.1482 61.0036 49.9515 60.6935 49.8173 60.3522C49.6831 60.0109 49.6141 59.645 49.6141 59.2756L49.6141 51.7753C42.5314 50.6442 41.3093 50.0331 40.6903 49.9157C39.7619 49.7397 35.3597 48.9793 35.4069 42.4248L35.4069 30.2522L54.9528 30.2522Z" stroke="#4C6B2E" stroke-width="5" stroke-linejoin="round"/>
<path d="M33.7582 75.8437V75.8437C33.7582 71.4857 37.291 67.9529 41.649 67.9529H59.3244C63.6823 67.9529 67.2152 71.4857 67.2152 75.8437V75.8437" stroke="#4C6B2E" stroke-width="5" stroke-linecap="round"/>
</g>
<defs>
<clipPath id="clip0_18775_1641">
<rect width="100" height="100" fill="white"/>
</clipPath>
<clipPath id="clip1_18775_1641">
<rect width="100" height="69.7157" fill="white" transform="translate(0 15)"/>
</clipPath>
</defs>
</svg>
