<svg width="100" height="70" viewBox="0 15 100 70" fill="none" xmlns="http://www.w3.org/2000/svg">
<g clip-path="url(#clip0_18775_1644)">
<g clip-path="url(#clip1_18775_1644)">
<path fill-rule="evenodd" clip-rule="evenodd" d="M25.5628 84.7157C25.1511 84.69 24.7523 84.69 24.3406 84.6514C23.5301 84.5742 22.7197 84.4198 21.9349 84.1882C20.7642 83.8409 19.632 83.3263 18.6028 82.6701C17.5736 82.014 16.6345 81.2035 15.8369 80.2772C15.1293 79.4539 15.0006 79.1966 14.4217 78.2832L1.7239 56.2839C1.22216 55.3191 1.06778 55.0875 0.707559 54.0583C0.308743 52.9004 0.0771719 51.6911 0.0128466 50.4689C-0.0514786 49.2468 0.0771719 48.0117 0.360203 46.8281C0.553179 46.0305 0.823344 45.2586 1.15784 44.5124C1.32508 44.1393 1.53092 43.792 1.7239 43.4189L14.4217 21.4325C15.0135 20.5191 15.1293 20.2618 15.8369 19.4384C16.6345 18.5122 17.5736 17.7017 18.6028 17.0455C19.632 16.3894 20.7642 15.8748 21.9349 15.5275C22.7197 15.2959 23.5173 15.1415 24.3406 15.0643C24.7523 15.0257 25.1511 15.0257 25.5628 15H74.4371C75.5178 15.0515 75.8008 15.0257 76.8686 15.2316C78.0779 15.4631 79.2358 15.862 80.3293 16.428C81.4229 16.9941 82.4263 17.7017 83.314 18.5508C83.9058 19.1168 84.4461 19.7343 84.9093 20.4033C85.1409 20.7378 85.3467 21.0852 85.5654 21.4325L98.2632 43.4189C98.4562 43.7791 98.6492 44.1393 98.8293 44.5124C99.1638 45.2586 99.4339 46.0305 99.6269 46.8281C99.9099 48.0246 100.039 49.2468 99.9743 50.4689C99.9099 51.6911 99.6784 52.9133 99.2795 54.0583C98.9193 55.0875 98.7649 55.3191 98.2632 56.2839L85.5654 78.2703C84.9736 79.1837 84.8578 79.441 84.1502 80.2644C83.3526 81.1907 82.4135 82.0012 81.3843 82.6573C80.3551 83.3134 79.2229 83.828 78.0522 84.1754C77.2674 84.4069 76.4698 84.5613 75.6465 84.6385C75.2348 84.6771 74.836 84.6771 74.4243 84.7028C58.15 84.7157 41.85 84.7157 25.5628 84.7157Z" fill="#FF6666"/>
</g>
<path d="M48.4435 28.4998L46.2748 26.3311M44.7214 35.9536H42.5527M64.8539 27.7229L67.0226 25.5542M67.0226 34.2289H69.1913" stroke="#6B2E2E" stroke-width="4.33734" stroke-linecap="round" stroke-linejoin="round"/>
<path d="M58.3917 50.0669L56.2534 49.7112C56.2017 50.0218 56.2183 50.3398 56.302 50.6433C56.3857 50.9468 56.5344 51.2284 56.7379 51.4686C56.9414 51.7088 57.1947 51.9018 57.4803 52.0343C57.7659 52.1667 58.0769 52.2354 58.3917 52.2355V50.0669ZM30.5363 50.0669V47.8982C29.9612 47.8982 29.4096 48.1267 29.0029 48.5334C28.5961 48.9401 28.3677 49.4917 28.3677 50.0669H30.5363ZM34.8737 73.9222H63.5097V69.5849H34.8737V73.9222ZM66.1121 47.8982H58.3917V52.2355H66.1121V47.8982ZM60.5322 50.4225L62.2779 37.7684L58.0013 37.0549L56.2534 49.7112L60.5322 50.4225ZM58.0013 32.7175H57.5372V37.0549H58.0013V32.7175ZM50.3177 36.5799L44.8657 46.9331L48.4744 49.3404L53.9307 38.9871L50.3177 36.5799ZM43.0592 47.8982H30.5363V52.2355H43.0592V47.8982ZM28.3677 50.0669V67.4162H32.705V50.0669H28.3677ZM69.89 68.6914L72.4924 55.6794L68.2418 54.8293L65.6394 67.8413L69.89 68.6914ZM44.8657 46.9331C44.6676 47.2301 44.3971 47.4735 44.0823 47.6419C43.7676 47.8102 43.4161 47.8983 43.0592 47.8982V52.2355C44.1302 52.2355 45.1847 51.971 46.129 51.4655C47.0732 50.9601 47.8781 50.2294 48.4722 49.3382L44.8657 46.9331ZM62.2779 37.7684C62.3815 37.1471 62.3486 36.5108 62.1814 35.9035C62.0142 35.2963 61.7168 34.7328 61.3098 34.2521C60.9028 33.7714 60.3961 33.3852 59.8247 33.1202C59.2534 32.8552 58.6311 32.7178 58.0013 32.7175V37.0549L62.2779 37.7684ZM66.1121 52.2355C66.4331 52.2354 66.75 52.3065 67.0401 52.4437C67.3302 52.5809 67.5862 52.7807 67.7898 53.0289C67.9933 53.277 68.1392 53.5672 68.217 53.8785C68.2948 54.1899 68.3047 54.5146 68.2418 54.8293L72.4924 55.6794C72.681 54.7357 72.6579 53.7619 72.4248 52.8282C72.1917 51.8945 71.7543 51.0241 71.1442 50.2799C70.5342 49.5356 69.7666 48.9359 68.8968 48.5241C68.027 48.1122 67.0767 47.8985 66.1143 47.8982L66.1121 52.2355ZM63.5097 73.9222C65.014 73.9223 66.4718 73.4012 67.635 72.4475C68.7983 71.4938 69.5951 70.1665 69.89 68.6914L65.6394 67.8413C65.541 68.3334 65.275 68.7763 64.8866 69.0942C64.4983 69.4122 64.0116 69.5856 63.5097 69.5849V73.9222ZM57.5372 32.7175C56.1092 32.7176 54.7034 33.0701 53.4443 33.7439C52.1853 34.4177 51.1099 35.3918 50.3177 36.5799L53.9307 38.9871C54.3267 38.3929 54.8611 37.9056 55.4906 37.5685C56.1201 37.2314 56.8231 37.055 57.5372 37.0549V32.7175ZM34.8737 69.5849C34.2985 69.5849 32.705 69.5849 32.705 69.5849C32.705 69.5849 32.705 67.9914 32.705 67.4162H28.3677C28.3677 70.7015 28.1717 71.3054 29.3918 72.5255C30.6119 73.7456 31.4987 73.9222 34.8737 73.9222V69.5849Z" fill="#6B2E2E"/>
<path d="M38.2111 50.0669V71.7536" stroke="#6B2E2E" stroke-width="4.33734"/>
</g>
<defs>
<clipPath id="clip0_18775_1644">
<rect width="100" height="100" fill="white"/>
</clipPath>
<clipPath id="clip1_18775_1644">
<rect width="100" height="69.7157" fill="white" transform="translate(0 15)"/>
</clipPath>
</defs>
</svg>
