<svg width="100" height="70" viewBox="0 15 100 70" fill="none" xmlns="http://www.w3.org/2000/svg">
<g clip-path="url(#clip0_18775_1662)">
<g clip-path="url(#clip1_18775_1662)">
<path fill-rule="evenodd" clip-rule="evenodd" d="M25.5628 84.7157C25.1511 84.69 24.7523 84.69 24.3406 84.6514C23.5301 84.5742 22.7197 84.4198 21.9349 84.1882C20.7642 83.8409 19.632 83.3263 18.6028 82.6701C17.5736 82.014 16.6345 81.2035 15.8369 80.2772C15.1293 79.4539 15.0006 79.1966 14.4217 78.2832L1.7239 56.2839C1.22216 55.3191 1.06778 55.0875 0.707559 54.0583C0.308743 52.9004 0.0771719 51.6911 0.0128466 50.4689C-0.0514786 49.2468 0.0771719 48.0117 0.360203 46.8281C0.553179 46.0305 0.823344 45.2586 1.15784 44.5124C1.32508 44.1393 1.53092 43.792 1.7239 43.4189L14.4217 21.4325C15.0135 20.5191 15.1293 20.2618 15.8369 19.4384C16.6345 18.5122 17.5736 17.7017 18.6028 17.0455C19.632 16.3894 20.7642 15.8748 21.9349 15.5275C22.7197 15.2959 23.5173 15.1415 24.3406 15.0643C24.7523 15.0257 25.1511 15.0257 25.5628 15H74.4371C75.5178 15.0515 75.8008 15.0257 76.8686 15.2316C78.0779 15.4631 79.2358 15.862 80.3293 16.428C81.4229 16.9941 82.4263 17.7017 83.314 18.5508C83.9058 19.1168 84.4461 19.7343 84.9093 20.4033C85.1409 20.7378 85.3467 21.0852 85.5654 21.4325L98.2632 43.4189C98.4562 43.7791 98.6492 44.1393 98.8293 44.5124C99.1638 45.2586 99.4339 46.0305 99.6269 46.8281C99.9099 48.0246 100.039 49.2468 99.9743 50.4689C99.9099 51.6911 99.6784 52.9133 99.2795 54.0583C98.9193 55.0875 98.7649 55.3191 98.2632 56.2839L85.5654 78.2703C84.9736 79.1837 84.8578 79.441 84.1502 80.2644C83.3526 81.1907 82.4135 82.0012 81.3843 82.6573C80.3551 83.3134 79.2229 83.828 78.0522 84.1754C77.2674 84.4069 76.4698 84.5613 75.6465 84.6385C75.2348 84.6771 74.836 84.6771 74.4243 84.7028C58.15 84.7157 41.85 84.7157 25.5628 84.7157Z" fill="#8C66FF"/>
</g>
<path d="M77.0609 59.9433C77.3024 60.1839 77.494 60.4699 77.6247 60.7847C77.7555 61.0996 77.8228 61.4372 77.8228 61.7781C77.8228 62.1191 77.7555 62.4566 77.6247 62.7715C77.494 63.0864 77.3024 63.3723 77.0609 63.613L71.88 68.7938C71.3934 69.2805 70.7334 69.5539 70.0452 69.5539C69.357 69.5539 68.6969 69.2805 68.2103 68.7938C67.7237 68.3072 67.4503 67.6472 67.4503 66.959C67.4503 66.2707 67.7237 65.6107 68.2103 65.1241L68.968 64.3664H68.5168C65.9057 64.3635 63.3327 63.7388 61.011 62.5439C58.6892 61.3491 56.6854 59.6185 55.1654 57.4953L46.168 44.8908C45.1282 43.4378 43.7572 42.2534 42.1685 41.4358C40.5798 40.6182 38.8192 40.1909 37.0325 40.1892H25.1468C24.4598 40.1892 23.8009 39.9163 23.3151 39.4305C22.8293 38.9447 22.5564 38.2858 22.5564 37.5988C22.5564 36.9118 22.8293 36.2529 23.3151 35.7671C23.8009 35.2813 24.4598 35.0084 25.1468 35.0084H37.0325C39.6437 35.0112 42.2166 35.636 44.5384 36.8308C46.8601 38.0257 48.8639 39.7563 50.3839 41.8794L59.3878 54.484C60.4276 55.937 61.7986 57.1213 63.3873 57.9389C64.976 58.7565 66.7366 59.1839 68.5233 59.1856H68.968L68.2081 58.4279C67.7215 57.9412 67.4481 57.2812 67.4481 56.593C67.4481 55.9048 67.7215 55.2448 68.2081 54.7581C68.6948 54.2715 69.3548 53.9981 70.043 53.9981C70.7312 53.9981 71.3912 54.2715 71.8779 54.7581L77.0609 59.9433ZM56.4196 44.2669C56.9366 44.7191 57.6121 44.9474 58.2974 44.9017C58.9828 44.8559 59.6219 44.5399 60.0742 44.023C61.1279 42.8187 62.4269 41.8535 63.8841 41.1923C65.3413 40.5311 66.9231 40.1891 68.5233 40.1892H68.968L68.2081 40.9469C67.7215 41.4335 67.4481 42.0935 67.4481 42.7818C67.4481 43.47 67.7215 44.13 68.2081 44.6166C68.6948 45.1033 69.3548 45.3767 70.043 45.3767C70.7312 45.3767 71.3912 45.1033 71.8779 44.6166L77.0587 39.4358C77.3002 39.1952 77.4918 38.9092 77.6226 38.5943C77.7533 38.2794 77.8206 37.9419 77.8206 37.6009C77.8206 37.26 77.7533 36.9224 77.6226 36.6075C77.4918 36.2927 77.3002 36.0067 77.0587 35.7661L71.8779 30.5852C71.3912 30.0986 70.7312 29.8252 70.043 29.8252C69.3548 29.8252 68.6948 30.0986 68.2081 30.5852C67.7215 31.0719 67.4481 31.7319 67.4481 32.4201C67.4481 33.1083 67.7215 33.7683 68.2081 34.255L68.968 35.0084H68.5168C66.1775 35.0095 63.8655 35.5109 61.7358 36.4789C59.6062 37.4469 57.7082 38.8592 56.1692 40.6209C55.7205 41.1383 55.4949 41.8124 55.5418 42.4956C55.5888 43.1789 55.9044 43.8157 56.4196 44.2669ZM49.1362 55.1078C48.6192 54.6556 47.9437 54.4273 47.2584 54.4731C46.573 54.5188 45.9339 54.8349 45.4816 55.3517C44.4279 56.5561 43.1289 57.5212 41.6717 58.1825C40.2145 58.8437 38.6327 59.1857 37.0325 59.1856H25.1468C24.4598 59.1856 23.8009 59.4585 23.3151 59.9443C22.8293 60.4301 22.5564 61.089 22.5564 61.776C22.5564 62.463 22.8293 63.1219 23.3151 63.6077C23.8009 64.0935 24.4598 64.3664 25.1468 64.3664H37.0325C39.3718 64.3653 41.6838 63.8639 43.8135 62.8959C45.9431 61.9279 47.8411 60.5156 49.3801 58.7538C49.8296 58.2372 50.0563 57.5637 50.0106 56.8805C49.9649 56.1972 49.6505 55.5599 49.1362 55.1078Z" fill="#3D2E6B"/>
</g>
<defs>
<clipPath id="clip0_18775_1662">
<rect width="100" height="100" fill="white"/>
</clipPath>
<clipPath id="clip1_18775_1662">
<rect width="100" height="100" fill="white"/>
</clipPath>
</defs>
</svg>
