<svg width="100" height="70" viewBox="0 15 100 70" fill="none" xmlns="http://www.w3.org/2000/svg">
<g clip-path="url(#clip0_18775_1693)">
<g clip-path="url(#clip1_18775_1693)">
<path fill-rule="evenodd" clip-rule="evenodd" d="M25.5628 84.7157C25.1511 84.69 24.7523 84.69 24.3406 84.6514C23.5301 84.5742 22.7197 84.4198 21.9349 84.1882C20.7642 83.8409 19.632 83.3263 18.6028 82.6701C17.5736 82.014 16.6345 81.2035 15.8369 80.2772C15.1293 79.4539 15.0006 79.1966 14.4217 78.2832L1.7239 56.2839C1.22216 55.3191 1.06778 55.0875 0.707559 54.0583C0.308743 52.9004 0.0771719 51.6911 0.0128466 50.4689C-0.0514786 49.2468 0.0771719 48.0117 0.360203 46.8281C0.553179 46.0305 0.823344 45.2586 1.15784 44.5124C1.32508 44.1393 1.53092 43.792 1.7239 43.4189L14.4217 21.4325C15.0135 20.5191 15.1293 20.2618 15.8369 19.4384C16.6345 18.5122 17.5736 17.7017 18.6028 17.0455C19.632 16.3894 20.7642 15.8748 21.9349 15.5275C22.7197 15.2959 23.5173 15.1415 24.3406 15.0643C24.7523 15.0257 25.1511 15.0257 25.5628 15H74.4371C75.5178 15.0515 75.8008 15.0257 76.8686 15.2316C78.0779 15.4631 79.2358 15.862 80.3293 16.428C81.4229 16.9941 82.4263 17.7017 83.314 18.5508C83.9058 19.1168 84.4461 19.7343 84.9093 20.4033C85.1409 20.7378 85.3467 21.0852 85.5654 21.4325L98.2632 43.4189C98.4562 43.7791 98.6492 44.1393 98.8293 44.5124C99.1638 45.2586 99.4339 46.0305 99.6269 46.8281C99.9099 48.0246 100.039 49.2468 99.9743 50.4689C99.9099 51.6911 99.6784 52.9133 99.2795 54.0583C98.9193 55.0875 98.7649 55.3191 98.2632 56.2839L85.5654 78.2703C84.9736 79.1837 84.8578 79.441 84.1502 80.2644C83.3526 81.1907 82.4135 82.0012 81.3843 82.6573C80.3551 83.3134 79.2229 83.828 78.0522 84.1754C77.2674 84.4069 76.4698 84.5613 75.6465 84.6385C75.2348 84.6771 74.836 84.6771 74.4243 84.7028C58.15 84.7157 41.85 84.7157 25.5628 84.7157Z" fill="#FF66AB"/>
</g>
<path d="M46.1167 29.9745L43.7104 32.3808C43.2842 32.8069 42.7824 33.02 42.2049 33.02C41.6274 33.02 41.1266 32.8069 40.7025 32.3808C40.2784 31.9547 40.0658 31.4534 40.0648 30.8769C40.0638 30.3004 40.2764 29.7991 40.7025 29.373L46.7182 23.3572C47.1443 22.9311 47.6457 22.7185 48.2222 22.7195C48.7987 22.7205 49.3 22.9331 49.7261 23.3572L55.7419 29.373C56.168 29.7991 56.381 30.3009 56.381 30.8784C56.381 31.4559 56.168 31.9567 55.7419 32.3808C55.3157 32.8049 54.8139 33.018 54.2364 33.02C53.6589 33.022 53.1581 32.809 52.734 32.3808L50.3277 29.9745L50.3277 42.8503C50.3277 43.4017 50.1146 43.8905 49.6885 44.3166C49.2624 44.7427 48.7736 44.9558 48.2222 44.9558C47.6707 44.9558 47.1819 44.7427 46.7558 44.3166C46.3297 43.8905 46.1167 43.4017 46.1167 42.8503L46.1167 29.9745Z" fill="#6B2E49"/>
<path d="M72.8595 55.0621L59.9837 55.0621C59.4323 55.0621 58.9435 54.849 58.5174 54.4229C58.0913 53.9968 57.8782 53.508 57.8782 52.9565C57.8782 52.4051 58.0913 51.9163 58.5174 51.4902C58.9435 51.0641 59.4323 50.851 59.9837 50.851L72.8595 50.851L70.4532 48.4447C70.027 48.0186 69.814 47.5178 69.814 46.9423C69.814 46.3668 70.027 45.865 70.4532 45.4369C70.8793 45.0087 71.3806 44.7962 71.9571 44.7992C72.5336 44.8022 73.0349 45.0148 73.461 45.4369L79.4768 51.4526C79.9029 51.8787 80.1159 52.3805 80.1159 52.958C80.116 53.5356 79.9029 54.0364 79.4768 54.4605L73.461 60.4762C73.0349 60.9023 72.5331 61.1154 71.9556 61.1154C71.3781 61.1154 70.8773 60.9023 70.4532 60.4762C70.029 60.0501 69.8165 59.5488 69.8155 58.9723C69.8145 58.3958 70.027 57.8945 70.4532 57.4684L72.8595 55.0621Z" fill="#6B2E49"/>
<path d="M30.2998 59.4613L49.897 49.971C51.4484 49.2197 53.1601 50.6518 52.6943 52.3114L46.7378 73.5362C46.2166 75.3935 43.6276 75.5093 42.9426 73.7061L39.8987 65.6931C39.6443 65.0233 39.051 64.5408 38.3435 64.4282L30.8571 63.2364C28.9241 62.9287 28.5381 60.3144 30.2998 59.4613Z" fill="#6B2E49" stroke="#6B2E49"/>
</g>
<defs>
<clipPath id="clip0_18775_1693">
<rect width="100" height="100" fill="white"/>
</clipPath>
<clipPath id="clip1_18775_1693">
<rect width="100" height="100" fill="white"/>
</clipPath>
</defs>
</svg>
