<svg width="100" height="70" viewBox="0 15 100 70" fill="none" xmlns="http://www.w3.org/2000/svg">
<g clip-path="url(#clip0_18775_1643)">
<g clip-path="url(#clip1_18775_1643)">
<path fill-rule="evenodd" clip-rule="evenodd" d="M25.5629 84.7157C25.1512 84.69 24.7524 84.69 24.3407 84.6514C23.5302 84.5742 22.7197 84.4198 21.9349 84.1882C20.7642 83.8409 19.6321 83.3263 18.6029 82.6701C17.5737 82.014 16.6345 81.2035 15.8369 80.2772C15.1293 79.4539 15.0007 79.1966 14.4217 78.2832L1.72393 56.2839C1.22219 55.3191 1.06781 55.0875 0.70759 54.0583C0.308773 52.9004 0.0772024 51.6911 0.0128772 50.4689C-0.0514481 49.2468 0.0772024 48.0117 0.360233 46.8281C0.553209 46.0305 0.823375 45.2586 1.15787 44.5124C1.32511 44.1393 1.53095 43.792 1.72393 43.4189L14.4217 21.4325C15.0135 20.5191 15.1293 20.2618 15.8369 19.4384C16.6345 18.5122 17.5737 17.7017 18.6029 17.0455C19.6321 16.3894 20.7642 15.8748 21.9349 15.5275C22.7197 15.2959 23.5173 15.1415 24.3407 15.0643C24.7524 15.0257 25.1512 15.0257 25.5629 15H74.4372C75.5178 15.0515 75.8009 15.0257 76.8687 15.2316C78.078 15.4631 79.2358 15.862 80.3294 16.428C81.4229 16.9941 82.4264 17.7017 83.314 18.5508C83.9058 19.1168 84.4462 19.7343 84.9093 20.4033C85.1409 20.7378 85.3467 21.0852 85.5654 21.4325L98.2632 43.4189C98.4562 43.7791 98.6492 44.1393 98.8293 44.5124C99.1638 45.2586 99.434 46.0305 99.6269 46.8281C99.91 48.0246 100.039 49.2468 99.9743 50.4689C99.91 51.6911 99.6784 52.9133 99.2796 54.0583C98.9193 55.0875 98.765 55.3191 98.2632 56.2839L85.5654 78.2703C84.9736 79.1837 84.8578 79.441 84.1503 80.2644C83.3526 81.1907 82.4135 82.0012 81.3843 82.6573C80.3551 83.3134 79.223 83.828 78.0522 84.1754C77.2675 84.4069 76.4698 84.5613 75.6465 84.6385C75.2348 84.6771 74.836 84.6771 74.4243 84.7028C58.15 84.7157 41.85 84.7157 25.5629 84.7157Z" fill="#FF6666"/>
</g>
<path d="M50.4779 56.7202C50.7733 56.7203 51.0209 56.8993 51.1136 57.1724L51.1146 57.1772L51.556 58.4663H49.3929L49.8246 57.1724C49.9188 56.9138 50.186 56.7202 50.4779 56.7202ZM38.7943 44.1187C42.1823 44.1187 45.095 47.0516 45.0951 50.8911C45.0951 52.7044 44.4587 53.53 43.6088 54.0317C42.5763 54.6412 40.9602 54.9204 38.7943 54.9204C36.6289 54.9204 35.0133 54.6404 33.9808 54.0308C33.1306 53.5287 32.4935 52.7033 32.4935 50.8911C32.4936 47.0501 35.4062 44.1188 38.7943 44.1187ZM62.1967 44.1187C65.5849 44.1187 68.4973 47.0501 68.4974 50.8911C68.4974 52.703 67.8612 53.5287 67.0111 54.0308C65.9786 54.6405 64.3622 54.9204 62.1967 54.9204C60.0311 54.9204 58.4156 54.6411 57.3832 54.0317C56.5333 53.53 55.8959 52.7044 55.8959 50.8911C55.896 47.0517 58.8088 44.1187 62.1967 44.1187Z" stroke="#6B2E2E" stroke-width="3.60035"/>
<path d="M23.493 49.5105C23.493 34.605 35.5866 22.5168 50.4957 22.5168C65.4048 22.5168 77.4984 34.605 77.4984 49.5105C77.4984 54.5024 76.1266 58.0451 73.3813 60.3656C71.1113 62.2828 68.1266 63.1594 64.8971 63.5807V70.6716C64.8968 71.834 64.5502 72.97 63.9015 73.9346C63.2529 74.8992 62.3316 75.6488 61.2552 76.0876C60.1788 76.5264 58.9961 76.6346 57.8579 76.3985C56.7197 76.1623 55.6777 75.5924 54.8647 74.7616C53.6908 75.8912 52.1249 76.5222 50.4957 76.5222C48.8665 76.5222 47.3006 75.8912 46.1267 74.7616C45.3137 75.5924 44.2717 76.1623 43.1335 76.3985C41.9953 76.6346 40.8126 76.5264 39.7362 76.0876C38.6598 75.6488 37.7385 74.8992 37.0898 73.9346C36.4412 72.97 36.0946 71.834 36.0943 70.6716V63.5843C32.863 63.1702 29.8801 62.2918 27.61 60.371C24.8648 58.0487 23.493 54.5024 23.493 49.5105ZM53.196 65.7211C53.196 65.2437 53.3856 64.7858 53.7232 64.4482C54.0608 64.1106 54.5187 63.9209 54.9961 63.9209C55.4736 63.9209 55.9315 64.1106 56.2691 64.4482C56.6067 64.7858 56.7963 65.2437 56.7963 65.7211V70.6716C56.7963 71.2684 57.0334 71.8407 57.4554 72.2627C57.8774 72.6847 58.4497 72.9218 59.0465 72.9218C59.6433 72.9218 60.2157 72.6847 60.6377 72.2627C61.0597 71.8407 61.2968 71.2684 61.2968 70.6716V61.9641C61.2964 61.5133 61.4653 61.0787 61.77 60.7464C62.0747 60.414 62.4929 60.2081 62.9421 60.1693C66.6145 59.8543 69.2895 59.1072 71.0573 57.6131C72.7315 56.2 73.898 53.8399 73.898 49.5105C73.898 36.5942 63.4174 26.1172 50.4957 26.1172C37.574 26.1172 27.0934 36.5942 27.0934 49.5105C27.0934 53.8399 28.2599 56.2054 29.9341 57.6221C31.7018 59.1162 34.3769 59.8615 38.0439 60.1693C38.494 60.2068 38.9136 60.4122 39.2194 60.7447C39.5252 61.0771 39.6948 61.5124 39.6946 61.9641V70.6716C39.6946 71.2684 39.9317 71.8407 40.3537 72.2627C40.7757 72.6847 41.3481 72.9218 41.9449 72.9218C42.5417 72.9218 43.114 72.6847 43.536 72.2627C43.958 71.8407 44.1951 71.2684 44.1951 70.6716V65.7211C44.1951 65.2437 44.3847 64.7858 44.7223 64.4482C45.0599 64.1106 45.5178 63.9209 45.9953 63.9209C46.4727 63.9209 46.9306 64.1106 47.2682 64.4482C47.6058 64.7858 47.7954 65.2437 47.7954 65.7211V70.2215C47.7954 70.9377 48.0799 71.6245 48.5863 72.1309C49.0927 72.6373 49.7795 72.9218 50.4957 72.9218C51.2119 72.9218 51.8987 72.6373 52.4051 72.1309C52.9115 71.6245 53.196 70.9377 53.196 70.2215V65.7211Z" fill="#6B2E2E"/>
</g>
<defs>
<clipPath id="clip0_18775_1643">
<rect width="100" height="100" fill="white"/>
</clipPath>
<clipPath id="clip1_18775_1643">
<rect width="100" height="69.7157" fill="white" transform="translate(0 15)"/>
</clipPath>
</defs>
</svg>
