<svg width="100" height="70" viewBox="0 15 100 70" fill="none" xmlns="http://www.w3.org/2000/svg">
<g clip-path="url(#clip0_18775_1697)">
<g clip-path="url(#clip1_18775_1697)">
<path fill-rule="evenodd" clip-rule="evenodd" d="M25.5628 84.7157C25.1511 84.69 24.7523 84.69 24.3406 84.6514C23.5301 84.5742 22.7197 84.4198 21.9349 84.1882C20.7642 83.8409 19.632 83.3263 18.6028 82.6701C17.5736 82.014 16.6345 81.2035 15.8369 80.2772C15.1293 79.4539 15.0006 79.1966 14.4217 78.2832L1.7239 56.2839C1.22216 55.3191 1.06778 55.0875 0.707559 54.0583C0.308743 52.9004 0.0771719 51.6911 0.0128466 50.4689C-0.0514786 49.2468 0.0771719 48.0117 0.360203 46.8281C0.553179 46.0305 0.823344 45.2586 1.15784 44.5124C1.32508 44.1393 1.53092 43.792 1.7239 43.4189L14.4217 21.4325C15.0135 20.5191 15.1293 20.2618 15.8369 19.4384C16.6345 18.5122 17.5736 17.7017 18.6028 17.0455C19.632 16.3894 20.7642 15.8748 21.9349 15.5275C22.7197 15.2959 23.5173 15.1415 24.3406 15.0643C24.7523 15.0257 25.1511 15.0257 25.5628 15H74.4371C75.5178 15.0515 75.8008 15.0257 76.8686 15.2316C78.0779 15.4631 79.2358 15.862 80.3293 16.428C81.4229 16.9941 82.4263 17.7017 83.314 18.5508C83.9058 19.1168 84.4461 19.7343 84.9093 20.4033C85.1409 20.7378 85.3467 21.0852 85.5654 21.4325L98.2632 43.4189C98.4562 43.7791 98.6492 44.1393 98.8293 44.5124C99.1638 45.2586 99.4339 46.0305 99.6269 46.8281C99.9099 48.0246 100.039 49.2468 99.9743 50.4689C99.9099 51.6911 99.6784 52.9133 99.2795 54.0583C98.9193 55.0875 98.7649 55.3191 98.2632 56.2839L85.5654 78.2703C84.9736 79.1837 84.8578 79.441 84.1502 80.2644C83.3526 81.1907 82.4135 82.0012 81.3843 82.6573C80.3551 83.3134 79.2229 83.828 78.0522 84.1754C77.2674 84.4069 76.4698 84.5613 75.6465 84.6385C75.2348 84.6771 74.836 84.6771 74.4243 84.7028C58.15 84.7157 41.85 84.7157 25.5628 84.7157Z" fill="#FF66AB"/>
</g>
<path d="M52.61 50.2105C54.2545 48.7773 53.8873 46.1828 52.4391 44.7854C50.3144 42.7329 46.8744 43.3332 45.0358 45.4975C42.585 48.3764 43.358 52.7749 46.1605 55.062C49.6879 57.9429 54.9445 56.903 57.6601 53.3526C60.9479 49.0522 59.7474 42.805 55.5786 39.6462C50.6659 35.9257 43.5659 37.4121 39.9857 42.3553C35.8509 48.0622 37.4833 56.1806 43.0206 60.2028C49.3149 64.7709 58.2681 62.8335 62.7102 56.4948" stroke="#6B2E49" stroke-width="5" stroke-linecap="round" stroke-linejoin="round"/>
<path d="M22.5992 58.7843C19.9338 55.9607 18.6011 54.5463 18.6011 50.3544C18.6011 46.1599 19.9338 44.7507 22.5992 41.9245C27.9205 36.2876 36.8449 29.8936 49.9586 29.8936C63.0723 29.8936 71.9967 36.2876 77.3181 41.9245C79.9835 44.7533 81.3162 46.1625 81.3162 50.3544C81.3162 54.5489 79.9835 55.9581 77.3181 58.7843C71.9967 64.4213 63.0723 70.8153 49.9586 70.8153C36.8449 70.8153 27.9205 64.4213 22.5992 58.7843Z" stroke="#6B2E49" stroke-width="5"/>
</g>
<defs>
<clipPath id="clip0_18775_1697">
<rect width="100" height="100" fill="white"/>
</clipPath>
<clipPath id="clip1_18775_1697">
<rect width="100" height="100" fill="white"/>
</clipPath>
</defs>
</svg>
