<svg width="100" height="70" viewBox="0 15 100 70" fill="none" xmlns="http://www.w3.org/2000/svg">
<g clip-path="url(#clip0_18775_1687)">
<g clip-path="url(#clip1_18775_1687)">
<path fill-rule="evenodd" clip-rule="evenodd" d="M25.5628 84.7157C25.1511 84.69 24.7523 84.69 24.3406 84.6514C23.5301 84.5742 22.7197 84.4198 21.9349 84.1882C20.7642 83.8409 19.632 83.3263 18.6028 82.6701C17.5736 82.014 16.6345 81.2035 15.8369 80.2772C15.1293 79.4539 15.0006 79.1966 14.4217 78.2832L1.7239 56.2839C1.22216 55.3191 1.06778 55.0875 0.707559 54.0583C0.308743 52.9004 0.0771719 51.6911 0.0128466 50.4689C-0.0514786 49.2468 0.0771719 48.0117 0.360203 46.8281C0.553179 46.0305 0.823344 45.2586 1.15784 44.5124C1.32508 44.1393 1.53092 43.792 1.7239 43.4189L14.4217 21.4325C15.0135 20.5191 15.1293 20.2618 15.8369 19.4384C16.6345 18.5122 17.5736 17.7017 18.6028 17.0455C19.632 16.3894 20.7642 15.8748 21.9349 15.5275C22.7197 15.2959 23.5173 15.1415 24.3406 15.0643C24.7523 15.0257 25.1511 15.0257 25.5628 15H74.4371C75.5178 15.0515 75.8008 15.0257 76.8686 15.2316C78.0779 15.4631 79.2358 15.862 80.3293 16.428C81.4229 16.9941 82.4263 17.7017 83.314 18.5508C83.9058 19.1168 84.4461 19.7343 84.9093 20.4033C85.1409 20.7378 85.3467 21.0852 85.5654 21.4325L98.2632 43.4189C98.4562 43.7791 98.6492 44.1393 98.8293 44.5124C99.1638 45.2586 99.4339 46.0305 99.6269 46.8281C99.9099 48.0246 100.039 49.2468 99.9743 50.4689C99.9099 51.6911 99.6784 52.9133 99.2795 54.0583C98.9193 55.0875 98.7649 55.3191 98.2632 56.2839L85.5654 78.2703C84.9736 79.1837 84.8578 79.441 84.1502 80.2644C83.3526 81.1907 82.4135 82.0012 81.3843 82.6573C80.3551 83.3134 79.2229 83.828 78.0522 84.1754C77.2674 84.4069 76.4698 84.5613 75.6465 84.6385C75.2348 84.6771 74.836 84.6771 74.4243 84.7028C58.15 84.7157 41.85 84.7157 25.5628 84.7157Z" fill="#FF66AB"/>
</g>
<path d="M73.2437 49.8154C73.2437 36.8022 62.6944 26.2529 49.6812 26.2529C36.6679 26.2529 26.1187 36.8022 26.1187 49.8154C26.1187 62.8286 36.6679 73.3779 49.6812 73.3779V78.8154C33.6649 78.8154 20.6812 65.8317 20.6812 49.8154C20.6812 33.7992 33.6649 20.8154 49.6812 20.8154C65.6974 20.8154 78.6812 33.7992 78.6812 49.8154C78.6812 65.8317 65.6974 78.8154 49.6812 78.8154V73.3779C62.6944 73.3779 73.2437 62.8286 73.2437 49.8154Z" fill="#6B2E49"/>
<path d="M49.8279 61.447C51.3098 61.4291 52.5249 62.6145 52.5436 64.0963C52.5618 65.5783 51.3762 66.7967 49.8944 66.8154H49.468C47.9861 66.7967 46.8005 65.5783 46.8187 64.0963C46.8374 62.6145 48.0525 61.4291 49.5344 61.447H49.8279ZM40.0627 60.7515C40.7738 59.558 42.2654 59.1152 43.4984 59.689L43.743 59.8183L43.9912 59.9651C45.2829 60.6911 45.7436 62.3254 45.0187 63.6174C44.2926 64.9094 42.655 65.3704 41.3629 64.645L40.9959 64.4318L40.7652 64.278C39.6736 63.4672 39.352 61.9452 40.0627 60.7515ZM55.6193 59.8183C56.8928 59.0601 58.541 59.4782 59.2996 60.7515C60.0579 62.0253 59.6402 63.6734 58.3664 64.4318C58.2453 64.5039 58.1224 64.5758 57.9994 64.645C56.7073 65.3704 55.0697 64.9094 54.3436 63.6174C53.6187 62.3254 54.0794 60.6911 55.3711 59.9651C55.4549 59.918 55.5367 59.8674 55.6193 59.8183ZM35.8791 54.4778C37.1712 53.753 38.8055 54.2137 39.5315 55.5054L39.6783 55.7535L39.8076 55.9982C40.3814 57.2312 39.9386 58.7228 38.7451 59.4338C37.5514 60.1445 36.0293 59.823 35.2186 58.7313L35.0648 58.5007L34.8516 58.1337C34.1262 56.8416 34.5872 55.204 35.8791 54.4778ZM59.8308 55.5054C60.5568 54.2137 62.1911 53.753 63.4832 54.4778C64.7751 55.204 65.2361 56.8416 64.5107 58.1337C64.4416 58.2567 64.3696 58.3796 64.2975 58.5007C63.5392 59.7745 61.891 60.1922 60.6172 59.4338C59.344 58.6753 58.9258 57.0271 59.684 55.7535C59.7332 55.671 59.7837 55.5892 59.8308 55.5054ZM32.6812 49.6022C32.6999 48.1204 33.9183 46.9348 35.4003 46.953C36.8821 46.9717 38.0675 48.1868 38.0496 49.6686V49.9622C38.0675 51.444 36.8821 52.6592 35.4003 52.6779C33.9183 52.6961 32.6999 51.5105 32.6812 50.0286V49.6022ZM66.6812 50.0286C66.6624 51.5105 65.444 52.6961 63.962 52.6779C62.4802 52.6592 61.2948 51.444 61.3127 49.9622L66.6812 50.0286ZM61.3127 49.6686L63.9969 49.6372L66.6812 49.6022V50.0286L63.9969 49.9937L61.3127 49.9622V49.6686ZM63.962 46.953C65.444 46.9348 66.6624 48.1204 66.6812 49.6022L61.3127 49.6686C61.2948 48.1868 62.4802 46.9717 63.962 46.953ZM39.5315 44.1255C38.8055 45.4172 37.1712 45.8779 35.8791 45.153C34.5872 44.4269 34.1262 42.7893 34.8516 41.4972L39.5315 44.1255ZM60.6172 40.197C61.8109 39.4863 63.333 39.8079 64.1437 40.8995L64.2975 41.1302L64.5107 41.4972C65.2361 42.7893 64.7751 44.4269 63.4832 45.153C62.1911 45.8779 60.5568 45.4172 59.8308 44.1255L59.684 43.8773L59.5547 43.6327C58.9809 42.3997 59.4237 40.908 60.6172 40.197ZM35.0648 41.1302C35.8232 39.8564 37.4713 39.4386 38.7451 40.197C40.0183 40.9556 40.4365 42.6038 39.6783 43.8773C39.6291 43.9599 39.5786 44.0416 39.5315 44.1255L34.8516 41.4972C34.9207 41.3741 34.9927 41.2513 35.0648 41.1302ZM41.3629 34.9859C42.655 34.2605 44.2926 34.7215 45.0187 36.0134C45.7436 37.3054 45.2829 38.9398 43.9912 39.6658C43.9074 39.7129 43.8256 39.7634 43.743 39.8126C42.4695 40.5708 40.8213 40.1526 40.0627 38.8794C39.3044 37.6056 39.7221 35.9574 40.9959 35.1991C41.117 35.127 41.2399 35.055 41.3629 34.9859ZM54.3436 36.0134C55.0697 34.7215 56.7073 34.2605 57.9994 34.9859L58.3664 35.1991L58.5971 35.3528C59.6887 36.1636 60.0103 37.6857 59.2996 38.8794C58.5885 40.0728 57.0969 40.5157 55.8639 39.9419L55.6193 39.8126L55.3711 39.6658C54.0794 38.9398 53.6187 37.3054 54.3436 36.0134ZM49.5344 38.1839C48.0525 38.2018 46.8374 37.0163 46.8187 35.5346C46.8005 34.0526 47.9861 32.8341 49.468 32.8154L49.5344 38.1839ZM49.8944 32.8154C51.3762 32.8341 52.5618 34.0526 52.5436 35.5346C52.5249 37.0163 51.3098 38.2018 49.8279 38.1839H49.5344L49.5029 35.4996L49.468 32.8154H49.8944Z" fill="#6B2E49"/>
</g>
<defs>
<clipPath id="clip0_18775_1687">
<rect width="100" height="100" fill="white"/>
</clipPath>
<clipPath id="clip1_18775_1687">
<rect width="100" height="100" fill="white"/>
</clipPath>
</defs>
</svg>
