<svg width="100" height="70" viewBox="0 15 100 70" fill="none" xmlns="http://www.w3.org/2000/svg">
<g clip-path="url(#clip0_18775_1659)">
<g clip-path="url(#clip1_18775_1659)">
<path fill-rule="evenodd" clip-rule="evenodd" d="M25.5628 84.7157C25.1511 84.69 24.7523 84.69 24.3406 84.6514C23.5301 84.5742 22.7197 84.4198 21.9349 84.1882C20.7642 83.8409 19.632 83.3263 18.6028 82.6701C17.5736 82.014 16.6345 81.2035 15.8369 80.2772C15.1293 79.4539 15.0006 79.1966 14.4217 78.2832L1.7239 56.2839C1.22216 55.3191 1.06778 55.0875 0.707559 54.0583C0.308743 52.9004 0.0771719 51.6911 0.0128466 50.4689C-0.0514786 49.2468 0.0771719 48.0117 0.360203 46.8281C0.553179 46.0305 0.823344 45.2586 1.15784 44.5124C1.32508 44.1393 1.53092 43.792 1.7239 43.4189L14.4217 21.4325C15.0135 20.5191 15.1293 20.2618 15.8369 19.4384C16.6345 18.5122 17.5736 17.7017 18.6028 17.0455C19.632 16.3894 20.7642 15.8748 21.9349 15.5275C22.7197 15.2959 23.5173 15.1415 24.3406 15.0643C24.7523 15.0257 25.1511 15.0257 25.5628 15H74.4371C75.5178 15.0515 75.8008 15.0257 76.8686 15.2316C78.0779 15.4631 79.2358 15.862 80.3293 16.428C81.4229 16.9941 82.4263 17.7017 83.314 18.5508C83.9058 19.1168 84.4461 19.7343 84.9093 20.4033C85.1409 20.7378 85.3467 21.0852 85.5654 21.4325L98.2632 43.4189C98.4562 43.7791 98.6492 44.1393 98.8293 44.5124C99.1638 45.2586 99.4339 46.0305 99.6269 46.8281C99.9099 48.0246 100.039 49.2468 99.9743 50.4689C99.9099 51.6911 99.6784 52.9133 99.2795 54.0583C98.9193 55.0875 98.7649 55.3191 98.2632 56.2839L85.5654 78.2703C84.9736 79.1837 84.8578 79.441 84.1502 80.2644C83.3526 81.1907 82.4135 82.0012 81.3843 82.6573C80.3551 83.3134 79.2229 83.828 78.0522 84.1754C77.2674 84.4069 76.4698 84.5613 75.6465 84.6385C75.2348 84.6771 74.836 84.6771 74.4243 84.7028C58.15 84.7157 41.85 84.7157 25.5628 84.7157Z" fill="#8C66FF"/>
</g>
<path fill-rule="evenodd" clip-rule="evenodd" d="M69.5886 43.4277C70.4845 46.0319 70.8544 48.7881 70.6768 51.5363C70.4991 54.2846 69.7775 56.9702 68.5537 59.4373C67.3299 61.9045 65.6284 64.104 63.5478 65.9084C61.4673 67.7127 59.0491 69.086 56.4336 69.9484C53.8181 70.8108 51.0575 71.1452 48.3117 70.9323C45.566 70.7193 42.8899 69.9632 40.4386 68.7079C37.9874 67.4525 35.8099 65.7228 34.0324 63.6193C32.255 61.5157 30.9129 59.0801 30.0842 56.4537C28.4381 51.2371 28.9132 45.5819 31.4068 40.7131C33.9003 35.8443 38.2115 32.1537 43.4065 30.4407C48.6016 28.7277 54.2624 29.1302 59.1629 31.5609C64.0633 33.9917 67.809 38.2551 69.5886 43.4277ZM65.3922 51.0977C65.5441 49.0542 65.2921 47.0008 64.6504 45.0547C64.0088 43.1086 62.9901 41.308 61.6526 39.7556C60.3151 38.2032 58.6849 36.9294 56.8551 36.007C55.0253 35.0846 53.0317 34.5317 50.9882 34.3797C48.9447 34.2278 46.8913 34.4798 44.9452 35.1215C42.9991 35.7631 41.1984 36.7818 39.646 38.1193C38.0936 39.4569 36.8199 41.0871 35.8975 42.9169C34.9751 44.7467 34.4221 46.7402 34.2702 48.7837C33.9633 52.9108 35.3085 56.9907 38.0098 60.1259C40.7111 63.2611 44.5472 65.1949 48.6742 65.5017C52.8012 65.8086 56.8811 64.4634 60.0164 61.7621C63.1516 59.0609 65.0853 55.2248 65.3922 51.0977Z" fill="#3D2E6B"/>
<path fill-rule="evenodd" clip-rule="evenodd" d="M49.8337 55.1409C51.2129 55.1409 52.5355 54.5931 53.5107 53.6179C54.4859 52.6427 55.0337 51.32 55.0337 49.9409C55.0337 48.5618 54.4859 47.2392 53.5107 46.264C52.5355 45.2888 51.2129 44.7409 49.8337 44.7409C48.4546 44.7409 47.132 45.2888 46.1568 46.264C45.1816 47.2392 44.6337 48.5618 44.6337 49.9409C44.6337 51.32 45.1816 52.6427 46.1568 53.6179C47.132 54.5931 48.4546 55.1409 49.8337 55.1409ZM49.8337 60.3409C52.592 60.3409 55.2373 59.2452 57.1876 57.2948C59.138 55.3444 60.2337 52.6992 60.2337 49.9409C60.2337 47.1827 59.138 44.5374 57.1876 42.587C55.2373 40.6366 52.592 39.5409 49.8337 39.5409C47.0755 39.5409 44.4302 40.6366 42.4798 42.587C40.5294 44.5374 39.4337 47.1827 39.4337 49.9409C39.4337 52.6992 40.5294 55.3444 42.4798 57.2948C44.4302 59.2452 47.0755 60.3409 49.8337 60.3409ZM49.8337 23.9409C50.5233 23.9409 51.1846 24.2148 51.6722 24.7024C52.1598 25.19 52.4337 25.8514 52.4337 26.5409V31.7409C52.4337 32.4305 52.1598 33.0918 51.6722 33.5794C51.1846 34.067 50.5233 34.3409 49.8337 34.3409C49.1442 34.3409 48.4829 34.067 47.9953 33.5794C47.5077 33.0918 47.2337 32.4305 47.2337 31.7409V26.5409C47.2337 25.8514 47.5077 25.19 47.9953 24.7024C48.4829 24.2148 49.1442 23.9409 49.8337 23.9409ZM49.8337 65.5409C50.5233 65.5409 51.1846 65.8148 51.6722 66.3024C52.1598 66.79 52.4337 67.4514 52.4337 68.1409V73.3409C52.4337 74.0305 52.1598 74.6918 51.6722 75.1794C51.1846 75.667 50.5233 75.9409 49.8337 75.9409C49.1442 75.9409 48.4829 75.667 47.9953 75.1794C47.5077 74.6918 47.2337 74.0305 47.2337 73.3409V68.1409C47.2337 67.4514 47.5077 66.79 47.9953 66.3024C48.4829 65.8148 49.1442 65.5409 49.8337 65.5409ZM75.8337 49.9409C75.8337 50.6305 75.5598 51.2918 75.0722 51.7794C74.5846 52.267 73.9233 52.5409 73.2337 52.5409H68.0337C67.3442 52.5409 66.6829 52.267 66.1953 51.7794C65.7077 51.2918 65.4337 50.6305 65.4337 49.9409C65.4337 49.2514 65.7077 48.59 66.1953 48.1024C66.6829 47.6148 67.3442 47.3409 68.0337 47.3409H73.2337C73.9233 47.3409 74.5846 47.6148 75.0722 48.1024C75.5598 48.59 75.8337 49.2514 75.8337 49.9409ZM34.2337 49.9409C34.2337 50.6305 33.9598 51.2918 33.4722 51.7794C32.9846 52.267 32.3233 52.5409 31.6337 52.5409H26.4337C25.7442 52.5409 25.0829 52.267 24.5953 51.7794C24.1077 51.2918 23.8337 50.6305 23.8337 49.9409C23.8337 49.2514 24.1077 48.59 24.5953 48.1024C25.0829 47.6148 25.7442 47.3409 26.4337 47.3409H31.6337C32.3233 47.3409 32.9846 47.6148 33.4722 48.1024C33.9598 48.59 34.2337 49.2514 34.2337 49.9409Z" fill="#3D2E6B"/>
</g>
<defs>
<clipPath id="clip0_18775_1659">
<rect width="100" height="100" fill="white"/>
</clipPath>
<clipPath id="clip1_18775_1659">
<rect width="100" height="100" fill="white"/>
</clipPath>
</defs>
</svg>
