<svg width="100" height="70" viewBox="0 15 100 70" fill="none" xmlns="http://www.w3.org/2000/svg">
<g clip-path="url(#clip0_18775_1680)">
<g clip-path="url(#clip1_18775_1680)">
<path fill-rule="evenodd" clip-rule="evenodd" d="M25.5628 84.7157C25.1511 84.69 24.7523 84.69 24.3406 84.6514C23.5301 84.5742 22.7197 84.4198 21.9349 84.1882C20.7642 83.8409 19.632 83.3263 18.6028 82.6701C17.5736 82.014 16.6345 81.2035 15.8369 80.2772C15.1293 79.4539 15.0006 79.1966 14.4217 78.2832L1.7239 56.2839C1.22216 55.3191 1.06778 55.0875 0.707559 54.0583C0.308743 52.9004 0.0771719 51.6911 0.0128466 50.4689C-0.0514786 49.2468 0.0771719 48.0117 0.360203 46.8281C0.553179 46.0305 0.823344 45.2586 1.15784 44.5124C1.32508 44.1393 1.53092 43.792 1.7239 43.4189L14.4217 21.4325C15.0135 20.5191 15.1293 20.2618 15.8369 19.4384C16.6345 18.5122 17.5736 17.7017 18.6028 17.0455C19.632 16.3894 20.7642 15.8748 21.9349 15.5275C22.7197 15.2959 23.5173 15.1415 24.3406 15.0643C24.7523 15.0257 25.1511 15.0257 25.5628 15H74.4371C75.5178 15.0515 75.8008 15.0257 76.8686 15.2316C78.0779 15.4631 79.2358 15.862 80.3293 16.428C81.4229 16.9941 82.4263 17.7017 83.314 18.5508C83.9058 19.1168 84.4461 19.7343 84.9093 20.4033C85.1409 20.7378 85.3467 21.0852 85.5654 21.4325L98.2632 43.4189C98.4562 43.7791 98.6492 44.1393 98.8293 44.5124C99.1638 45.2586 99.4339 46.0305 99.6269 46.8281C99.9099 48.0246 100.039 49.2468 99.9743 50.4689C99.9099 51.6911 99.6784 52.9133 99.2795 54.0583C98.9193 55.0875 98.7649 55.3191 98.2632 56.2839L85.5654 78.2703C84.9736 79.1837 84.8578 79.441 84.1502 80.2644C83.3526 81.1907 82.4135 82.0012 81.3843 82.6573C80.3551 83.3134 79.2229 83.828 78.0522 84.1754C77.2674 84.4069 76.4698 84.5613 75.6465 84.6385C75.2348 84.6771 74.836 84.6771 74.4243 84.7028C58.15 84.7157 41.85 84.7157 25.5628 84.7157Z" fill="#FF66AB"/>
</g>
<path d="M48.0285 60.2118L44.6255 60.2017C44.0229 60.1999 43.518 59.9942 43.1108 59.5847C42.7037 59.1751 42.5017 58.6697 42.5049 58.0685C42.5081 57.4673 42.7138 56.9624 43.122 56.5539C43.5302 56.1453 44.0355 55.9433 44.6381 55.948L53.1457 55.9733C53.7483 55.9751 54.2524 56.1808 54.6582 56.5903C55.0639 56.9999 55.2666 57.5053 55.2662 58.1065L55.2409 66.614C55.2391 67.2166 55.0334 67.7208 54.6238 68.1265C54.2143 68.5322 53.7089 68.7349 53.1077 68.7346C52.5065 68.7342 52.0016 68.5285 51.593 68.1175C51.1845 67.7065 50.9825 67.2011 50.9871 66.6013L50.9973 63.1983L38.7855 75.3377C38.3944 75.7264 37.8975 75.9199 37.2949 75.9181C36.6923 75.9163 36.1966 75.7199 35.8079 75.3288C35.4191 74.9377 35.2256 74.4408 35.2274 73.8382C35.2292 73.2356 35.4256 72.7399 35.8167 72.3512L48.0285 60.2118Z" fill="#6B2E49"/>
<path d="M67.7154 57.7337L75.8615 62.0497C76.3488 62.3079 76.6809 62.725 76.858 63.301C77.035 63.877 76.9945 64.4087 76.7363 64.8959C76.4781 65.3832 76.061 65.7154 75.485 65.8924C74.909 66.0694 74.3773 66.0289 73.89 65.7707L65.7439 61.4547L66.7436 64.7075C66.9206 65.2836 66.8738 65.826 66.603 66.335C66.3322 66.844 65.9097 67.1874 65.3354 67.3654C64.7611 67.5434 64.218 67.4967 63.7059 67.2254C63.1938 66.9541 62.851 66.5313 62.6775 65.9572L60.1782 57.825C60.0012 57.249 60.0478 56.7058 60.3182 56.1955C60.5886 55.6852 61.0113 55.3424 61.5864 55.1672L69.7186 52.6679C70.2946 52.4908 70.8371 52.5377 71.346 52.8085C71.855 53.0793 72.1985 53.5018 72.3764 54.0761C72.5544 54.6503 72.5075 55.1928 72.2358 55.7035C71.9641 56.2143 71.5415 56.5577 70.9682 56.7339L67.7154 57.7337Z" fill="#6B2E49"/>
<path d="M48.8233 45.0358L48.2543 41.6807C48.1535 41.0866 48.2703 40.5541 48.6046 40.0832C48.9389 39.6123 49.4026 39.3273 49.9956 39.2281C50.5885 39.129 51.1203 39.2459 51.591 39.5788C52.0617 39.9117 52.3474 40.3753 52.4482 40.9694L53.8708 49.3572C53.9716 49.9513 53.8547 50.4831 53.5201 50.9526C53.1856 51.4221 52.722 51.7078 52.1295 51.8098L43.7418 53.2324C43.1476 53.3332 42.6151 53.2164 42.1442 52.8821C41.6733 52.5478 41.3883 52.0841 41.2892 51.4911C41.19 50.8982 41.3068 50.3656 41.6395 49.8936C41.9722 49.4215 42.4358 49.1365 43.0304 49.0385L46.3856 48.4695L24.1914 32.7123C23.7418 32.393 23.4666 31.9364 23.3658 31.3422C23.265 30.7481 23.3743 30.2262 23.6935 29.7766C24.0127 29.3269 24.4694 29.0517 25.0636 28.9509C25.6577 28.8502 26.1796 28.9594 26.6292 29.2786L48.8233 45.0358Z" fill="#6B2E49"/>
<path d="M61.9626 42.433L66.4848 36.8061C66.8302 36.3763 67.3025 36.1287 67.9016 36.0635C68.5007 35.9983 69.0151 36.1384 69.445 36.4839C69.8748 36.8293 70.1223 37.3016 70.1875 37.9007C70.2527 38.4997 70.1126 39.0142 69.7672 39.444L65.245 45.071L68.6281 44.7027C69.2271 44.6375 69.751 44.7852 70.1996 45.1457C70.6482 45.5062 70.9058 45.9866 70.9726 46.5869C71.0394 47.1873 70.891 47.7112 70.5275 48.1587C70.1641 48.6062 69.6843 48.8638 69.0884 48.9315L60.6308 49.8522C60.0317 49.9174 59.5071 49.7691 59.0569 49.4073C58.6068 49.0455 58.3499 48.5658 58.2862 47.9679L57.3656 39.5103C57.3004 38.9113 57.4486 38.3866 57.8104 37.9365C58.1722 37.4863 58.652 37.2294 59.2498 37.1658C59.8476 37.1021 60.3715 37.2505 60.8215 37.6108C61.2715 37.9712 61.5292 38.4509 61.5944 39.05L61.9626 42.433Z" fill="#6B2E49"/>
</g>
<defs>
<clipPath id="clip0_18775_1680">
<rect width="100" height="100" fill="white"/>
</clipPath>
<clipPath id="clip1_18775_1680">
<rect width="100" height="100" fill="white"/>
</clipPath>
</defs>
</svg>
